%TF.GenerationSoftware,KiCad,Pcbnew,8.0.6*%
%TF.CreationDate,2024-11-17T22:59:03-03:00*%
%TF.ProjectId,canon+GH4,63616e6f-6e2b-4474-9834-2e6b69636164,V1.0*%
%TF.SameCoordinates,Original*%
%TF.FileFunction,Legend,Top*%
%TF.FilePolarity,Positive*%
%FSLAX46Y46*%
G04 Gerber Fmt 4.6, Leading zero omitted, Abs format (unit mm)*
G04 Created by KiCad (PCBNEW 8.0.6) date 2024-11-17 22:59:03*
%MOMM*%
%LPD*%
G01*
G04 APERTURE LIST*
%ADD10C,0.175000*%
%ADD11C,0.150000*%
%ADD12C,0.120000*%
G04 APERTURE END LIST*
D10*
X85843575Y-54075345D02*
X85367384Y-54408678D01*
X85843575Y-54646773D02*
X84843575Y-54646773D01*
X84843575Y-54646773D02*
X84843575Y-54265821D01*
X84843575Y-54265821D02*
X84891194Y-54170583D01*
X84891194Y-54170583D02*
X84938813Y-54122964D01*
X84938813Y-54122964D02*
X85034051Y-54075345D01*
X85034051Y-54075345D02*
X85176908Y-54075345D01*
X85176908Y-54075345D02*
X85272146Y-54122964D01*
X85272146Y-54122964D02*
X85319765Y-54170583D01*
X85319765Y-54170583D02*
X85367384Y-54265821D01*
X85367384Y-54265821D02*
X85367384Y-54646773D01*
X85795956Y-53265821D02*
X85843575Y-53361059D01*
X85843575Y-53361059D02*
X85843575Y-53551535D01*
X85843575Y-53551535D02*
X85795956Y-53646773D01*
X85795956Y-53646773D02*
X85700717Y-53694392D01*
X85700717Y-53694392D02*
X85319765Y-53694392D01*
X85319765Y-53694392D02*
X85224527Y-53646773D01*
X85224527Y-53646773D02*
X85176908Y-53551535D01*
X85176908Y-53551535D02*
X85176908Y-53361059D01*
X85176908Y-53361059D02*
X85224527Y-53265821D01*
X85224527Y-53265821D02*
X85319765Y-53218202D01*
X85319765Y-53218202D02*
X85415003Y-53218202D01*
X85415003Y-53218202D02*
X85510241Y-53694392D01*
X85176908Y-52932487D02*
X85176908Y-52551535D01*
X85843575Y-52789630D02*
X84986432Y-52789630D01*
X84986432Y-52789630D02*
X84891194Y-52742011D01*
X84891194Y-52742011D02*
X84843575Y-52646773D01*
X84843575Y-52646773D02*
X84843575Y-52551535D01*
X85843575Y-52075344D02*
X85795956Y-52170582D01*
X85795956Y-52170582D02*
X85700717Y-52218201D01*
X85700717Y-52218201D02*
X84843575Y-52218201D01*
X85795956Y-51313439D02*
X85843575Y-51408677D01*
X85843575Y-51408677D02*
X85843575Y-51599153D01*
X85843575Y-51599153D02*
X85795956Y-51694391D01*
X85795956Y-51694391D02*
X85700717Y-51742010D01*
X85700717Y-51742010D02*
X85319765Y-51742010D01*
X85319765Y-51742010D02*
X85224527Y-51694391D01*
X85224527Y-51694391D02*
X85176908Y-51599153D01*
X85176908Y-51599153D02*
X85176908Y-51408677D01*
X85176908Y-51408677D02*
X85224527Y-51313439D01*
X85224527Y-51313439D02*
X85319765Y-51265820D01*
X85319765Y-51265820D02*
X85415003Y-51265820D01*
X85415003Y-51265820D02*
X85510241Y-51742010D01*
X85843575Y-50932486D02*
X85176908Y-50408677D01*
X85176908Y-50932486D02*
X85843575Y-50408677D01*
X85557860Y-50075343D02*
X85557860Y-49599153D01*
X85843575Y-50170581D02*
X84843575Y-49837248D01*
X84843575Y-49837248D02*
X85843575Y-49503915D01*
X85843575Y-48742010D02*
X84843575Y-48742010D01*
X85795956Y-48742010D02*
X85843575Y-48837248D01*
X85843575Y-48837248D02*
X85843575Y-49027724D01*
X85843575Y-49027724D02*
X85795956Y-49122962D01*
X85795956Y-49122962D02*
X85748336Y-49170581D01*
X85748336Y-49170581D02*
X85653098Y-49218200D01*
X85653098Y-49218200D02*
X85367384Y-49218200D01*
X85367384Y-49218200D02*
X85272146Y-49170581D01*
X85272146Y-49170581D02*
X85224527Y-49122962D01*
X85224527Y-49122962D02*
X85176908Y-49027724D01*
X85176908Y-49027724D02*
X85176908Y-48837248D01*
X85176908Y-48837248D02*
X85224527Y-48742010D01*
X85843575Y-47837248D02*
X84843575Y-47837248D01*
X85795956Y-47837248D02*
X85843575Y-47932486D01*
X85843575Y-47932486D02*
X85843575Y-48122962D01*
X85843575Y-48122962D02*
X85795956Y-48218200D01*
X85795956Y-48218200D02*
X85748336Y-48265819D01*
X85748336Y-48265819D02*
X85653098Y-48313438D01*
X85653098Y-48313438D02*
X85367384Y-48313438D01*
X85367384Y-48313438D02*
X85272146Y-48265819D01*
X85272146Y-48265819D02*
X85224527Y-48218200D01*
X85224527Y-48218200D02*
X85176908Y-48122962D01*
X85176908Y-48122962D02*
X85176908Y-47932486D01*
X85176908Y-47932486D02*
X85224527Y-47837248D01*
X85843575Y-47218200D02*
X85795956Y-47313438D01*
X85795956Y-47313438D02*
X85748336Y-47361057D01*
X85748336Y-47361057D02*
X85653098Y-47408676D01*
X85653098Y-47408676D02*
X85367384Y-47408676D01*
X85367384Y-47408676D02*
X85272146Y-47361057D01*
X85272146Y-47361057D02*
X85224527Y-47313438D01*
X85224527Y-47313438D02*
X85176908Y-47218200D01*
X85176908Y-47218200D02*
X85176908Y-47075343D01*
X85176908Y-47075343D02*
X85224527Y-46980105D01*
X85224527Y-46980105D02*
X85272146Y-46932486D01*
X85272146Y-46932486D02*
X85367384Y-46884867D01*
X85367384Y-46884867D02*
X85653098Y-46884867D01*
X85653098Y-46884867D02*
X85748336Y-46932486D01*
X85748336Y-46932486D02*
X85795956Y-46980105D01*
X85795956Y-46980105D02*
X85843575Y-47075343D01*
X85843575Y-47075343D02*
X85843575Y-47218200D01*
X85176908Y-46456295D02*
X85843575Y-46456295D01*
X85272146Y-46456295D02*
X85224527Y-46408676D01*
X85224527Y-46408676D02*
X85176908Y-46313438D01*
X85176908Y-46313438D02*
X85176908Y-46170581D01*
X85176908Y-46170581D02*
X85224527Y-46075343D01*
X85224527Y-46075343D02*
X85319765Y-46027724D01*
X85319765Y-46027724D02*
X85843575Y-46027724D01*
X86929709Y-54313440D02*
X86929709Y-54646773D01*
X87453519Y-54646773D02*
X86453519Y-54646773D01*
X86453519Y-54646773D02*
X86453519Y-54170583D01*
X87453519Y-53646773D02*
X87405900Y-53742011D01*
X87405900Y-53742011D02*
X87358280Y-53789630D01*
X87358280Y-53789630D02*
X87263042Y-53837249D01*
X87263042Y-53837249D02*
X86977328Y-53837249D01*
X86977328Y-53837249D02*
X86882090Y-53789630D01*
X86882090Y-53789630D02*
X86834471Y-53742011D01*
X86834471Y-53742011D02*
X86786852Y-53646773D01*
X86786852Y-53646773D02*
X86786852Y-53503916D01*
X86786852Y-53503916D02*
X86834471Y-53408678D01*
X86834471Y-53408678D02*
X86882090Y-53361059D01*
X86882090Y-53361059D02*
X86977328Y-53313440D01*
X86977328Y-53313440D02*
X87263042Y-53313440D01*
X87263042Y-53313440D02*
X87358280Y-53361059D01*
X87358280Y-53361059D02*
X87405900Y-53408678D01*
X87405900Y-53408678D02*
X87453519Y-53503916D01*
X87453519Y-53503916D02*
X87453519Y-53646773D01*
X87453519Y-52884868D02*
X86786852Y-52884868D01*
X86977328Y-52884868D02*
X86882090Y-52837249D01*
X86882090Y-52837249D02*
X86834471Y-52789630D01*
X86834471Y-52789630D02*
X86786852Y-52694392D01*
X86786852Y-52694392D02*
X86786852Y-52599154D01*
X87453519Y-51503915D02*
X86453519Y-51503915D01*
X86453519Y-51503915D02*
X86453519Y-51265820D01*
X86453519Y-51265820D02*
X86501138Y-51122963D01*
X86501138Y-51122963D02*
X86596376Y-51027725D01*
X86596376Y-51027725D02*
X86691614Y-50980106D01*
X86691614Y-50980106D02*
X86882090Y-50932487D01*
X86882090Y-50932487D02*
X87024947Y-50932487D01*
X87024947Y-50932487D02*
X87215423Y-50980106D01*
X87215423Y-50980106D02*
X87310661Y-51027725D01*
X87310661Y-51027725D02*
X87405900Y-51122963D01*
X87405900Y-51122963D02*
X87453519Y-51265820D01*
X87453519Y-51265820D02*
X87453519Y-51503915D01*
X87453519Y-49932487D02*
X86977328Y-50265820D01*
X87453519Y-50503915D02*
X86453519Y-50503915D01*
X86453519Y-50503915D02*
X86453519Y-50122963D01*
X86453519Y-50122963D02*
X86501138Y-50027725D01*
X86501138Y-50027725D02*
X86548757Y-49980106D01*
X86548757Y-49980106D02*
X86643995Y-49932487D01*
X86643995Y-49932487D02*
X86786852Y-49932487D01*
X86786852Y-49932487D02*
X86882090Y-49980106D01*
X86882090Y-49980106D02*
X86929709Y-50027725D01*
X86929709Y-50027725D02*
X86977328Y-50122963D01*
X86977328Y-50122963D02*
X86977328Y-50503915D01*
X87453519Y-49503915D02*
X86453519Y-49503915D01*
X87072566Y-49027725D02*
X87072566Y-48265821D01*
X87453519Y-47218202D02*
X86977328Y-47551535D01*
X87453519Y-47789630D02*
X86453519Y-47789630D01*
X86453519Y-47789630D02*
X86453519Y-47408678D01*
X86453519Y-47408678D02*
X86501138Y-47313440D01*
X86501138Y-47313440D02*
X86548757Y-47265821D01*
X86548757Y-47265821D02*
X86643995Y-47218202D01*
X86643995Y-47218202D02*
X86786852Y-47218202D01*
X86786852Y-47218202D02*
X86882090Y-47265821D01*
X86882090Y-47265821D02*
X86929709Y-47313440D01*
X86929709Y-47313440D02*
X86977328Y-47408678D01*
X86977328Y-47408678D02*
X86977328Y-47789630D01*
X87453519Y-46789630D02*
X86453519Y-46789630D01*
X86453519Y-46789630D02*
X86453519Y-46408678D01*
X86453519Y-46408678D02*
X86501138Y-46313440D01*
X86501138Y-46313440D02*
X86548757Y-46265821D01*
X86548757Y-46265821D02*
X86643995Y-46218202D01*
X86643995Y-46218202D02*
X86786852Y-46218202D01*
X86786852Y-46218202D02*
X86882090Y-46265821D01*
X86882090Y-46265821D02*
X86929709Y-46313440D01*
X86929709Y-46313440D02*
X86977328Y-46408678D01*
X86977328Y-46408678D02*
X86977328Y-46789630D01*
X87453519Y-45789630D02*
X86453519Y-45789630D01*
X89444415Y-54361059D02*
X89396796Y-54408678D01*
X89396796Y-54408678D02*
X89253939Y-54503916D01*
X89253939Y-54503916D02*
X89158701Y-54551535D01*
X89158701Y-54551535D02*
X89015844Y-54599154D01*
X89015844Y-54599154D02*
X88777748Y-54646773D01*
X88777748Y-54646773D02*
X88587272Y-54646773D01*
X88587272Y-54646773D02*
X88349177Y-54599154D01*
X88349177Y-54599154D02*
X88206320Y-54551535D01*
X88206320Y-54551535D02*
X88111082Y-54503916D01*
X88111082Y-54503916D02*
X87968224Y-54408678D01*
X87968224Y-54408678D02*
X87920605Y-54361059D01*
X88063463Y-54122963D02*
X89063463Y-53789630D01*
X89063463Y-53789630D02*
X88063463Y-53456297D01*
X89063463Y-52599154D02*
X89063463Y-53170582D01*
X89063463Y-52884868D02*
X88063463Y-52884868D01*
X88063463Y-52884868D02*
X88206320Y-52980106D01*
X88206320Y-52980106D02*
X88301558Y-53075344D01*
X88301558Y-53075344D02*
X88349177Y-53170582D01*
X88968224Y-52170582D02*
X89015844Y-52122963D01*
X89015844Y-52122963D02*
X89063463Y-52170582D01*
X89063463Y-52170582D02*
X89015844Y-52218201D01*
X89015844Y-52218201D02*
X88968224Y-52170582D01*
X88968224Y-52170582D02*
X89063463Y-52170582D01*
X88063463Y-51503916D02*
X88063463Y-51408678D01*
X88063463Y-51408678D02*
X88111082Y-51313440D01*
X88111082Y-51313440D02*
X88158701Y-51265821D01*
X88158701Y-51265821D02*
X88253939Y-51218202D01*
X88253939Y-51218202D02*
X88444415Y-51170583D01*
X88444415Y-51170583D02*
X88682510Y-51170583D01*
X88682510Y-51170583D02*
X88872986Y-51218202D01*
X88872986Y-51218202D02*
X88968224Y-51265821D01*
X88968224Y-51265821D02*
X89015844Y-51313440D01*
X89015844Y-51313440D02*
X89063463Y-51408678D01*
X89063463Y-51408678D02*
X89063463Y-51503916D01*
X89063463Y-51503916D02*
X89015844Y-51599154D01*
X89015844Y-51599154D02*
X88968224Y-51646773D01*
X88968224Y-51646773D02*
X88872986Y-51694392D01*
X88872986Y-51694392D02*
X88682510Y-51742011D01*
X88682510Y-51742011D02*
X88444415Y-51742011D01*
X88444415Y-51742011D02*
X88253939Y-51694392D01*
X88253939Y-51694392D02*
X88158701Y-51646773D01*
X88158701Y-51646773D02*
X88111082Y-51599154D01*
X88111082Y-51599154D02*
X88063463Y-51503916D01*
X89444415Y-50837249D02*
X89396796Y-50789630D01*
X89396796Y-50789630D02*
X89253939Y-50694392D01*
X89253939Y-50694392D02*
X89158701Y-50646773D01*
X89158701Y-50646773D02*
X89015844Y-50599154D01*
X89015844Y-50599154D02*
X88777748Y-50551535D01*
X88777748Y-50551535D02*
X88587272Y-50551535D01*
X88587272Y-50551535D02*
X88349177Y-50599154D01*
X88349177Y-50599154D02*
X88206320Y-50646773D01*
X88206320Y-50646773D02*
X88111082Y-50694392D01*
X88111082Y-50694392D02*
X87968224Y-50789630D01*
X87968224Y-50789630D02*
X87920605Y-50837249D01*
D11*
X98642857Y-47241009D02*
X98309524Y-47241009D01*
X98309524Y-47764819D02*
X98309524Y-46764819D01*
X98309524Y-46764819D02*
X98785714Y-46764819D01*
X93792259Y-54148655D02*
X93213214Y-54097914D01*
X93424952Y-54586395D02*
X92658907Y-53943607D01*
X92658907Y-53943607D02*
X92903779Y-53651781D01*
X92903779Y-53651781D02*
X93001475Y-53609433D01*
X93001475Y-53609433D02*
X93068562Y-53603564D01*
X93068562Y-53603564D02*
X93172128Y-53628303D01*
X93172128Y-53628303D02*
X93281563Y-53720130D01*
X93281563Y-53720130D02*
X93323911Y-53817826D01*
X93323911Y-53817826D02*
X93329780Y-53884914D01*
X93329780Y-53884914D02*
X93305040Y-53988479D01*
X93305040Y-53988479D02*
X93060169Y-54280306D01*
X93344043Y-53275259D02*
X93338173Y-53208172D01*
X93338173Y-53208172D02*
X93362913Y-53104606D01*
X93362913Y-53104606D02*
X93515958Y-52922215D01*
X93515958Y-52922215D02*
X93613654Y-52879867D01*
X93613654Y-52879867D02*
X93680741Y-52873998D01*
X93680741Y-52873998D02*
X93784307Y-52898737D01*
X93784307Y-52898737D02*
X93857263Y-52959955D01*
X93857263Y-52959955D02*
X93936089Y-53088260D01*
X93936089Y-53088260D02*
X94006522Y-53893307D01*
X94006522Y-53893307D02*
X94404438Y-53419089D01*
X87038932Y-64414523D02*
X86943694Y-64366904D01*
X86943694Y-64366904D02*
X86848456Y-64271666D01*
X86848456Y-64271666D02*
X86705599Y-64128808D01*
X86705599Y-64128808D02*
X86610361Y-64081189D01*
X86610361Y-64081189D02*
X86515123Y-64081189D01*
X86562742Y-64319285D02*
X86467504Y-64271666D01*
X86467504Y-64271666D02*
X86372266Y-64176427D01*
X86372266Y-64176427D02*
X86324647Y-63985951D01*
X86324647Y-63985951D02*
X86324647Y-63652618D01*
X86324647Y-63652618D02*
X86372266Y-63462142D01*
X86372266Y-63462142D02*
X86467504Y-63366904D01*
X86467504Y-63366904D02*
X86562742Y-63319285D01*
X86562742Y-63319285D02*
X86753218Y-63319285D01*
X86753218Y-63319285D02*
X86848456Y-63366904D01*
X86848456Y-63366904D02*
X86943694Y-63462142D01*
X86943694Y-63462142D02*
X86991313Y-63652618D01*
X86991313Y-63652618D02*
X86991313Y-63985951D01*
X86991313Y-63985951D02*
X86943694Y-64176427D01*
X86943694Y-64176427D02*
X86848456Y-64271666D01*
X86848456Y-64271666D02*
X86753218Y-64319285D01*
X86753218Y-64319285D02*
X86562742Y-64319285D01*
X87372266Y-63414523D02*
X87419885Y-63366904D01*
X87419885Y-63366904D02*
X87515123Y-63319285D01*
X87515123Y-63319285D02*
X87753218Y-63319285D01*
X87753218Y-63319285D02*
X87848456Y-63366904D01*
X87848456Y-63366904D02*
X87896075Y-63414523D01*
X87896075Y-63414523D02*
X87943694Y-63509761D01*
X87943694Y-63509761D02*
X87943694Y-63604999D01*
X87943694Y-63604999D02*
X87896075Y-63747856D01*
X87896075Y-63747856D02*
X87324647Y-64319285D01*
X87324647Y-64319285D02*
X87943694Y-64319285D01*
X101454819Y-67286664D02*
X100978628Y-67619997D01*
X101454819Y-67858092D02*
X100454819Y-67858092D01*
X100454819Y-67858092D02*
X100454819Y-67477140D01*
X100454819Y-67477140D02*
X100502438Y-67381902D01*
X100502438Y-67381902D02*
X100550057Y-67334283D01*
X100550057Y-67334283D02*
X100645295Y-67286664D01*
X100645295Y-67286664D02*
X100788152Y-67286664D01*
X100788152Y-67286664D02*
X100883390Y-67334283D01*
X100883390Y-67334283D02*
X100931009Y-67381902D01*
X100931009Y-67381902D02*
X100978628Y-67477140D01*
X100978628Y-67477140D02*
X100978628Y-67858092D01*
X100454819Y-66429521D02*
X100454819Y-66619997D01*
X100454819Y-66619997D02*
X100502438Y-66715235D01*
X100502438Y-66715235D02*
X100550057Y-66762854D01*
X100550057Y-66762854D02*
X100692914Y-66858092D01*
X100692914Y-66858092D02*
X100883390Y-66905711D01*
X100883390Y-66905711D02*
X101264342Y-66905711D01*
X101264342Y-66905711D02*
X101359580Y-66858092D01*
X101359580Y-66858092D02*
X101407200Y-66810473D01*
X101407200Y-66810473D02*
X101454819Y-66715235D01*
X101454819Y-66715235D02*
X101454819Y-66524759D01*
X101454819Y-66524759D02*
X101407200Y-66429521D01*
X101407200Y-66429521D02*
X101359580Y-66381902D01*
X101359580Y-66381902D02*
X101264342Y-66334283D01*
X101264342Y-66334283D02*
X101026247Y-66334283D01*
X101026247Y-66334283D02*
X100931009Y-66381902D01*
X100931009Y-66381902D02*
X100883390Y-66429521D01*
X100883390Y-66429521D02*
X100835771Y-66524759D01*
X100835771Y-66524759D02*
X100835771Y-66715235D01*
X100835771Y-66715235D02*
X100883390Y-66810473D01*
X100883390Y-66810473D02*
X100931009Y-66858092D01*
X100931009Y-66858092D02*
X101026247Y-66905711D01*
X94134761Y-64420057D02*
X94039523Y-64372438D01*
X94039523Y-64372438D02*
X93944285Y-64277200D01*
X93944285Y-64277200D02*
X93801428Y-64134342D01*
X93801428Y-64134342D02*
X93706190Y-64086723D01*
X93706190Y-64086723D02*
X93610952Y-64086723D01*
X93658571Y-64324819D02*
X93563333Y-64277200D01*
X93563333Y-64277200D02*
X93468095Y-64181961D01*
X93468095Y-64181961D02*
X93420476Y-63991485D01*
X93420476Y-63991485D02*
X93420476Y-63658152D01*
X93420476Y-63658152D02*
X93468095Y-63467676D01*
X93468095Y-63467676D02*
X93563333Y-63372438D01*
X93563333Y-63372438D02*
X93658571Y-63324819D01*
X93658571Y-63324819D02*
X93849047Y-63324819D01*
X93849047Y-63324819D02*
X93944285Y-63372438D01*
X93944285Y-63372438D02*
X94039523Y-63467676D01*
X94039523Y-63467676D02*
X94087142Y-63658152D01*
X94087142Y-63658152D02*
X94087142Y-63991485D01*
X94087142Y-63991485D02*
X94039523Y-64181961D01*
X94039523Y-64181961D02*
X93944285Y-64277200D01*
X93944285Y-64277200D02*
X93849047Y-64324819D01*
X93849047Y-64324819D02*
X93658571Y-64324819D01*
X95039523Y-64324819D02*
X94468095Y-64324819D01*
X94753809Y-64324819D02*
X94753809Y-63324819D01*
X94753809Y-63324819D02*
X94658571Y-63467676D01*
X94658571Y-63467676D02*
X94563333Y-63562914D01*
X94563333Y-63562914D02*
X94468095Y-63610533D01*
X103214286Y-47717200D02*
X103357143Y-47764819D01*
X103357143Y-47764819D02*
X103595238Y-47764819D01*
X103595238Y-47764819D02*
X103690476Y-47717200D01*
X103690476Y-47717200D02*
X103738095Y-47669580D01*
X103738095Y-47669580D02*
X103785714Y-47574342D01*
X103785714Y-47574342D02*
X103785714Y-47479104D01*
X103785714Y-47479104D02*
X103738095Y-47383866D01*
X103738095Y-47383866D02*
X103690476Y-47336247D01*
X103690476Y-47336247D02*
X103595238Y-47288628D01*
X103595238Y-47288628D02*
X103404762Y-47241009D01*
X103404762Y-47241009D02*
X103309524Y-47193390D01*
X103309524Y-47193390D02*
X103261905Y-47145771D01*
X103261905Y-47145771D02*
X103214286Y-47050533D01*
X103214286Y-47050533D02*
X103214286Y-46955295D01*
X103214286Y-46955295D02*
X103261905Y-46860057D01*
X103261905Y-46860057D02*
X103309524Y-46812438D01*
X103309524Y-46812438D02*
X103404762Y-46764819D01*
X103404762Y-46764819D02*
X103642857Y-46764819D01*
X103642857Y-46764819D02*
X103785714Y-46812438D01*
X86761904Y-73312438D02*
X86666666Y-73264819D01*
X86666666Y-73264819D02*
X86523809Y-73264819D01*
X86523809Y-73264819D02*
X86380952Y-73312438D01*
X86380952Y-73312438D02*
X86285714Y-73407676D01*
X86285714Y-73407676D02*
X86238095Y-73502914D01*
X86238095Y-73502914D02*
X86190476Y-73693390D01*
X86190476Y-73693390D02*
X86190476Y-73836247D01*
X86190476Y-73836247D02*
X86238095Y-74026723D01*
X86238095Y-74026723D02*
X86285714Y-74121961D01*
X86285714Y-74121961D02*
X86380952Y-74217200D01*
X86380952Y-74217200D02*
X86523809Y-74264819D01*
X86523809Y-74264819D02*
X86619047Y-74264819D01*
X86619047Y-74264819D02*
X86761904Y-74217200D01*
X86761904Y-74217200D02*
X86809523Y-74169580D01*
X86809523Y-74169580D02*
X86809523Y-73836247D01*
X86809523Y-73836247D02*
X86619047Y-73836247D01*
X95714286Y-74217200D02*
X95857143Y-74264819D01*
X95857143Y-74264819D02*
X96095238Y-74264819D01*
X96095238Y-74264819D02*
X96190476Y-74217200D01*
X96190476Y-74217200D02*
X96238095Y-74169580D01*
X96238095Y-74169580D02*
X96285714Y-74074342D01*
X96285714Y-74074342D02*
X96285714Y-73979104D01*
X96285714Y-73979104D02*
X96238095Y-73883866D01*
X96238095Y-73883866D02*
X96190476Y-73836247D01*
X96190476Y-73836247D02*
X96095238Y-73788628D01*
X96095238Y-73788628D02*
X95904762Y-73741009D01*
X95904762Y-73741009D02*
X95809524Y-73693390D01*
X95809524Y-73693390D02*
X95761905Y-73645771D01*
X95761905Y-73645771D02*
X95714286Y-73550533D01*
X95714286Y-73550533D02*
X95714286Y-73455295D01*
X95714286Y-73455295D02*
X95761905Y-73360057D01*
X95761905Y-73360057D02*
X95809524Y-73312438D01*
X95809524Y-73312438D02*
X95904762Y-73264819D01*
X95904762Y-73264819D02*
X96142857Y-73264819D01*
X96142857Y-73264819D02*
X96285714Y-73312438D01*
X106634761Y-64420057D02*
X106539523Y-64372438D01*
X106539523Y-64372438D02*
X106444285Y-64277200D01*
X106444285Y-64277200D02*
X106301428Y-64134342D01*
X106301428Y-64134342D02*
X106206190Y-64086723D01*
X106206190Y-64086723D02*
X106110952Y-64086723D01*
X106158571Y-64324819D02*
X106063333Y-64277200D01*
X106063333Y-64277200D02*
X105968095Y-64181961D01*
X105968095Y-64181961D02*
X105920476Y-63991485D01*
X105920476Y-63991485D02*
X105920476Y-63658152D01*
X105920476Y-63658152D02*
X105968095Y-63467676D01*
X105968095Y-63467676D02*
X106063333Y-63372438D01*
X106063333Y-63372438D02*
X106158571Y-63324819D01*
X106158571Y-63324819D02*
X106349047Y-63324819D01*
X106349047Y-63324819D02*
X106444285Y-63372438D01*
X106444285Y-63372438D02*
X106539523Y-63467676D01*
X106539523Y-63467676D02*
X106587142Y-63658152D01*
X106587142Y-63658152D02*
X106587142Y-63991485D01*
X106587142Y-63991485D02*
X106539523Y-64181961D01*
X106539523Y-64181961D02*
X106444285Y-64277200D01*
X106444285Y-64277200D02*
X106349047Y-64324819D01*
X106349047Y-64324819D02*
X106158571Y-64324819D01*
X106920476Y-63324819D02*
X107539523Y-63324819D01*
X107539523Y-63324819D02*
X107206190Y-63705771D01*
X107206190Y-63705771D02*
X107349047Y-63705771D01*
X107349047Y-63705771D02*
X107444285Y-63753390D01*
X107444285Y-63753390D02*
X107491904Y-63801009D01*
X107491904Y-63801009D02*
X107539523Y-63896247D01*
X107539523Y-63896247D02*
X107539523Y-64134342D01*
X107539523Y-64134342D02*
X107491904Y-64229580D01*
X107491904Y-64229580D02*
X107444285Y-64277200D01*
X107444285Y-64277200D02*
X107349047Y-64324819D01*
X107349047Y-64324819D02*
X107063333Y-64324819D01*
X107063333Y-64324819D02*
X106968095Y-64277200D01*
X106968095Y-64277200D02*
X106920476Y-64229580D01*
X103792259Y-54148655D02*
X103213214Y-54097914D01*
X103424952Y-54586395D02*
X102658907Y-53943607D01*
X102658907Y-53943607D02*
X102903779Y-53651781D01*
X102903779Y-53651781D02*
X103001475Y-53609433D01*
X103001475Y-53609433D02*
X103068562Y-53603564D01*
X103068562Y-53603564D02*
X103172128Y-53628303D01*
X103172128Y-53628303D02*
X103281563Y-53720130D01*
X103281563Y-53720130D02*
X103323911Y-53817826D01*
X103323911Y-53817826D02*
X103329780Y-53884914D01*
X103329780Y-53884914D02*
X103305040Y-53988479D01*
X103305040Y-53988479D02*
X103060169Y-54280306D01*
X103240477Y-53250520D02*
X103638393Y-52776302D01*
X103638393Y-52776302D02*
X103715957Y-53276521D01*
X103715957Y-53276521D02*
X103807784Y-53167086D01*
X103807784Y-53167086D02*
X103905480Y-53124739D01*
X103905480Y-53124739D02*
X103972568Y-53118869D01*
X103972568Y-53118869D02*
X104076133Y-53143609D01*
X104076133Y-53143609D02*
X104258525Y-53296653D01*
X104258525Y-53296653D02*
X104300872Y-53394350D01*
X104300872Y-53394350D02*
X104306742Y-53461437D01*
X104306742Y-53461437D02*
X104282002Y-53565002D01*
X104282002Y-53565002D02*
X104098348Y-53783872D01*
X104098348Y-53783872D02*
X104000652Y-53826220D01*
X104000652Y-53826220D02*
X103933565Y-53832089D01*
X98792259Y-54148653D02*
X98213214Y-54097912D01*
X98424952Y-54586393D02*
X97658907Y-53943605D01*
X97658907Y-53943605D02*
X97903779Y-53651779D01*
X97903779Y-53651779D02*
X98001475Y-53609431D01*
X98001475Y-53609431D02*
X98068562Y-53603562D01*
X98068562Y-53603562D02*
X98172128Y-53628301D01*
X98172128Y-53628301D02*
X98281563Y-53720128D01*
X98281563Y-53720128D02*
X98323911Y-53817824D01*
X98323911Y-53817824D02*
X98329780Y-53884912D01*
X98329780Y-53884912D02*
X98305040Y-53988477D01*
X98305040Y-53988477D02*
X98060169Y-54280304D01*
X99404438Y-53419087D02*
X99037131Y-53856827D01*
X99220784Y-53637957D02*
X98454740Y-52995169D01*
X98454740Y-52995169D02*
X98502957Y-53159953D01*
X98502957Y-53159953D02*
X98514696Y-53294127D01*
X98514696Y-53294127D02*
X98489956Y-53397693D01*
X91142857Y-73741009D02*
X90809524Y-73741009D01*
X90809524Y-74264819D02*
X90809524Y-73264819D01*
X90809524Y-73264819D02*
X91285714Y-73264819D01*
X107738095Y-47717200D02*
X107880952Y-47764819D01*
X107880952Y-47764819D02*
X108119047Y-47764819D01*
X108119047Y-47764819D02*
X108214285Y-47717200D01*
X108214285Y-47717200D02*
X108261904Y-47669580D01*
X108261904Y-47669580D02*
X108309523Y-47574342D01*
X108309523Y-47574342D02*
X108309523Y-47479104D01*
X108309523Y-47479104D02*
X108261904Y-47383866D01*
X108261904Y-47383866D02*
X108214285Y-47336247D01*
X108214285Y-47336247D02*
X108119047Y-47288628D01*
X108119047Y-47288628D02*
X107928571Y-47241009D01*
X107928571Y-47241009D02*
X107833333Y-47193390D01*
X107833333Y-47193390D02*
X107785714Y-47145771D01*
X107785714Y-47145771D02*
X107738095Y-47050533D01*
X107738095Y-47050533D02*
X107738095Y-46955295D01*
X107738095Y-46955295D02*
X107785714Y-46860057D01*
X107785714Y-46860057D02*
X107833333Y-46812438D01*
X107833333Y-46812438D02*
X107928571Y-46764819D01*
X107928571Y-46764819D02*
X108166666Y-46764819D01*
X108166666Y-46764819D02*
X108309523Y-46812438D01*
X108690476Y-46860057D02*
X108738095Y-46812438D01*
X108738095Y-46812438D02*
X108833333Y-46764819D01*
X108833333Y-46764819D02*
X109071428Y-46764819D01*
X109071428Y-46764819D02*
X109166666Y-46812438D01*
X109166666Y-46812438D02*
X109214285Y-46860057D01*
X109214285Y-46860057D02*
X109261904Y-46955295D01*
X109261904Y-46955295D02*
X109261904Y-47050533D01*
X109261904Y-47050533D02*
X109214285Y-47193390D01*
X109214285Y-47193390D02*
X108642857Y-47764819D01*
X108642857Y-47764819D02*
X109261904Y-47764819D01*
X93761904Y-46812438D02*
X93666666Y-46764819D01*
X93666666Y-46764819D02*
X93523809Y-46764819D01*
X93523809Y-46764819D02*
X93380952Y-46812438D01*
X93380952Y-46812438D02*
X93285714Y-46907676D01*
X93285714Y-46907676D02*
X93238095Y-47002914D01*
X93238095Y-47002914D02*
X93190476Y-47193390D01*
X93190476Y-47193390D02*
X93190476Y-47336247D01*
X93190476Y-47336247D02*
X93238095Y-47526723D01*
X93238095Y-47526723D02*
X93285714Y-47621961D01*
X93285714Y-47621961D02*
X93380952Y-47717200D01*
X93380952Y-47717200D02*
X93523809Y-47764819D01*
X93523809Y-47764819D02*
X93619047Y-47764819D01*
X93619047Y-47764819D02*
X93761904Y-47717200D01*
X93761904Y-47717200D02*
X93809523Y-47669580D01*
X93809523Y-47669580D02*
X93809523Y-47336247D01*
X93809523Y-47336247D02*
X93619047Y-47336247D01*
X108454819Y-68976666D02*
X107978628Y-69309999D01*
X108454819Y-69548094D02*
X107454819Y-69548094D01*
X107454819Y-69548094D02*
X107454819Y-69167142D01*
X107454819Y-69167142D02*
X107502438Y-69071904D01*
X107502438Y-69071904D02*
X107550057Y-69024285D01*
X107550057Y-69024285D02*
X107645295Y-68976666D01*
X107645295Y-68976666D02*
X107788152Y-68976666D01*
X107788152Y-68976666D02*
X107883390Y-69024285D01*
X107883390Y-69024285D02*
X107931009Y-69071904D01*
X107931009Y-69071904D02*
X107978628Y-69167142D01*
X107978628Y-69167142D02*
X107978628Y-69548094D01*
X107788152Y-68119523D02*
X108454819Y-68119523D01*
X107407200Y-68357618D02*
X108121485Y-68595713D01*
X108121485Y-68595713D02*
X108121485Y-67976666D01*
X105954819Y-68976666D02*
X105478628Y-69309999D01*
X105954819Y-69548094D02*
X104954819Y-69548094D01*
X104954819Y-69548094D02*
X104954819Y-69167142D01*
X104954819Y-69167142D02*
X105002438Y-69071904D01*
X105002438Y-69071904D02*
X105050057Y-69024285D01*
X105050057Y-69024285D02*
X105145295Y-68976666D01*
X105145295Y-68976666D02*
X105288152Y-68976666D01*
X105288152Y-68976666D02*
X105383390Y-69024285D01*
X105383390Y-69024285D02*
X105431009Y-69071904D01*
X105431009Y-69071904D02*
X105478628Y-69167142D01*
X105478628Y-69167142D02*
X105478628Y-69548094D01*
X104954819Y-68071904D02*
X104954819Y-68548094D01*
X104954819Y-68548094D02*
X105431009Y-68595713D01*
X105431009Y-68595713D02*
X105383390Y-68548094D01*
X105383390Y-68548094D02*
X105335771Y-68452856D01*
X105335771Y-68452856D02*
X105335771Y-68214761D01*
X105335771Y-68214761D02*
X105383390Y-68119523D01*
X105383390Y-68119523D02*
X105431009Y-68071904D01*
X105431009Y-68071904D02*
X105526247Y-68024285D01*
X105526247Y-68024285D02*
X105764342Y-68024285D01*
X105764342Y-68024285D02*
X105859580Y-68071904D01*
X105859580Y-68071904D02*
X105907200Y-68119523D01*
X105907200Y-68119523D02*
X105954819Y-68214761D01*
X105954819Y-68214761D02*
X105954819Y-68452856D01*
X105954819Y-68452856D02*
X105907200Y-68548094D01*
X105907200Y-68548094D02*
X105859580Y-68595713D01*
D12*
%TO.C,TP6*%
X97200000Y-48510000D02*
X94800000Y-48510000D01*
X97200000Y-46110000D02*
X97200000Y-48510000D01*
X94800000Y-48510000D02*
X94800000Y-46110000D01*
X94800000Y-46110000D02*
X97200000Y-46110000D01*
%TO.C,R2*%
X91706179Y-55927177D02*
X92316828Y-55199435D01*
X91612066Y-54608071D02*
X93021587Y-55790800D01*
X93021587Y-55790800D02*
X95489893Y-52849188D01*
X94080370Y-51666459D02*
X91612066Y-54608071D01*
X95489893Y-52849188D02*
X94080370Y-51666459D01*
X95395781Y-51530081D02*
X94785131Y-52257824D01*
%TO.C,Q2*%
X88934171Y-58454466D02*
X85334171Y-58454466D01*
X87134171Y-62904466D02*
G75*
G02*
X85295693Y-58465988I0J2600000D01*
G01*
X88972649Y-58465988D02*
G75*
G02*
X87134171Y-62904467I-1838478J-1838478D01*
G01*
%TO.C,R6*%
X101000000Y-69990000D02*
X101000000Y-69039999D01*
X100080000Y-69039998D02*
X101920000Y-69040000D01*
X101920000Y-69040000D02*
X101919999Y-65199998D01*
X100080000Y-65199999D02*
X100080000Y-69039998D01*
X101919999Y-65199998D02*
X100080000Y-65199999D01*
X100999998Y-64249999D02*
X101000000Y-65200000D01*
%TO.C,Q1*%
X96030000Y-58460000D02*
X92430000Y-58460000D01*
X94230000Y-62910000D02*
G75*
G02*
X92391522Y-58471522I0J2600000D01*
G01*
X96068478Y-58471522D02*
G75*
G02*
X94230000Y-62910001I-1838478J-1838478D01*
G01*
%TO.C,TP5*%
X99800000Y-46110000D02*
X102200000Y-46110000D01*
X99800000Y-48510000D02*
X99800000Y-46110000D01*
X102200000Y-46110000D02*
X102200000Y-48510000D01*
X102200000Y-48510000D02*
X99800000Y-48510000D01*
%TO.C,TP1*%
X85300000Y-70610000D02*
X87700000Y-70610000D01*
X85300000Y-73010000D02*
X85300000Y-70610000D01*
X87700000Y-70610000D02*
X87700000Y-73010000D01*
X87700000Y-73010000D02*
X85300000Y-73010000D01*
%TO.C,TP2*%
X94800000Y-70610000D02*
X97200000Y-70610000D01*
X94800000Y-73010000D02*
X94800000Y-70610000D01*
X97200000Y-70610000D02*
X97200000Y-73010000D01*
X97200000Y-73010000D02*
X94800000Y-73010000D01*
%TO.C,Q3*%
X108530000Y-58460000D02*
X104930000Y-58460000D01*
X106730000Y-62910000D02*
G75*
G02*
X104891522Y-58471522I0J2600000D01*
G01*
X108568478Y-58471522D02*
G75*
G02*
X106730000Y-62910001I-1838478J-1838478D01*
G01*
%TO.C,R3*%
X101706179Y-55927177D02*
X102316827Y-55199435D01*
X101612067Y-54608071D02*
X103021588Y-55790799D01*
X103021588Y-55790799D02*
X105489892Y-52849189D01*
X104080371Y-51666459D02*
X101612067Y-54608071D01*
X105489892Y-52849189D02*
X104080371Y-51666459D01*
X105395780Y-51530082D02*
X104785131Y-52257824D01*
%TO.C,R1*%
X96706178Y-55927177D02*
X97316827Y-55199435D01*
X96612067Y-54608070D02*
X98021588Y-55790799D01*
X98021588Y-55790799D02*
X100489892Y-52849188D01*
X99080371Y-51666460D02*
X96612067Y-54608070D01*
X100489892Y-52849188D02*
X99080371Y-51666460D01*
X100395780Y-51530081D02*
X99785131Y-52257824D01*
%TO.C,TP3*%
X89800000Y-70610000D02*
X92200000Y-70610000D01*
X89800000Y-73010000D02*
X89800000Y-70610000D01*
X92200000Y-70610000D02*
X92200000Y-73010000D01*
X92200000Y-73010000D02*
X89800000Y-73010000D01*
%TO.C,TP7*%
X104800000Y-46110000D02*
X107200000Y-46110000D01*
X104800000Y-48510000D02*
X104800000Y-46110000D01*
X107200000Y-46110000D02*
X107200000Y-48510000D01*
X107200000Y-48510000D02*
X104800000Y-48510000D01*
%TO.C,TP4*%
X92200000Y-48510000D02*
X89800000Y-48510000D01*
X92200000Y-46110000D02*
X92200000Y-48510000D01*
X89800000Y-48510000D02*
X89800000Y-46110000D01*
X89800000Y-46110000D02*
X92200000Y-46110000D01*
%TO.C,R4*%
X108920000Y-70730000D02*
X108920000Y-66890000D01*
X108920000Y-66890000D02*
X107080000Y-66890000D01*
X108000000Y-71680000D02*
X108000000Y-70730000D01*
X108000000Y-65940000D02*
X108000000Y-66890000D01*
X107080000Y-70730000D02*
X108920000Y-70730000D01*
X107080000Y-66890000D02*
X107080000Y-70730000D01*
%TO.C,R5*%
X106420000Y-70730000D02*
X106420000Y-66890000D01*
X106420000Y-66890000D02*
X104580000Y-66890000D01*
X105500000Y-71680000D02*
X105500000Y-70730000D01*
X105500000Y-65940000D02*
X105500000Y-66890000D01*
X104580000Y-70730000D02*
X106420000Y-70730000D01*
X104580000Y-66890000D02*
X104580000Y-70730000D01*
%TD*%
M02*
