%TF.GenerationSoftware,KiCad,Pcbnew,8.0.6*%
%TF.CreationDate,2024-11-17T16:19:30-03:00*%
%TF.ProjectId,canon+GH4,63616e6f-6e2b-4474-9834-2e6b69636164,rev?*%
%TF.SameCoordinates,Original*%
%TF.FileFunction,Legend,Top*%
%TF.FilePolarity,Positive*%
%FSLAX46Y46*%
G04 Gerber Fmt 4.6, Leading zero omitted, Abs format (unit mm)*
G04 Created by KiCad (PCBNEW 8.0.6) date 2024-11-17 16:19:30*
%MOMM*%
%LPD*%
G01*
G04 APERTURE LIST*
%ADD10C,0.150000*%
%ADD11C,0.120000*%
G04 APERTURE END LIST*
D10*
X117214286Y-68407200D02*
X117357143Y-68454819D01*
X117357143Y-68454819D02*
X117595238Y-68454819D01*
X117595238Y-68454819D02*
X117690476Y-68407200D01*
X117690476Y-68407200D02*
X117738095Y-68359580D01*
X117738095Y-68359580D02*
X117785714Y-68264342D01*
X117785714Y-68264342D02*
X117785714Y-68169104D01*
X117785714Y-68169104D02*
X117738095Y-68073866D01*
X117738095Y-68073866D02*
X117690476Y-68026247D01*
X117690476Y-68026247D02*
X117595238Y-67978628D01*
X117595238Y-67978628D02*
X117404762Y-67931009D01*
X117404762Y-67931009D02*
X117309524Y-67883390D01*
X117309524Y-67883390D02*
X117261905Y-67835771D01*
X117261905Y-67835771D02*
X117214286Y-67740533D01*
X117214286Y-67740533D02*
X117214286Y-67645295D01*
X117214286Y-67645295D02*
X117261905Y-67550057D01*
X117261905Y-67550057D02*
X117309524Y-67502438D01*
X117309524Y-67502438D02*
X117404762Y-67454819D01*
X117404762Y-67454819D02*
X117642857Y-67454819D01*
X117642857Y-67454819D02*
X117785714Y-67502438D01*
X123642857Y-67931009D02*
X123309524Y-67931009D01*
X123309524Y-68454819D02*
X123309524Y-67454819D01*
X123309524Y-67454819D02*
X123785714Y-67454819D01*
X106761904Y-97002438D02*
X106666666Y-96954819D01*
X106666666Y-96954819D02*
X106523809Y-96954819D01*
X106523809Y-96954819D02*
X106380952Y-97002438D01*
X106380952Y-97002438D02*
X106285714Y-97097676D01*
X106285714Y-97097676D02*
X106238095Y-97192914D01*
X106238095Y-97192914D02*
X106190476Y-97383390D01*
X106190476Y-97383390D02*
X106190476Y-97526247D01*
X106190476Y-97526247D02*
X106238095Y-97716723D01*
X106238095Y-97716723D02*
X106285714Y-97811961D01*
X106285714Y-97811961D02*
X106380952Y-97907200D01*
X106380952Y-97907200D02*
X106523809Y-97954819D01*
X106523809Y-97954819D02*
X106619047Y-97954819D01*
X106619047Y-97954819D02*
X106761904Y-97907200D01*
X106761904Y-97907200D02*
X106809523Y-97859580D01*
X106809523Y-97859580D02*
X106809523Y-97526247D01*
X106809523Y-97526247D02*
X106619047Y-97526247D01*
X106214286Y-93407200D02*
X106357143Y-93454819D01*
X106357143Y-93454819D02*
X106595238Y-93454819D01*
X106595238Y-93454819D02*
X106690476Y-93407200D01*
X106690476Y-93407200D02*
X106738095Y-93359580D01*
X106738095Y-93359580D02*
X106785714Y-93264342D01*
X106785714Y-93264342D02*
X106785714Y-93169104D01*
X106785714Y-93169104D02*
X106738095Y-93073866D01*
X106738095Y-93073866D02*
X106690476Y-93026247D01*
X106690476Y-93026247D02*
X106595238Y-92978628D01*
X106595238Y-92978628D02*
X106404762Y-92931009D01*
X106404762Y-92931009D02*
X106309524Y-92883390D01*
X106309524Y-92883390D02*
X106261905Y-92835771D01*
X106261905Y-92835771D02*
X106214286Y-92740533D01*
X106214286Y-92740533D02*
X106214286Y-92645295D01*
X106214286Y-92645295D02*
X106261905Y-92550057D01*
X106261905Y-92550057D02*
X106309524Y-92502438D01*
X106309524Y-92502438D02*
X106404762Y-92454819D01*
X106404762Y-92454819D02*
X106642857Y-92454819D01*
X106642857Y-92454819D02*
X106785714Y-92502438D01*
X106642857Y-88431009D02*
X106309524Y-88431009D01*
X106309524Y-88954819D02*
X106309524Y-87954819D01*
X106309524Y-87954819D02*
X106785714Y-87954819D01*
X130166666Y-67931009D02*
X129833333Y-67931009D01*
X129833333Y-68454819D02*
X129833333Y-67454819D01*
X129833333Y-67454819D02*
X130309523Y-67454819D01*
X130642857Y-67550057D02*
X130690476Y-67502438D01*
X130690476Y-67502438D02*
X130785714Y-67454819D01*
X130785714Y-67454819D02*
X131023809Y-67454819D01*
X131023809Y-67454819D02*
X131119047Y-67502438D01*
X131119047Y-67502438D02*
X131166666Y-67550057D01*
X131166666Y-67550057D02*
X131214285Y-67645295D01*
X131214285Y-67645295D02*
X131214285Y-67740533D01*
X131214285Y-67740533D02*
X131166666Y-67883390D01*
X131166666Y-67883390D02*
X130595238Y-68454819D01*
X130595238Y-68454819D02*
X131214285Y-68454819D01*
X110261904Y-67502438D02*
X110166666Y-67454819D01*
X110166666Y-67454819D02*
X110023809Y-67454819D01*
X110023809Y-67454819D02*
X109880952Y-67502438D01*
X109880952Y-67502438D02*
X109785714Y-67597676D01*
X109785714Y-67597676D02*
X109738095Y-67692914D01*
X109738095Y-67692914D02*
X109690476Y-67883390D01*
X109690476Y-67883390D02*
X109690476Y-68026247D01*
X109690476Y-68026247D02*
X109738095Y-68216723D01*
X109738095Y-68216723D02*
X109785714Y-68311961D01*
X109785714Y-68311961D02*
X109880952Y-68407200D01*
X109880952Y-68407200D02*
X110023809Y-68454819D01*
X110023809Y-68454819D02*
X110119047Y-68454819D01*
X110119047Y-68454819D02*
X110261904Y-68407200D01*
X110261904Y-68407200D02*
X110309523Y-68359580D01*
X110309523Y-68359580D02*
X110309523Y-68026247D01*
X110309523Y-68026247D02*
X110119047Y-68026247D01*
X124023333Y-77954819D02*
X123690000Y-77478628D01*
X123451905Y-77954819D02*
X123451905Y-76954819D01*
X123451905Y-76954819D02*
X123832857Y-76954819D01*
X123832857Y-76954819D02*
X123928095Y-77002438D01*
X123928095Y-77002438D02*
X123975714Y-77050057D01*
X123975714Y-77050057D02*
X124023333Y-77145295D01*
X124023333Y-77145295D02*
X124023333Y-77288152D01*
X124023333Y-77288152D02*
X123975714Y-77383390D01*
X123975714Y-77383390D02*
X123928095Y-77431009D01*
X123928095Y-77431009D02*
X123832857Y-77478628D01*
X123832857Y-77478628D02*
X123451905Y-77478628D01*
X124356667Y-76954819D02*
X124975714Y-76954819D01*
X124975714Y-76954819D02*
X124642381Y-77335771D01*
X124642381Y-77335771D02*
X124785238Y-77335771D01*
X124785238Y-77335771D02*
X124880476Y-77383390D01*
X124880476Y-77383390D02*
X124928095Y-77431009D01*
X124928095Y-77431009D02*
X124975714Y-77526247D01*
X124975714Y-77526247D02*
X124975714Y-77764342D01*
X124975714Y-77764342D02*
X124928095Y-77859580D01*
X124928095Y-77859580D02*
X124880476Y-77907200D01*
X124880476Y-77907200D02*
X124785238Y-77954819D01*
X124785238Y-77954819D02*
X124499524Y-77954819D01*
X124499524Y-77954819D02*
X124404286Y-77907200D01*
X124404286Y-77907200D02*
X124356667Y-77859580D01*
X126454819Y-91476666D02*
X125978628Y-91809999D01*
X126454819Y-92048094D02*
X125454819Y-92048094D01*
X125454819Y-92048094D02*
X125454819Y-91667142D01*
X125454819Y-91667142D02*
X125502438Y-91571904D01*
X125502438Y-91571904D02*
X125550057Y-91524285D01*
X125550057Y-91524285D02*
X125645295Y-91476666D01*
X125645295Y-91476666D02*
X125788152Y-91476666D01*
X125788152Y-91476666D02*
X125883390Y-91524285D01*
X125883390Y-91524285D02*
X125931009Y-91571904D01*
X125931009Y-91571904D02*
X125978628Y-91667142D01*
X125978628Y-91667142D02*
X125978628Y-92048094D01*
X125454819Y-90571904D02*
X125454819Y-91048094D01*
X125454819Y-91048094D02*
X125931009Y-91095713D01*
X125931009Y-91095713D02*
X125883390Y-91048094D01*
X125883390Y-91048094D02*
X125835771Y-90952856D01*
X125835771Y-90952856D02*
X125835771Y-90714761D01*
X125835771Y-90714761D02*
X125883390Y-90619523D01*
X125883390Y-90619523D02*
X125931009Y-90571904D01*
X125931009Y-90571904D02*
X126026247Y-90524285D01*
X126026247Y-90524285D02*
X126264342Y-90524285D01*
X126264342Y-90524285D02*
X126359580Y-90571904D01*
X126359580Y-90571904D02*
X126407200Y-90619523D01*
X126407200Y-90619523D02*
X126454819Y-90714761D01*
X126454819Y-90714761D02*
X126454819Y-90952856D01*
X126454819Y-90952856D02*
X126407200Y-91048094D01*
X126407200Y-91048094D02*
X126359580Y-91095713D01*
X129954819Y-91476666D02*
X129478628Y-91809999D01*
X129954819Y-92048094D02*
X128954819Y-92048094D01*
X128954819Y-92048094D02*
X128954819Y-91667142D01*
X128954819Y-91667142D02*
X129002438Y-91571904D01*
X129002438Y-91571904D02*
X129050057Y-91524285D01*
X129050057Y-91524285D02*
X129145295Y-91476666D01*
X129145295Y-91476666D02*
X129288152Y-91476666D01*
X129288152Y-91476666D02*
X129383390Y-91524285D01*
X129383390Y-91524285D02*
X129431009Y-91571904D01*
X129431009Y-91571904D02*
X129478628Y-91667142D01*
X129478628Y-91667142D02*
X129478628Y-92048094D01*
X129288152Y-90619523D02*
X129954819Y-90619523D01*
X128907200Y-90857618D02*
X129621485Y-91095713D01*
X129621485Y-91095713D02*
X129621485Y-90476666D01*
X110643333Y-71954819D02*
X110310000Y-71478628D01*
X110071905Y-71954819D02*
X110071905Y-70954819D01*
X110071905Y-70954819D02*
X110452857Y-70954819D01*
X110452857Y-70954819D02*
X110548095Y-71002438D01*
X110548095Y-71002438D02*
X110595714Y-71050057D01*
X110595714Y-71050057D02*
X110643333Y-71145295D01*
X110643333Y-71145295D02*
X110643333Y-71288152D01*
X110643333Y-71288152D02*
X110595714Y-71383390D01*
X110595714Y-71383390D02*
X110548095Y-71431009D01*
X110548095Y-71431009D02*
X110452857Y-71478628D01*
X110452857Y-71478628D02*
X110071905Y-71478628D01*
X111024286Y-71050057D02*
X111071905Y-71002438D01*
X111071905Y-71002438D02*
X111167143Y-70954819D01*
X111167143Y-70954819D02*
X111405238Y-70954819D01*
X111405238Y-70954819D02*
X111500476Y-71002438D01*
X111500476Y-71002438D02*
X111548095Y-71050057D01*
X111548095Y-71050057D02*
X111595714Y-71145295D01*
X111595714Y-71145295D02*
X111595714Y-71240533D01*
X111595714Y-71240533D02*
X111548095Y-71383390D01*
X111548095Y-71383390D02*
X110976667Y-71954819D01*
X110976667Y-71954819D02*
X111595714Y-71954819D01*
X116023333Y-74954819D02*
X115690000Y-74478628D01*
X115451905Y-74954819D02*
X115451905Y-73954819D01*
X115451905Y-73954819D02*
X115832857Y-73954819D01*
X115832857Y-73954819D02*
X115928095Y-74002438D01*
X115928095Y-74002438D02*
X115975714Y-74050057D01*
X115975714Y-74050057D02*
X116023333Y-74145295D01*
X116023333Y-74145295D02*
X116023333Y-74288152D01*
X116023333Y-74288152D02*
X115975714Y-74383390D01*
X115975714Y-74383390D02*
X115928095Y-74431009D01*
X115928095Y-74431009D02*
X115832857Y-74478628D01*
X115832857Y-74478628D02*
X115451905Y-74478628D01*
X116975714Y-74954819D02*
X116404286Y-74954819D01*
X116690000Y-74954819D02*
X116690000Y-73954819D01*
X116690000Y-73954819D02*
X116594762Y-74097676D01*
X116594762Y-74097676D02*
X116499524Y-74192914D01*
X116499524Y-74192914D02*
X116404286Y-74240533D01*
X119406907Y-88070447D02*
X119073574Y-87594256D01*
X118835479Y-88070447D02*
X118835479Y-87070447D01*
X118835479Y-87070447D02*
X119216431Y-87070447D01*
X119216431Y-87070447D02*
X119311669Y-87118066D01*
X119311669Y-87118066D02*
X119359288Y-87165685D01*
X119359288Y-87165685D02*
X119406907Y-87260923D01*
X119406907Y-87260923D02*
X119406907Y-87403780D01*
X119406907Y-87403780D02*
X119359288Y-87499018D01*
X119359288Y-87499018D02*
X119311669Y-87546637D01*
X119311669Y-87546637D02*
X119216431Y-87594256D01*
X119216431Y-87594256D02*
X118835479Y-87594256D01*
X120264050Y-87070447D02*
X120073574Y-87070447D01*
X120073574Y-87070447D02*
X119978336Y-87118066D01*
X119978336Y-87118066D02*
X119930717Y-87165685D01*
X119930717Y-87165685D02*
X119835479Y-87308542D01*
X119835479Y-87308542D02*
X119787860Y-87499018D01*
X119787860Y-87499018D02*
X119787860Y-87879970D01*
X119787860Y-87879970D02*
X119835479Y-87975208D01*
X119835479Y-87975208D02*
X119883098Y-88022828D01*
X119883098Y-88022828D02*
X119978336Y-88070447D01*
X119978336Y-88070447D02*
X120168812Y-88070447D01*
X120168812Y-88070447D02*
X120264050Y-88022828D01*
X120264050Y-88022828D02*
X120311669Y-87975208D01*
X120311669Y-87975208D02*
X120359288Y-87879970D01*
X120359288Y-87879970D02*
X120359288Y-87641875D01*
X120359288Y-87641875D02*
X120311669Y-87546637D01*
X120311669Y-87546637D02*
X120264050Y-87499018D01*
X120264050Y-87499018D02*
X120168812Y-87451399D01*
X120168812Y-87451399D02*
X119978336Y-87451399D01*
X119978336Y-87451399D02*
X119883098Y-87499018D01*
X119883098Y-87499018D02*
X119835479Y-87546637D01*
X119835479Y-87546637D02*
X119787860Y-87641875D01*
X108134761Y-85110057D02*
X108039523Y-85062438D01*
X108039523Y-85062438D02*
X107944285Y-84967200D01*
X107944285Y-84967200D02*
X107801428Y-84824342D01*
X107801428Y-84824342D02*
X107706190Y-84776723D01*
X107706190Y-84776723D02*
X107610952Y-84776723D01*
X107658571Y-85014819D02*
X107563333Y-84967200D01*
X107563333Y-84967200D02*
X107468095Y-84871961D01*
X107468095Y-84871961D02*
X107420476Y-84681485D01*
X107420476Y-84681485D02*
X107420476Y-84348152D01*
X107420476Y-84348152D02*
X107468095Y-84157676D01*
X107468095Y-84157676D02*
X107563333Y-84062438D01*
X107563333Y-84062438D02*
X107658571Y-84014819D01*
X107658571Y-84014819D02*
X107849047Y-84014819D01*
X107849047Y-84014819D02*
X107944285Y-84062438D01*
X107944285Y-84062438D02*
X108039523Y-84157676D01*
X108039523Y-84157676D02*
X108087142Y-84348152D01*
X108087142Y-84348152D02*
X108087142Y-84681485D01*
X108087142Y-84681485D02*
X108039523Y-84871961D01*
X108039523Y-84871961D02*
X107944285Y-84967200D01*
X107944285Y-84967200D02*
X107849047Y-85014819D01*
X107849047Y-85014819D02*
X107658571Y-85014819D01*
X108468095Y-84110057D02*
X108515714Y-84062438D01*
X108515714Y-84062438D02*
X108610952Y-84014819D01*
X108610952Y-84014819D02*
X108849047Y-84014819D01*
X108849047Y-84014819D02*
X108944285Y-84062438D01*
X108944285Y-84062438D02*
X108991904Y-84110057D01*
X108991904Y-84110057D02*
X109039523Y-84205295D01*
X109039523Y-84205295D02*
X109039523Y-84300533D01*
X109039523Y-84300533D02*
X108991904Y-84443390D01*
X108991904Y-84443390D02*
X108420476Y-85014819D01*
X108420476Y-85014819D02*
X109039523Y-85014819D01*
X115634761Y-85110057D02*
X115539523Y-85062438D01*
X115539523Y-85062438D02*
X115444285Y-84967200D01*
X115444285Y-84967200D02*
X115301428Y-84824342D01*
X115301428Y-84824342D02*
X115206190Y-84776723D01*
X115206190Y-84776723D02*
X115110952Y-84776723D01*
X115158571Y-85014819D02*
X115063333Y-84967200D01*
X115063333Y-84967200D02*
X114968095Y-84871961D01*
X114968095Y-84871961D02*
X114920476Y-84681485D01*
X114920476Y-84681485D02*
X114920476Y-84348152D01*
X114920476Y-84348152D02*
X114968095Y-84157676D01*
X114968095Y-84157676D02*
X115063333Y-84062438D01*
X115063333Y-84062438D02*
X115158571Y-84014819D01*
X115158571Y-84014819D02*
X115349047Y-84014819D01*
X115349047Y-84014819D02*
X115444285Y-84062438D01*
X115444285Y-84062438D02*
X115539523Y-84157676D01*
X115539523Y-84157676D02*
X115587142Y-84348152D01*
X115587142Y-84348152D02*
X115587142Y-84681485D01*
X115587142Y-84681485D02*
X115539523Y-84871961D01*
X115539523Y-84871961D02*
X115444285Y-84967200D01*
X115444285Y-84967200D02*
X115349047Y-85014819D01*
X115349047Y-85014819D02*
X115158571Y-85014819D01*
X116539523Y-85014819D02*
X115968095Y-85014819D01*
X116253809Y-85014819D02*
X116253809Y-84014819D01*
X116253809Y-84014819D02*
X116158571Y-84157676D01*
X116158571Y-84157676D02*
X116063333Y-84252914D01*
X116063333Y-84252914D02*
X115968095Y-84300533D01*
X128134761Y-85110057D02*
X128039523Y-85062438D01*
X128039523Y-85062438D02*
X127944285Y-84967200D01*
X127944285Y-84967200D02*
X127801428Y-84824342D01*
X127801428Y-84824342D02*
X127706190Y-84776723D01*
X127706190Y-84776723D02*
X127610952Y-84776723D01*
X127658571Y-85014819D02*
X127563333Y-84967200D01*
X127563333Y-84967200D02*
X127468095Y-84871961D01*
X127468095Y-84871961D02*
X127420476Y-84681485D01*
X127420476Y-84681485D02*
X127420476Y-84348152D01*
X127420476Y-84348152D02*
X127468095Y-84157676D01*
X127468095Y-84157676D02*
X127563333Y-84062438D01*
X127563333Y-84062438D02*
X127658571Y-84014819D01*
X127658571Y-84014819D02*
X127849047Y-84014819D01*
X127849047Y-84014819D02*
X127944285Y-84062438D01*
X127944285Y-84062438D02*
X128039523Y-84157676D01*
X128039523Y-84157676D02*
X128087142Y-84348152D01*
X128087142Y-84348152D02*
X128087142Y-84681485D01*
X128087142Y-84681485D02*
X128039523Y-84871961D01*
X128039523Y-84871961D02*
X127944285Y-84967200D01*
X127944285Y-84967200D02*
X127849047Y-85014819D01*
X127849047Y-85014819D02*
X127658571Y-85014819D01*
X128420476Y-84014819D02*
X129039523Y-84014819D01*
X129039523Y-84014819D02*
X128706190Y-84395771D01*
X128706190Y-84395771D02*
X128849047Y-84395771D01*
X128849047Y-84395771D02*
X128944285Y-84443390D01*
X128944285Y-84443390D02*
X128991904Y-84491009D01*
X128991904Y-84491009D02*
X129039523Y-84586247D01*
X129039523Y-84586247D02*
X129039523Y-84824342D01*
X129039523Y-84824342D02*
X128991904Y-84919580D01*
X128991904Y-84919580D02*
X128944285Y-84967200D01*
X128944285Y-84967200D02*
X128849047Y-85014819D01*
X128849047Y-85014819D02*
X128563333Y-85014819D01*
X128563333Y-85014819D02*
X128468095Y-84967200D01*
X128468095Y-84967200D02*
X128420476Y-84919580D01*
D11*
%TO.C,TP6*%
X113800000Y-66800000D02*
X116200000Y-66800000D01*
X113800000Y-69200000D02*
X113800000Y-66800000D01*
X116200000Y-66800000D02*
X116200000Y-69200000D01*
X116200000Y-69200000D02*
X113800000Y-69200000D01*
%TO.C,TP5*%
X119800000Y-66800000D02*
X122200000Y-66800000D01*
X119800000Y-69200000D02*
X119800000Y-66800000D01*
X122200000Y-66800000D02*
X122200000Y-69200000D01*
X122200000Y-69200000D02*
X119800000Y-69200000D01*
%TO.C,TP1*%
X105300000Y-94300000D02*
X107700000Y-94300000D01*
X105300000Y-96700000D02*
X105300000Y-94300000D01*
X107700000Y-94300000D02*
X107700000Y-96700000D01*
X107700000Y-96700000D02*
X105300000Y-96700000D01*
%TO.C,TP2*%
X105300000Y-89800000D02*
X107700000Y-89800000D01*
X105300000Y-92200000D02*
X105300000Y-89800000D01*
X107700000Y-89800000D02*
X107700000Y-92200000D01*
X107700000Y-92200000D02*
X105300000Y-92200000D01*
%TO.C,TP3*%
X105300000Y-85300000D02*
X107700000Y-85300000D01*
X105300000Y-87700000D02*
X105300000Y-85300000D01*
X107700000Y-85300000D02*
X107700000Y-87700000D01*
X107700000Y-87700000D02*
X105300000Y-87700000D01*
%TO.C,TP7*%
X126800000Y-66800000D02*
X129200000Y-66800000D01*
X126800000Y-69200000D02*
X126800000Y-66800000D01*
X129200000Y-66800000D02*
X129200000Y-69200000D01*
X129200000Y-69200000D02*
X126800000Y-69200000D01*
%TO.C,TP4*%
X106300000Y-66800000D02*
X108700000Y-66800000D01*
X106300000Y-69200000D02*
X106300000Y-66800000D01*
X108700000Y-66800000D02*
X108700000Y-69200000D01*
X108700000Y-69200000D02*
X106300000Y-69200000D01*
%TO.C,R3*%
X127060000Y-77500000D02*
X126110000Y-77500000D01*
X126110000Y-78420000D02*
X126110000Y-76580000D01*
X126110000Y-76580000D02*
X122270000Y-76580000D01*
X122270000Y-78420000D02*
X126110000Y-78420000D01*
X122270000Y-76580000D02*
X122270000Y-78420000D01*
X121320000Y-77500000D02*
X122270000Y-77500000D01*
%TO.C,R5*%
X126000000Y-94180000D02*
X126000000Y-93230000D01*
X125080000Y-93230000D02*
X126920000Y-93230000D01*
X126920000Y-93230000D02*
X126920000Y-89390000D01*
X125080000Y-89390000D02*
X125080000Y-93230000D01*
X126920000Y-89390000D02*
X125080000Y-89390000D01*
X126000000Y-88440000D02*
X126000000Y-89390000D01*
%TO.C,R4*%
X129500000Y-94180000D02*
X129500000Y-93230000D01*
X128580000Y-93230000D02*
X130420000Y-93230000D01*
X130420000Y-93230000D02*
X130420000Y-89390000D01*
X128580000Y-89390000D02*
X128580000Y-93230000D01*
X130420000Y-89390000D02*
X128580000Y-89390000D01*
X129500000Y-88440000D02*
X129500000Y-89390000D01*
%TO.C,R2*%
X113680000Y-71500000D02*
X112730000Y-71500000D01*
X112730000Y-72420000D02*
X112730000Y-70580000D01*
X112730000Y-70580000D02*
X108890000Y-70580000D01*
X108890000Y-72420000D02*
X112730000Y-72420000D01*
X108890000Y-70580000D02*
X108890000Y-72420000D01*
X107940000Y-71500000D02*
X108890000Y-71500000D01*
%TO.C,R1*%
X119060000Y-74500000D02*
X118110000Y-74500000D01*
X118110000Y-75420000D02*
X118110000Y-73580000D01*
X118110000Y-73580000D02*
X114270000Y-73580000D01*
X114270000Y-75420000D02*
X118110000Y-75420000D01*
X114270000Y-73580000D02*
X114270000Y-75420000D01*
X113320000Y-74500000D02*
X114270000Y-74500000D01*
%TO.C,R6*%
X116703574Y-87615628D02*
X117653574Y-87615628D01*
X117653574Y-86695628D02*
X117653574Y-88535628D01*
X117653574Y-88535628D02*
X121493574Y-88535628D01*
X121493574Y-86695628D02*
X117653574Y-86695628D01*
X121493574Y-88535628D02*
X121493574Y-86695628D01*
X122443574Y-87615628D02*
X121493574Y-87615628D01*
%TO.C,Q2*%
X110030000Y-79150000D02*
X106430000Y-79150000D01*
X110068478Y-79161522D02*
G75*
G02*
X108230000Y-83600001I-1838478J-1838478D01*
G01*
X108230000Y-83600000D02*
G75*
G02*
X106391522Y-79161522I0J2600000D01*
G01*
%TO.C,Q1*%
X117530000Y-79150000D02*
X113930000Y-79150000D01*
X117568478Y-79161522D02*
G75*
G02*
X115730000Y-83600001I-1838478J-1838478D01*
G01*
X115730000Y-83600000D02*
G75*
G02*
X113891522Y-79161522I0J2600000D01*
G01*
%TO.C,Q3*%
X128230000Y-83600000D02*
G75*
G02*
X126391522Y-79161522I0J2600000D01*
G01*
X130068478Y-79161522D02*
G75*
G02*
X128230000Y-83600001I-1838478J-1838478D01*
G01*
X130030000Y-79150000D02*
X126430000Y-79150000D01*
%TD*%
M02*
