%TF.GenerationSoftware,KiCad,Pcbnew,8.0.6*%
%TF.CreationDate,2024-11-17T22:45:40-03:00*%
%TF.ProjectId,canon+GH4,63616e6f-6e2b-4474-9834-2e6b69636164,V1.0*%
%TF.SameCoordinates,Original*%
%TF.FileFunction,Legend,Top*%
%TF.FilePolarity,Positive*%
%FSLAX46Y46*%
G04 Gerber Fmt 4.6, Leading zero omitted, Abs format (unit mm)*
G04 Created by KiCad (PCBNEW 8.0.6) date 2024-11-17 22:45:40*
%MOMM*%
%LPD*%
G01*
G04 APERTURE LIST*
%ADD10C,0.200000*%
%ADD11C,0.150000*%
%ADD12C,0.120000*%
G04 APERTURE END LIST*
D10*
X108215718Y-56720802D02*
X107834765Y-56987469D01*
X108215718Y-57177945D02*
X107415718Y-57177945D01*
X107415718Y-57177945D02*
X107415718Y-56873183D01*
X107415718Y-56873183D02*
X107453813Y-56796993D01*
X107453813Y-56796993D02*
X107491908Y-56758898D01*
X107491908Y-56758898D02*
X107568099Y-56720802D01*
X107568099Y-56720802D02*
X107682384Y-56720802D01*
X107682384Y-56720802D02*
X107758575Y-56758898D01*
X107758575Y-56758898D02*
X107796670Y-56796993D01*
X107796670Y-56796993D02*
X107834765Y-56873183D01*
X107834765Y-56873183D02*
X107834765Y-57177945D01*
X108177623Y-56073183D02*
X108215718Y-56149374D01*
X108215718Y-56149374D02*
X108215718Y-56301755D01*
X108215718Y-56301755D02*
X108177623Y-56377945D01*
X108177623Y-56377945D02*
X108101432Y-56416041D01*
X108101432Y-56416041D02*
X107796670Y-56416041D01*
X107796670Y-56416041D02*
X107720480Y-56377945D01*
X107720480Y-56377945D02*
X107682384Y-56301755D01*
X107682384Y-56301755D02*
X107682384Y-56149374D01*
X107682384Y-56149374D02*
X107720480Y-56073183D01*
X107720480Y-56073183D02*
X107796670Y-56035088D01*
X107796670Y-56035088D02*
X107872861Y-56035088D01*
X107872861Y-56035088D02*
X107949051Y-56416041D01*
X107682384Y-55806517D02*
X107682384Y-55501755D01*
X108215718Y-55692231D02*
X107530003Y-55692231D01*
X107530003Y-55692231D02*
X107453813Y-55654136D01*
X107453813Y-55654136D02*
X107415718Y-55577946D01*
X107415718Y-55577946D02*
X107415718Y-55501755D01*
X108215718Y-55120803D02*
X108177623Y-55196993D01*
X108177623Y-55196993D02*
X108101432Y-55235088D01*
X108101432Y-55235088D02*
X107415718Y-55235088D01*
X108177623Y-54511278D02*
X108215718Y-54587469D01*
X108215718Y-54587469D02*
X108215718Y-54739850D01*
X108215718Y-54739850D02*
X108177623Y-54816040D01*
X108177623Y-54816040D02*
X108101432Y-54854136D01*
X108101432Y-54854136D02*
X107796670Y-54854136D01*
X107796670Y-54854136D02*
X107720480Y-54816040D01*
X107720480Y-54816040D02*
X107682384Y-54739850D01*
X107682384Y-54739850D02*
X107682384Y-54587469D01*
X107682384Y-54587469D02*
X107720480Y-54511278D01*
X107720480Y-54511278D02*
X107796670Y-54473183D01*
X107796670Y-54473183D02*
X107872861Y-54473183D01*
X107872861Y-54473183D02*
X107949051Y-54854136D01*
X108215718Y-54206517D02*
X107682384Y-53787469D01*
X107682384Y-54206517D02*
X108215718Y-53787469D01*
X108215718Y-53025564D02*
X107834765Y-53292231D01*
X108215718Y-53482707D02*
X107415718Y-53482707D01*
X107415718Y-53482707D02*
X107415718Y-53177945D01*
X107415718Y-53177945D02*
X107453813Y-53101755D01*
X107453813Y-53101755D02*
X107491908Y-53063660D01*
X107491908Y-53063660D02*
X107568099Y-53025564D01*
X107568099Y-53025564D02*
X107682384Y-53025564D01*
X107682384Y-53025564D02*
X107758575Y-53063660D01*
X107758575Y-53063660D02*
X107796670Y-53101755D01*
X107796670Y-53101755D02*
X107834765Y-53177945D01*
X107834765Y-53177945D02*
X107834765Y-53482707D01*
X108215718Y-52682707D02*
X107415718Y-52682707D01*
X107415718Y-52682707D02*
X107415718Y-52377945D01*
X107415718Y-52377945D02*
X107453813Y-52301755D01*
X107453813Y-52301755D02*
X107491908Y-52263660D01*
X107491908Y-52263660D02*
X107568099Y-52225564D01*
X107568099Y-52225564D02*
X107682384Y-52225564D01*
X107682384Y-52225564D02*
X107758575Y-52263660D01*
X107758575Y-52263660D02*
X107796670Y-52301755D01*
X107796670Y-52301755D02*
X107834765Y-52377945D01*
X107834765Y-52377945D02*
X107834765Y-52682707D01*
X108215718Y-51882707D02*
X107415718Y-51882707D01*
X109275101Y-57216041D02*
X109275101Y-56835088D01*
X109503673Y-57292231D02*
X108703673Y-57025564D01*
X108703673Y-57025564D02*
X109503673Y-56758898D01*
X109503673Y-56149374D02*
X108703673Y-56149374D01*
X109465578Y-56149374D02*
X109503673Y-56225565D01*
X109503673Y-56225565D02*
X109503673Y-56377946D01*
X109503673Y-56377946D02*
X109465578Y-56454136D01*
X109465578Y-56454136D02*
X109427482Y-56492231D01*
X109427482Y-56492231D02*
X109351292Y-56530327D01*
X109351292Y-56530327D02*
X109122720Y-56530327D01*
X109122720Y-56530327D02*
X109046530Y-56492231D01*
X109046530Y-56492231D02*
X109008435Y-56454136D01*
X109008435Y-56454136D02*
X108970339Y-56377946D01*
X108970339Y-56377946D02*
X108970339Y-56225565D01*
X108970339Y-56225565D02*
X109008435Y-56149374D01*
X109503673Y-55425564D02*
X108703673Y-55425564D01*
X109465578Y-55425564D02*
X109503673Y-55501755D01*
X109503673Y-55501755D02*
X109503673Y-55654136D01*
X109503673Y-55654136D02*
X109465578Y-55730326D01*
X109465578Y-55730326D02*
X109427482Y-55768421D01*
X109427482Y-55768421D02*
X109351292Y-55806517D01*
X109351292Y-55806517D02*
X109122720Y-55806517D01*
X109122720Y-55806517D02*
X109046530Y-55768421D01*
X109046530Y-55768421D02*
X109008435Y-55730326D01*
X109008435Y-55730326D02*
X108970339Y-55654136D01*
X108970339Y-55654136D02*
X108970339Y-55501755D01*
X108970339Y-55501755D02*
X109008435Y-55425564D01*
X109503673Y-54930326D02*
X109465578Y-55006516D01*
X109465578Y-55006516D02*
X109427482Y-55044611D01*
X109427482Y-55044611D02*
X109351292Y-55082707D01*
X109351292Y-55082707D02*
X109122720Y-55082707D01*
X109122720Y-55082707D02*
X109046530Y-55044611D01*
X109046530Y-55044611D02*
X109008435Y-55006516D01*
X109008435Y-55006516D02*
X108970339Y-54930326D01*
X108970339Y-54930326D02*
X108970339Y-54816040D01*
X108970339Y-54816040D02*
X109008435Y-54739849D01*
X109008435Y-54739849D02*
X109046530Y-54701754D01*
X109046530Y-54701754D02*
X109122720Y-54663659D01*
X109122720Y-54663659D02*
X109351292Y-54663659D01*
X109351292Y-54663659D02*
X109427482Y-54701754D01*
X109427482Y-54701754D02*
X109465578Y-54739849D01*
X109465578Y-54739849D02*
X109503673Y-54816040D01*
X109503673Y-54816040D02*
X109503673Y-54930326D01*
X108970339Y-54320801D02*
X109503673Y-54320801D01*
X109046530Y-54320801D02*
X109008435Y-54282706D01*
X109008435Y-54282706D02*
X108970339Y-54206516D01*
X108970339Y-54206516D02*
X108970339Y-54092230D01*
X108970339Y-54092230D02*
X109008435Y-54016039D01*
X109008435Y-54016039D02*
X109084625Y-53977944D01*
X109084625Y-53977944D02*
X109503673Y-53977944D01*
X109198911Y-53596991D02*
X109198911Y-52987468D01*
X108703673Y-52720801D02*
X109503673Y-52454134D01*
X109503673Y-52454134D02*
X108703673Y-52187468D01*
X109503673Y-51501754D02*
X109503673Y-51958897D01*
X109503673Y-51730325D02*
X108703673Y-51730325D01*
X108703673Y-51730325D02*
X108817958Y-51806516D01*
X108817958Y-51806516D02*
X108894149Y-51882706D01*
X108894149Y-51882706D02*
X108932244Y-51958897D01*
X109427482Y-51158896D02*
X109465578Y-51120801D01*
X109465578Y-51120801D02*
X109503673Y-51158896D01*
X109503673Y-51158896D02*
X109465578Y-51196992D01*
X109465578Y-51196992D02*
X109427482Y-51158896D01*
X109427482Y-51158896D02*
X109503673Y-51158896D01*
X108703673Y-50625563D02*
X108703673Y-50549373D01*
X108703673Y-50549373D02*
X108741768Y-50473182D01*
X108741768Y-50473182D02*
X108779863Y-50435087D01*
X108779863Y-50435087D02*
X108856054Y-50396992D01*
X108856054Y-50396992D02*
X109008435Y-50358897D01*
X109008435Y-50358897D02*
X109198911Y-50358897D01*
X109198911Y-50358897D02*
X109351292Y-50396992D01*
X109351292Y-50396992D02*
X109427482Y-50435087D01*
X109427482Y-50435087D02*
X109465578Y-50473182D01*
X109465578Y-50473182D02*
X109503673Y-50549373D01*
X109503673Y-50549373D02*
X109503673Y-50625563D01*
X109503673Y-50625563D02*
X109465578Y-50701754D01*
X109465578Y-50701754D02*
X109427482Y-50739849D01*
X109427482Y-50739849D02*
X109351292Y-50777944D01*
X109351292Y-50777944D02*
X109198911Y-50816040D01*
X109198911Y-50816040D02*
X109008435Y-50816040D01*
X109008435Y-50816040D02*
X108856054Y-50777944D01*
X108856054Y-50777944D02*
X108779863Y-50739849D01*
X108779863Y-50739849D02*
X108741768Y-50701754D01*
X108741768Y-50701754D02*
X108703673Y-50625563D01*
D11*
X98642857Y-47241009D02*
X98309524Y-47241009D01*
X98309524Y-47764819D02*
X98309524Y-46764819D01*
X98309524Y-46764819D02*
X98785714Y-46764819D01*
X92783515Y-53192217D02*
X92256744Y-52946491D01*
X92288643Y-53477932D02*
X91788643Y-52611906D01*
X91788643Y-52611906D02*
X92118558Y-52421430D01*
X92118558Y-52421430D02*
X92224846Y-52415050D01*
X92224846Y-52415050D02*
X92289895Y-52432480D01*
X92289895Y-52432480D02*
X92378753Y-52491149D01*
X92378753Y-52491149D02*
X92450182Y-52614867D01*
X92450182Y-52614867D02*
X92456561Y-52721155D01*
X92456561Y-52721155D02*
X92439131Y-52786204D01*
X92439131Y-52786204D02*
X92380462Y-52875062D01*
X92380462Y-52875062D02*
X92050548Y-53065539D01*
X92661048Y-52218194D02*
X92678478Y-52153146D01*
X92678478Y-52153146D02*
X92737147Y-52064287D01*
X92737147Y-52064287D02*
X92943344Y-51945240D01*
X92943344Y-51945240D02*
X93049632Y-51938860D01*
X93049632Y-51938860D02*
X93114681Y-51956290D01*
X93114681Y-51956290D02*
X93203539Y-52014959D01*
X93203539Y-52014959D02*
X93251158Y-52097437D01*
X93251158Y-52097437D02*
X93281347Y-52244965D01*
X93281347Y-52244965D02*
X93072190Y-53025551D01*
X93072190Y-53025551D02*
X93608301Y-52716027D01*
X87038932Y-64414523D02*
X86943694Y-64366904D01*
X86943694Y-64366904D02*
X86848456Y-64271666D01*
X86848456Y-64271666D02*
X86705599Y-64128808D01*
X86705599Y-64128808D02*
X86610361Y-64081189D01*
X86610361Y-64081189D02*
X86515123Y-64081189D01*
X86562742Y-64319285D02*
X86467504Y-64271666D01*
X86467504Y-64271666D02*
X86372266Y-64176427D01*
X86372266Y-64176427D02*
X86324647Y-63985951D01*
X86324647Y-63985951D02*
X86324647Y-63652618D01*
X86324647Y-63652618D02*
X86372266Y-63462142D01*
X86372266Y-63462142D02*
X86467504Y-63366904D01*
X86467504Y-63366904D02*
X86562742Y-63319285D01*
X86562742Y-63319285D02*
X86753218Y-63319285D01*
X86753218Y-63319285D02*
X86848456Y-63366904D01*
X86848456Y-63366904D02*
X86943694Y-63462142D01*
X86943694Y-63462142D02*
X86991313Y-63652618D01*
X86991313Y-63652618D02*
X86991313Y-63985951D01*
X86991313Y-63985951D02*
X86943694Y-64176427D01*
X86943694Y-64176427D02*
X86848456Y-64271666D01*
X86848456Y-64271666D02*
X86753218Y-64319285D01*
X86753218Y-64319285D02*
X86562742Y-64319285D01*
X87372266Y-63414523D02*
X87419885Y-63366904D01*
X87419885Y-63366904D02*
X87515123Y-63319285D01*
X87515123Y-63319285D02*
X87753218Y-63319285D01*
X87753218Y-63319285D02*
X87848456Y-63366904D01*
X87848456Y-63366904D02*
X87896075Y-63414523D01*
X87896075Y-63414523D02*
X87943694Y-63509761D01*
X87943694Y-63509761D02*
X87943694Y-63604999D01*
X87943694Y-63604999D02*
X87896075Y-63747856D01*
X87896075Y-63747856D02*
X87324647Y-64319285D01*
X87324647Y-64319285D02*
X87943694Y-64319285D01*
X101454819Y-67286664D02*
X100978628Y-67619997D01*
X101454819Y-67858092D02*
X100454819Y-67858092D01*
X100454819Y-67858092D02*
X100454819Y-67477140D01*
X100454819Y-67477140D02*
X100502438Y-67381902D01*
X100502438Y-67381902D02*
X100550057Y-67334283D01*
X100550057Y-67334283D02*
X100645295Y-67286664D01*
X100645295Y-67286664D02*
X100788152Y-67286664D01*
X100788152Y-67286664D02*
X100883390Y-67334283D01*
X100883390Y-67334283D02*
X100931009Y-67381902D01*
X100931009Y-67381902D02*
X100978628Y-67477140D01*
X100978628Y-67477140D02*
X100978628Y-67858092D01*
X100454819Y-66429521D02*
X100454819Y-66619997D01*
X100454819Y-66619997D02*
X100502438Y-66715235D01*
X100502438Y-66715235D02*
X100550057Y-66762854D01*
X100550057Y-66762854D02*
X100692914Y-66858092D01*
X100692914Y-66858092D02*
X100883390Y-66905711D01*
X100883390Y-66905711D02*
X101264342Y-66905711D01*
X101264342Y-66905711D02*
X101359580Y-66858092D01*
X101359580Y-66858092D02*
X101407200Y-66810473D01*
X101407200Y-66810473D02*
X101454819Y-66715235D01*
X101454819Y-66715235D02*
X101454819Y-66524759D01*
X101454819Y-66524759D02*
X101407200Y-66429521D01*
X101407200Y-66429521D02*
X101359580Y-66381902D01*
X101359580Y-66381902D02*
X101264342Y-66334283D01*
X101264342Y-66334283D02*
X101026247Y-66334283D01*
X101026247Y-66334283D02*
X100931009Y-66381902D01*
X100931009Y-66381902D02*
X100883390Y-66429521D01*
X100883390Y-66429521D02*
X100835771Y-66524759D01*
X100835771Y-66524759D02*
X100835771Y-66715235D01*
X100835771Y-66715235D02*
X100883390Y-66810473D01*
X100883390Y-66810473D02*
X100931009Y-66858092D01*
X100931009Y-66858092D02*
X101026247Y-66905711D01*
X94134761Y-64420057D02*
X94039523Y-64372438D01*
X94039523Y-64372438D02*
X93944285Y-64277200D01*
X93944285Y-64277200D02*
X93801428Y-64134342D01*
X93801428Y-64134342D02*
X93706190Y-64086723D01*
X93706190Y-64086723D02*
X93610952Y-64086723D01*
X93658571Y-64324819D02*
X93563333Y-64277200D01*
X93563333Y-64277200D02*
X93468095Y-64181961D01*
X93468095Y-64181961D02*
X93420476Y-63991485D01*
X93420476Y-63991485D02*
X93420476Y-63658152D01*
X93420476Y-63658152D02*
X93468095Y-63467676D01*
X93468095Y-63467676D02*
X93563333Y-63372438D01*
X93563333Y-63372438D02*
X93658571Y-63324819D01*
X93658571Y-63324819D02*
X93849047Y-63324819D01*
X93849047Y-63324819D02*
X93944285Y-63372438D01*
X93944285Y-63372438D02*
X94039523Y-63467676D01*
X94039523Y-63467676D02*
X94087142Y-63658152D01*
X94087142Y-63658152D02*
X94087142Y-63991485D01*
X94087142Y-63991485D02*
X94039523Y-64181961D01*
X94039523Y-64181961D02*
X93944285Y-64277200D01*
X93944285Y-64277200D02*
X93849047Y-64324819D01*
X93849047Y-64324819D02*
X93658571Y-64324819D01*
X95039523Y-64324819D02*
X94468095Y-64324819D01*
X94753809Y-64324819D02*
X94753809Y-63324819D01*
X94753809Y-63324819D02*
X94658571Y-63467676D01*
X94658571Y-63467676D02*
X94563333Y-63562914D01*
X94563333Y-63562914D02*
X94468095Y-63610533D01*
X103214286Y-47717200D02*
X103357143Y-47764819D01*
X103357143Y-47764819D02*
X103595238Y-47764819D01*
X103595238Y-47764819D02*
X103690476Y-47717200D01*
X103690476Y-47717200D02*
X103738095Y-47669580D01*
X103738095Y-47669580D02*
X103785714Y-47574342D01*
X103785714Y-47574342D02*
X103785714Y-47479104D01*
X103785714Y-47479104D02*
X103738095Y-47383866D01*
X103738095Y-47383866D02*
X103690476Y-47336247D01*
X103690476Y-47336247D02*
X103595238Y-47288628D01*
X103595238Y-47288628D02*
X103404762Y-47241009D01*
X103404762Y-47241009D02*
X103309524Y-47193390D01*
X103309524Y-47193390D02*
X103261905Y-47145771D01*
X103261905Y-47145771D02*
X103214286Y-47050533D01*
X103214286Y-47050533D02*
X103214286Y-46955295D01*
X103214286Y-46955295D02*
X103261905Y-46860057D01*
X103261905Y-46860057D02*
X103309524Y-46812438D01*
X103309524Y-46812438D02*
X103404762Y-46764819D01*
X103404762Y-46764819D02*
X103642857Y-46764819D01*
X103642857Y-46764819D02*
X103785714Y-46812438D01*
X86761904Y-73312438D02*
X86666666Y-73264819D01*
X86666666Y-73264819D02*
X86523809Y-73264819D01*
X86523809Y-73264819D02*
X86380952Y-73312438D01*
X86380952Y-73312438D02*
X86285714Y-73407676D01*
X86285714Y-73407676D02*
X86238095Y-73502914D01*
X86238095Y-73502914D02*
X86190476Y-73693390D01*
X86190476Y-73693390D02*
X86190476Y-73836247D01*
X86190476Y-73836247D02*
X86238095Y-74026723D01*
X86238095Y-74026723D02*
X86285714Y-74121961D01*
X86285714Y-74121961D02*
X86380952Y-74217200D01*
X86380952Y-74217200D02*
X86523809Y-74264819D01*
X86523809Y-74264819D02*
X86619047Y-74264819D01*
X86619047Y-74264819D02*
X86761904Y-74217200D01*
X86761904Y-74217200D02*
X86809523Y-74169580D01*
X86809523Y-74169580D02*
X86809523Y-73836247D01*
X86809523Y-73836247D02*
X86619047Y-73836247D01*
X95714286Y-74217200D02*
X95857143Y-74264819D01*
X95857143Y-74264819D02*
X96095238Y-74264819D01*
X96095238Y-74264819D02*
X96190476Y-74217200D01*
X96190476Y-74217200D02*
X96238095Y-74169580D01*
X96238095Y-74169580D02*
X96285714Y-74074342D01*
X96285714Y-74074342D02*
X96285714Y-73979104D01*
X96285714Y-73979104D02*
X96238095Y-73883866D01*
X96238095Y-73883866D02*
X96190476Y-73836247D01*
X96190476Y-73836247D02*
X96095238Y-73788628D01*
X96095238Y-73788628D02*
X95904762Y-73741009D01*
X95904762Y-73741009D02*
X95809524Y-73693390D01*
X95809524Y-73693390D02*
X95761905Y-73645771D01*
X95761905Y-73645771D02*
X95714286Y-73550533D01*
X95714286Y-73550533D02*
X95714286Y-73455295D01*
X95714286Y-73455295D02*
X95761905Y-73360057D01*
X95761905Y-73360057D02*
X95809524Y-73312438D01*
X95809524Y-73312438D02*
X95904762Y-73264819D01*
X95904762Y-73264819D02*
X96142857Y-73264819D01*
X96142857Y-73264819D02*
X96285714Y-73312438D01*
X106634761Y-64420057D02*
X106539523Y-64372438D01*
X106539523Y-64372438D02*
X106444285Y-64277200D01*
X106444285Y-64277200D02*
X106301428Y-64134342D01*
X106301428Y-64134342D02*
X106206190Y-64086723D01*
X106206190Y-64086723D02*
X106110952Y-64086723D01*
X106158571Y-64324819D02*
X106063333Y-64277200D01*
X106063333Y-64277200D02*
X105968095Y-64181961D01*
X105968095Y-64181961D02*
X105920476Y-63991485D01*
X105920476Y-63991485D02*
X105920476Y-63658152D01*
X105920476Y-63658152D02*
X105968095Y-63467676D01*
X105968095Y-63467676D02*
X106063333Y-63372438D01*
X106063333Y-63372438D02*
X106158571Y-63324819D01*
X106158571Y-63324819D02*
X106349047Y-63324819D01*
X106349047Y-63324819D02*
X106444285Y-63372438D01*
X106444285Y-63372438D02*
X106539523Y-63467676D01*
X106539523Y-63467676D02*
X106587142Y-63658152D01*
X106587142Y-63658152D02*
X106587142Y-63991485D01*
X106587142Y-63991485D02*
X106539523Y-64181961D01*
X106539523Y-64181961D02*
X106444285Y-64277200D01*
X106444285Y-64277200D02*
X106349047Y-64324819D01*
X106349047Y-64324819D02*
X106158571Y-64324819D01*
X106920476Y-63324819D02*
X107539523Y-63324819D01*
X107539523Y-63324819D02*
X107206190Y-63705771D01*
X107206190Y-63705771D02*
X107349047Y-63705771D01*
X107349047Y-63705771D02*
X107444285Y-63753390D01*
X107444285Y-63753390D02*
X107491904Y-63801009D01*
X107491904Y-63801009D02*
X107539523Y-63896247D01*
X107539523Y-63896247D02*
X107539523Y-64134342D01*
X107539523Y-64134342D02*
X107491904Y-64229580D01*
X107491904Y-64229580D02*
X107444285Y-64277200D01*
X107444285Y-64277200D02*
X107349047Y-64324819D01*
X107349047Y-64324819D02*
X107063333Y-64324819D01*
X107063333Y-64324819D02*
X106968095Y-64277200D01*
X106968095Y-64277200D02*
X106920476Y-64229580D01*
X103792259Y-54148655D02*
X103213214Y-54097914D01*
X103424952Y-54586395D02*
X102658907Y-53943607D01*
X102658907Y-53943607D02*
X102903779Y-53651781D01*
X102903779Y-53651781D02*
X103001475Y-53609433D01*
X103001475Y-53609433D02*
X103068562Y-53603564D01*
X103068562Y-53603564D02*
X103172128Y-53628303D01*
X103172128Y-53628303D02*
X103281563Y-53720130D01*
X103281563Y-53720130D02*
X103323911Y-53817826D01*
X103323911Y-53817826D02*
X103329780Y-53884914D01*
X103329780Y-53884914D02*
X103305040Y-53988479D01*
X103305040Y-53988479D02*
X103060169Y-54280306D01*
X103240477Y-53250520D02*
X103638393Y-52776302D01*
X103638393Y-52776302D02*
X103715957Y-53276521D01*
X103715957Y-53276521D02*
X103807784Y-53167086D01*
X103807784Y-53167086D02*
X103905480Y-53124739D01*
X103905480Y-53124739D02*
X103972568Y-53118869D01*
X103972568Y-53118869D02*
X104076133Y-53143609D01*
X104076133Y-53143609D02*
X104258525Y-53296653D01*
X104258525Y-53296653D02*
X104300872Y-53394350D01*
X104300872Y-53394350D02*
X104306742Y-53461437D01*
X104306742Y-53461437D02*
X104282002Y-53565002D01*
X104282002Y-53565002D02*
X104098348Y-53783872D01*
X104098348Y-53783872D02*
X104000652Y-53826220D01*
X104000652Y-53826220D02*
X103933565Y-53832089D01*
X98792259Y-54148653D02*
X98213214Y-54097912D01*
X98424952Y-54586393D02*
X97658907Y-53943605D01*
X97658907Y-53943605D02*
X97903779Y-53651779D01*
X97903779Y-53651779D02*
X98001475Y-53609431D01*
X98001475Y-53609431D02*
X98068562Y-53603562D01*
X98068562Y-53603562D02*
X98172128Y-53628301D01*
X98172128Y-53628301D02*
X98281563Y-53720128D01*
X98281563Y-53720128D02*
X98323911Y-53817824D01*
X98323911Y-53817824D02*
X98329780Y-53884912D01*
X98329780Y-53884912D02*
X98305040Y-53988477D01*
X98305040Y-53988477D02*
X98060169Y-54280304D01*
X99404438Y-53419087D02*
X99037131Y-53856827D01*
X99220784Y-53637957D02*
X98454740Y-52995169D01*
X98454740Y-52995169D02*
X98502957Y-53159953D01*
X98502957Y-53159953D02*
X98514696Y-53294127D01*
X98514696Y-53294127D02*
X98489956Y-53397693D01*
X91142857Y-73741009D02*
X90809524Y-73741009D01*
X90809524Y-74264819D02*
X90809524Y-73264819D01*
X90809524Y-73264819D02*
X91285714Y-73264819D01*
X107738095Y-47717200D02*
X107880952Y-47764819D01*
X107880952Y-47764819D02*
X108119047Y-47764819D01*
X108119047Y-47764819D02*
X108214285Y-47717200D01*
X108214285Y-47717200D02*
X108261904Y-47669580D01*
X108261904Y-47669580D02*
X108309523Y-47574342D01*
X108309523Y-47574342D02*
X108309523Y-47479104D01*
X108309523Y-47479104D02*
X108261904Y-47383866D01*
X108261904Y-47383866D02*
X108214285Y-47336247D01*
X108214285Y-47336247D02*
X108119047Y-47288628D01*
X108119047Y-47288628D02*
X107928571Y-47241009D01*
X107928571Y-47241009D02*
X107833333Y-47193390D01*
X107833333Y-47193390D02*
X107785714Y-47145771D01*
X107785714Y-47145771D02*
X107738095Y-47050533D01*
X107738095Y-47050533D02*
X107738095Y-46955295D01*
X107738095Y-46955295D02*
X107785714Y-46860057D01*
X107785714Y-46860057D02*
X107833333Y-46812438D01*
X107833333Y-46812438D02*
X107928571Y-46764819D01*
X107928571Y-46764819D02*
X108166666Y-46764819D01*
X108166666Y-46764819D02*
X108309523Y-46812438D01*
X108690476Y-46860057D02*
X108738095Y-46812438D01*
X108738095Y-46812438D02*
X108833333Y-46764819D01*
X108833333Y-46764819D02*
X109071428Y-46764819D01*
X109071428Y-46764819D02*
X109166666Y-46812438D01*
X109166666Y-46812438D02*
X109214285Y-46860057D01*
X109214285Y-46860057D02*
X109261904Y-46955295D01*
X109261904Y-46955295D02*
X109261904Y-47050533D01*
X109261904Y-47050533D02*
X109214285Y-47193390D01*
X109214285Y-47193390D02*
X108642857Y-47764819D01*
X108642857Y-47764819D02*
X109261904Y-47764819D01*
X93761904Y-46812438D02*
X93666666Y-46764819D01*
X93666666Y-46764819D02*
X93523809Y-46764819D01*
X93523809Y-46764819D02*
X93380952Y-46812438D01*
X93380952Y-46812438D02*
X93285714Y-46907676D01*
X93285714Y-46907676D02*
X93238095Y-47002914D01*
X93238095Y-47002914D02*
X93190476Y-47193390D01*
X93190476Y-47193390D02*
X93190476Y-47336247D01*
X93190476Y-47336247D02*
X93238095Y-47526723D01*
X93238095Y-47526723D02*
X93285714Y-47621961D01*
X93285714Y-47621961D02*
X93380952Y-47717200D01*
X93380952Y-47717200D02*
X93523809Y-47764819D01*
X93523809Y-47764819D02*
X93619047Y-47764819D01*
X93619047Y-47764819D02*
X93761904Y-47717200D01*
X93761904Y-47717200D02*
X93809523Y-47669580D01*
X93809523Y-47669580D02*
X93809523Y-47336247D01*
X93809523Y-47336247D02*
X93619047Y-47336247D01*
X108454819Y-68976666D02*
X107978628Y-69309999D01*
X108454819Y-69548094D02*
X107454819Y-69548094D01*
X107454819Y-69548094D02*
X107454819Y-69167142D01*
X107454819Y-69167142D02*
X107502438Y-69071904D01*
X107502438Y-69071904D02*
X107550057Y-69024285D01*
X107550057Y-69024285D02*
X107645295Y-68976666D01*
X107645295Y-68976666D02*
X107788152Y-68976666D01*
X107788152Y-68976666D02*
X107883390Y-69024285D01*
X107883390Y-69024285D02*
X107931009Y-69071904D01*
X107931009Y-69071904D02*
X107978628Y-69167142D01*
X107978628Y-69167142D02*
X107978628Y-69548094D01*
X107788152Y-68119523D02*
X108454819Y-68119523D01*
X107407200Y-68357618D02*
X108121485Y-68595713D01*
X108121485Y-68595713D02*
X108121485Y-67976666D01*
X105954819Y-68976666D02*
X105478628Y-69309999D01*
X105954819Y-69548094D02*
X104954819Y-69548094D01*
X104954819Y-69548094D02*
X104954819Y-69167142D01*
X104954819Y-69167142D02*
X105002438Y-69071904D01*
X105002438Y-69071904D02*
X105050057Y-69024285D01*
X105050057Y-69024285D02*
X105145295Y-68976666D01*
X105145295Y-68976666D02*
X105288152Y-68976666D01*
X105288152Y-68976666D02*
X105383390Y-69024285D01*
X105383390Y-69024285D02*
X105431009Y-69071904D01*
X105431009Y-69071904D02*
X105478628Y-69167142D01*
X105478628Y-69167142D02*
X105478628Y-69548094D01*
X104954819Y-68071904D02*
X104954819Y-68548094D01*
X104954819Y-68548094D02*
X105431009Y-68595713D01*
X105431009Y-68595713D02*
X105383390Y-68548094D01*
X105383390Y-68548094D02*
X105335771Y-68452856D01*
X105335771Y-68452856D02*
X105335771Y-68214761D01*
X105335771Y-68214761D02*
X105383390Y-68119523D01*
X105383390Y-68119523D02*
X105431009Y-68071904D01*
X105431009Y-68071904D02*
X105526247Y-68024285D01*
X105526247Y-68024285D02*
X105764342Y-68024285D01*
X105764342Y-68024285D02*
X105859580Y-68071904D01*
X105859580Y-68071904D02*
X105907200Y-68119523D01*
X105907200Y-68119523D02*
X105954819Y-68214761D01*
X105954819Y-68214761D02*
X105954819Y-68452856D01*
X105954819Y-68452856D02*
X105907200Y-68548094D01*
X105907200Y-68548094D02*
X105859580Y-68595713D01*
D12*
%TO.C,TP6*%
X97200000Y-48510000D02*
X94800000Y-48510000D01*
X97200000Y-46110000D02*
X97200000Y-48510000D01*
X94800000Y-48510000D02*
X94800000Y-46110000D01*
X94800000Y-46110000D02*
X97200000Y-46110000D01*
%TO.C,R2*%
X90214950Y-54150000D02*
X91037675Y-53675000D01*
X90577675Y-52878257D02*
X91497674Y-54471743D01*
X91497674Y-54471743D02*
X94823212Y-52551743D01*
X93903212Y-50958257D02*
X90577675Y-52878257D01*
X94823212Y-52551743D02*
X93903212Y-50958257D01*
X95185937Y-51280000D02*
X94363212Y-51755000D01*
%TO.C,Q2*%
X88934171Y-58454466D02*
X85334171Y-58454466D01*
X87134171Y-62904466D02*
G75*
G02*
X85295693Y-58465988I0J2600000D01*
G01*
X88972649Y-58465988D02*
G75*
G02*
X87134171Y-62904467I-1838478J-1838478D01*
G01*
%TO.C,R6*%
X101000000Y-69990000D02*
X101000000Y-69039999D01*
X100080000Y-69039998D02*
X101920000Y-69040000D01*
X101920000Y-69040000D02*
X101919999Y-65199998D01*
X100080000Y-65199999D02*
X100080000Y-69039998D01*
X101919999Y-65199998D02*
X100080000Y-65199999D01*
X100999998Y-64249999D02*
X101000000Y-65200000D01*
%TO.C,Q1*%
X96030000Y-58460000D02*
X92430000Y-58460000D01*
X94230000Y-62910000D02*
G75*
G02*
X92391522Y-58471522I0J2600000D01*
G01*
X96068478Y-58471522D02*
G75*
G02*
X94230000Y-62910001I-1838478J-1838478D01*
G01*
%TO.C,TP5*%
X99800000Y-46110000D02*
X102200000Y-46110000D01*
X99800000Y-48510000D02*
X99800000Y-46110000D01*
X102200000Y-46110000D02*
X102200000Y-48510000D01*
X102200000Y-48510000D02*
X99800000Y-48510000D01*
%TO.C,TP1*%
X85300000Y-70610000D02*
X87700000Y-70610000D01*
X85300000Y-73010000D02*
X85300000Y-70610000D01*
X87700000Y-70610000D02*
X87700000Y-73010000D01*
X87700000Y-73010000D02*
X85300000Y-73010000D01*
%TO.C,TP2*%
X94800000Y-70610000D02*
X97200000Y-70610000D01*
X94800000Y-73010000D02*
X94800000Y-70610000D01*
X97200000Y-70610000D02*
X97200000Y-73010000D01*
X97200000Y-73010000D02*
X94800000Y-73010000D01*
%TO.C,Q3*%
X108530000Y-58460000D02*
X104930000Y-58460000D01*
X106730000Y-62910000D02*
G75*
G02*
X104891522Y-58471522I0J2600000D01*
G01*
X108568478Y-58471522D02*
G75*
G02*
X106730000Y-62910001I-1838478J-1838478D01*
G01*
%TO.C,R3*%
X101706179Y-55927177D02*
X102316827Y-55199435D01*
X101612067Y-54608071D02*
X103021588Y-55790799D01*
X103021588Y-55790799D02*
X105489892Y-52849189D01*
X104080371Y-51666459D02*
X101612067Y-54608071D01*
X105489892Y-52849189D02*
X104080371Y-51666459D01*
X105395780Y-51530082D02*
X104785131Y-52257824D01*
%TO.C,R1*%
X96706178Y-55927177D02*
X97316827Y-55199435D01*
X96612067Y-54608070D02*
X98021588Y-55790799D01*
X98021588Y-55790799D02*
X100489892Y-52849188D01*
X99080371Y-51666460D02*
X96612067Y-54608070D01*
X100489892Y-52849188D02*
X99080371Y-51666460D01*
X100395780Y-51530081D02*
X99785131Y-52257824D01*
%TO.C,TP3*%
X89800000Y-70610000D02*
X92200000Y-70610000D01*
X89800000Y-73010000D02*
X89800000Y-70610000D01*
X92200000Y-70610000D02*
X92200000Y-73010000D01*
X92200000Y-73010000D02*
X89800000Y-73010000D01*
%TO.C,TP7*%
X104800000Y-46110000D02*
X107200000Y-46110000D01*
X104800000Y-48510000D02*
X104800000Y-46110000D01*
X107200000Y-46110000D02*
X107200000Y-48510000D01*
X107200000Y-48510000D02*
X104800000Y-48510000D01*
%TO.C,TP4*%
X92200000Y-48510000D02*
X89800000Y-48510000D01*
X92200000Y-46110000D02*
X92200000Y-48510000D01*
X89800000Y-48510000D02*
X89800000Y-46110000D01*
X89800000Y-46110000D02*
X92200000Y-46110000D01*
%TO.C,R4*%
X108920000Y-70730000D02*
X108920000Y-66890000D01*
X108920000Y-66890000D02*
X107080000Y-66890000D01*
X108000000Y-71680000D02*
X108000000Y-70730000D01*
X108000000Y-65940000D02*
X108000000Y-66890000D01*
X107080000Y-70730000D02*
X108920000Y-70730000D01*
X107080000Y-66890000D02*
X107080000Y-70730000D01*
%TO.C,R5*%
X106420000Y-70730000D02*
X106420000Y-66890000D01*
X106420000Y-66890000D02*
X104580000Y-66890000D01*
X105500000Y-71680000D02*
X105500000Y-70730000D01*
X105500000Y-65940000D02*
X105500000Y-66890000D01*
X104580000Y-70730000D02*
X106420000Y-70730000D01*
X104580000Y-66890000D02*
X104580000Y-70730000D01*
%TD*%
M02*
