M48
; DRILL file {KiCad 8.0.6} date 2024-11-17T15:46:38-0300
; FORMAT={-:-/ absolute / inch / decimal}
; #@! TF.CreationDate,2024-11-17T15:46:38-03:00
; #@! TF.GenerationSoftware,Kicad,Pcbnew,8.0.6
; #@! TF.FileFunction,Plated,1,2,PTH
FMAT,2
INCH
; #@! TA.AperFunction,Plated,PTH,ComponentDrill
T1C0.0276
; #@! TA.AperFunction,Plated,PTH,ComponentDrill
T2C0.0295
; #@! TA.AperFunction,Plated,PTH,ComponentDrill
T3C0.0394
%
G90
G05
T1
X4.2126Y-2.815
X4.4244Y-2.9331
X4.5126Y-2.815
X4.7244Y-2.9331
X4.7394Y-3.0512
X4.8228Y-3.4449
X4.8228Y-3.7449
X4.9606Y-3.4449
X4.9606Y-3.7449
X5.0394Y-3.0512
X5.0984Y-3.4449
X5.0984Y-3.7449
T2
X4.211Y-3.4252
X4.261Y-3.4252
X4.311Y-3.4252
X4.5063Y-3.4252
X4.5563Y-3.4252
X4.6063Y-3.4252
X4.9984Y-3.189
X5.0484Y-3.189
X5.0984Y-3.189
T3
X4.2323Y-2.6772
X4.2323Y-3.878
X4.5276Y-2.6772
X4.5276Y-3.878
X4.7638Y-2.6772
X4.7638Y-3.878
X5.0394Y-2.6772
M30
