%TF.GenerationSoftware,KiCad,Pcbnew,8.0.6*%
%TF.CreationDate,2024-11-19T10:16:46-03:00*%
%TF.ProjectId,canon+GH4,63616e6f-6e2b-4474-9834-2e6b69636164,V1.0*%
%TF.SameCoordinates,Original*%
%TF.FileFunction,Copper,L1,Top*%
%TF.FilePolarity,Positive*%
%FSLAX46Y46*%
G04 Gerber Fmt 4.6, Leading zero omitted, Abs format (unit mm)*
G04 Created by KiCad (PCBNEW 8.0.6) date 2024-11-19 10:16:46*
%MOMM*%
%LPD*%
G01*
G04 APERTURE LIST*
G04 Aperture macros list*
%AMHorizOval*
0 Thick line with rounded ends*
0 $1 width*
0 $2 $3 position (X,Y) of the first rounded end (center of the circle)*
0 $4 $5 position (X,Y) of the second rounded end (center of the circle)*
0 Add line between two ends*
20,1,$1,$2,$3,$4,$5,0*
0 Add two circle primitives to create the rounded ends*
1,1,$1,$2,$3*
1,1,$1,$4,$5*%
G04 Aperture macros list end*
%TA.AperFunction,ComponentPad*%
%ADD10C,1.400000*%
%TD*%
%TA.AperFunction,ComponentPad*%
%ADD11HorizOval,1.400000X0.000000X0.000000X0.000000X0.000000X0*%
%TD*%
%TA.AperFunction,ComponentPad*%
%ADD12R,1.050000X1.500000*%
%TD*%
%TA.AperFunction,ComponentPad*%
%ADD13O,1.050000X1.500000*%
%TD*%
%TA.AperFunction,ComponentPad*%
%ADD14O,1.400000X1.400000*%
%TD*%
%TA.AperFunction,ComponentPad*%
%ADD15R,2.000000X2.000000*%
%TD*%
%TA.AperFunction,Conductor*%
%ADD16C,0.500000*%
%TD*%
G04 APERTURE END LIST*
D10*
%TO.P,R2,1*%
%TO.N,/Focus_Input*%
X96000000Y-50810000D03*
D11*
%TO.P,R2,2*%
%TO.N,Net-(Q2-B)*%
X91101960Y-56647258D03*
%TD*%
D12*
%TO.P,Q2,1,E*%
%TO.N,GND*%
X88404200Y-60304500D03*
D13*
%TO.P,Q2,2,C*%
%TO.N,/Focus_Output*%
X87134200Y-60304500D03*
%TO.P,Q2,3,B*%
%TO.N,Net-(Q2-B)*%
X85864200Y-60304500D03*
%TD*%
D10*
%TO.P,R5,1*%
%TO.N,Net-(Q3-E)*%
X105500000Y-65000000D03*
D14*
%TO.P,R5,2*%
%TO.N,Net-(R5-Pad2)*%
X105500000Y-72620000D03*
%TD*%
%TO.P,R6,2*%
%TO.N,/Shutter_Output*%
X102500000Y-64970023D03*
D10*
%TO.P,R6,1*%
%TO.N,Net-(R5-Pad2)*%
X102500000Y-72590022D03*
%TD*%
D15*
%TO.P,TP5,1,1*%
%TO.N,/Shutter_Input*%
X101000000Y-47310000D03*
%TD*%
%TO.P,TP1,1,1*%
%TO.N,GND*%
X86500000Y-71810000D03*
%TD*%
%TO.P,TP2,1,1*%
%TO.N,/Shutter_Output*%
X96000000Y-71810000D03*
%TD*%
D12*
%TO.P,Q3,1,E*%
%TO.N,Net-(Q3-E)*%
X102270000Y-60310000D03*
D13*
%TO.P,Q3,2,C*%
%TO.N,/Shutter_Output*%
X101000000Y-60310000D03*
%TO.P,Q3,3,B*%
%TO.N,Net-(Q3-B)*%
X99730000Y-60310000D03*
%TD*%
D10*
%TO.P,R3,1*%
%TO.N,/Focus_Input_GH4*%
X106000000Y-50810000D03*
D11*
%TO.P,R3,2*%
%TO.N,Net-(Q3-B)*%
X101101959Y-56647259D03*
%TD*%
D10*
%TO.P,R1,1*%
%TO.N,/Shutter_Input*%
X101000000Y-50810000D03*
D11*
%TO.P,R1,2*%
%TO.N,Net-(Q1-B)*%
X96101959Y-56647260D03*
%TD*%
D15*
%TO.P,TP3,1,1*%
%TO.N,/Focus_Output*%
X91000000Y-71810000D03*
%TD*%
%TO.P,TP7,1,1*%
%TO.N,/Focus_Input_GH4*%
X106000000Y-47310000D03*
%TD*%
%TO.P,TP4,1,1*%
%TO.N,GND*%
X91000000Y-47310000D03*
%TD*%
D10*
%TO.P,R4,1*%
%TO.N,Net-(Q3-E)*%
X108500000Y-65000000D03*
D14*
%TO.P,R4,2*%
%TO.N,GND*%
X108500000Y-72620000D03*
%TD*%
D15*
%TO.P,TP6,1,1*%
%TO.N,/Focus_Input*%
X96000000Y-47310000D03*
%TD*%
D12*
%TO.P,Q1,1,E*%
%TO.N,GND*%
X95500000Y-60310000D03*
D13*
%TO.P,Q1,2,C*%
%TO.N,/Shutter_Output*%
X94230000Y-60310000D03*
%TO.P,Q1,3,B*%
%TO.N,Net-(Q1-B)*%
X92960000Y-60310000D03*
%TD*%
D16*
%TO.N,Net-(Q3-E)*%
X105500000Y-65000000D02*
X108500000Y-65000000D01*
%TO.N,/Shutter_Output*%
X98755000Y-66745000D02*
X100529977Y-64970023D01*
X98755000Y-66755000D02*
X98755000Y-66745000D01*
X96000000Y-69510000D02*
X98755000Y-66755000D01*
X100529977Y-64970023D02*
X102500000Y-64970023D01*
X96000000Y-70310000D02*
X96000000Y-69510000D01*
X101000000Y-63470023D02*
X102500000Y-64970023D01*
X101000000Y-60310000D02*
X101000000Y-63470023D01*
%TO.N,Net-(R5-Pad2)*%
X103004070Y-72620000D02*
X102971817Y-72652253D01*
X105500000Y-72620000D02*
X103004070Y-72620000D01*
%TO.N,Net-(Q3-B)*%
X99730000Y-58019218D02*
X101101959Y-56647259D01*
X99730000Y-60310000D02*
X99730000Y-58019218D01*
%TO.N,Net-(Q3-E)*%
X103810000Y-60310000D02*
X102270000Y-60310000D01*
X105500000Y-62000000D02*
X103810000Y-60310000D01*
X105500000Y-65000000D02*
X105500000Y-62000000D01*
%TO.N,/Focus_Input_GH4*%
X106000000Y-50810000D02*
X106000000Y-47310000D01*
%TO.N,/Focus_Input*%
X96000000Y-47310000D02*
X96000000Y-50810000D01*
%TO.N,/Shutter_Input*%
X101000000Y-50810000D02*
X101000000Y-47310000D01*
%TO.N,/Focus_Output*%
X87134200Y-66444200D02*
X87134200Y-60304500D01*
X91000000Y-70310000D02*
X87134200Y-66444200D01*
X91000000Y-71810000D02*
X91000000Y-70310000D01*
%TO.N,/Shutter_Output*%
X94230000Y-68540000D02*
X94230000Y-60310000D01*
X96000000Y-70310000D02*
X94230000Y-68540000D01*
X96000000Y-71810000D02*
X96000000Y-70310000D01*
%TO.N,Net-(Q2-B)*%
X90302600Y-57599800D02*
X90302700Y-57599900D01*
X90149500Y-57599800D02*
X90302600Y-57599800D01*
X88694800Y-59054500D02*
X90149500Y-57599800D01*
X85864200Y-59054500D02*
X88694800Y-59054500D01*
X85864200Y-60304500D02*
X85864200Y-59054500D01*
X91102000Y-56647300D02*
X90302700Y-57599900D01*
%TO.N,Net-(Q1-B)*%
X93842600Y-59060000D02*
X92960000Y-59060000D01*
X95302700Y-57599900D02*
X93842600Y-59060000D01*
X96102000Y-56647300D02*
X95302700Y-57599900D01*
X92960000Y-60310000D02*
X92960000Y-59060000D01*
%TD*%
%TA.AperFunction,Conductor*%
%TO.N,GND*%
G36*
X109942539Y-44830185D02*
G01*
X109988294Y-44882989D01*
X109999500Y-44934500D01*
X109999500Y-64629588D01*
X109979815Y-64696627D01*
X109927011Y-64742382D01*
X109857853Y-64752326D01*
X109794297Y-64723301D01*
X109756523Y-64664523D01*
X109755725Y-64661681D01*
X109726741Y-64553511D01*
X109726738Y-64553502D01*
X109630568Y-64347267D01*
X109630567Y-64347265D01*
X109604048Y-64309392D01*
X109500047Y-64160861D01*
X109500045Y-64160858D01*
X109339141Y-63999954D01*
X109152734Y-63869432D01*
X109152732Y-63869431D01*
X108946497Y-63773261D01*
X108946488Y-63773258D01*
X108726697Y-63714366D01*
X108726693Y-63714365D01*
X108726692Y-63714365D01*
X108726691Y-63714364D01*
X108726686Y-63714364D01*
X108500002Y-63694532D01*
X108499998Y-63694532D01*
X108273313Y-63714364D01*
X108273302Y-63714366D01*
X108053511Y-63773258D01*
X108053502Y-63773261D01*
X107847267Y-63869431D01*
X107847265Y-63869432D01*
X107660862Y-63999951D01*
X107616560Y-64044254D01*
X107547631Y-64113182D01*
X107486311Y-64146666D01*
X107459952Y-64149500D01*
X106540048Y-64149500D01*
X106473009Y-64129815D01*
X106452367Y-64113181D01*
X106386819Y-64047633D01*
X106353334Y-63986310D01*
X106350500Y-63959952D01*
X106350500Y-61916232D01*
X106350499Y-61916228D01*
X106339314Y-61859999D01*
X106317816Y-61751918D01*
X106273547Y-61645044D01*
X106268470Y-61632786D01*
X106253707Y-61597143D01*
X106253705Y-61597139D01*
X106253704Y-61597137D01*
X106160627Y-61457838D01*
X106160624Y-61457834D01*
X104352165Y-59649375D01*
X104352161Y-59649372D01*
X104212866Y-59556297D01*
X104212863Y-59556296D01*
X104103416Y-59510962D01*
X104103414Y-59510961D01*
X104058086Y-59492185D01*
X104058074Y-59492182D01*
X103893771Y-59459500D01*
X103893767Y-59459500D01*
X103486202Y-59459500D01*
X103419163Y-59439815D01*
X103373408Y-59387011D01*
X103371641Y-59382952D01*
X103365403Y-59367893D01*
X103319536Y-59257159D01*
X103223282Y-59131718D01*
X103097841Y-59035464D01*
X102983098Y-58987936D01*
X102951762Y-58974956D01*
X102951760Y-58974955D01*
X102834370Y-58959501D01*
X102834367Y-58959500D01*
X102834361Y-58959500D01*
X102834354Y-58959500D01*
X101705636Y-58959500D01*
X101588246Y-58974953D01*
X101588234Y-58974957D01*
X101471188Y-59023439D01*
X101401719Y-59030908D01*
X101385418Y-59026809D01*
X101263556Y-58987214D01*
X101159468Y-58970728D01*
X101088579Y-58959500D01*
X100911421Y-58959500D01*
X100874082Y-58965413D01*
X100736435Y-58987215D01*
X100733432Y-58987936D01*
X100732257Y-58987877D01*
X100731633Y-58987976D01*
X100731612Y-58987844D01*
X100663650Y-58984437D01*
X100606838Y-58943766D01*
X100581032Y-58878837D01*
X100580500Y-58867359D01*
X100580500Y-58422868D01*
X100600185Y-58355829D01*
X100616815Y-58335191D01*
X100966655Y-57985350D01*
X101027976Y-57951867D01*
X101065137Y-57949505D01*
X101101959Y-57952727D01*
X101328651Y-57932894D01*
X101548455Y-57873998D01*
X101754693Y-57777827D01*
X101941098Y-57647306D01*
X102102006Y-57486398D01*
X102232527Y-57299993D01*
X102328698Y-57093755D01*
X102387594Y-56873951D01*
X102407427Y-56647259D01*
X102387594Y-56420567D01*
X102328698Y-56200763D01*
X102232527Y-55994525D01*
X102102006Y-55808120D01*
X102102005Y-55808119D01*
X102102004Y-55808117D01*
X101941100Y-55647213D01*
X101754693Y-55516691D01*
X101754691Y-55516690D01*
X101548456Y-55420520D01*
X101548447Y-55420517D01*
X101328656Y-55361625D01*
X101328652Y-55361624D01*
X101328651Y-55361624D01*
X101328650Y-55361623D01*
X101328645Y-55361623D01*
X101101961Y-55341791D01*
X101101957Y-55341791D01*
X100875272Y-55361623D01*
X100875261Y-55361625D01*
X100655470Y-55420517D01*
X100655461Y-55420520D01*
X100449226Y-55516690D01*
X100449224Y-55516691D01*
X100262817Y-55647213D01*
X100101913Y-55808117D01*
X99971391Y-55994524D01*
X99971390Y-55994526D01*
X99875220Y-56200761D01*
X99875217Y-56200770D01*
X99816325Y-56420561D01*
X99816323Y-56420572D01*
X99796491Y-56647257D01*
X99796491Y-56647263D01*
X99799711Y-56684077D01*
X99785943Y-56752577D01*
X99763864Y-56782563D01*
X99069375Y-57477052D01*
X99069372Y-57477056D01*
X98976297Y-57616351D01*
X98976296Y-57616354D01*
X98948415Y-57683666D01*
X98948415Y-57683667D01*
X98912184Y-57771135D01*
X98912182Y-57771143D01*
X98879500Y-57935446D01*
X98879500Y-59300508D01*
X98859815Y-59367547D01*
X98855818Y-59373393D01*
X98767388Y-59495106D01*
X98686957Y-59652957D01*
X98686956Y-59652960D01*
X98632214Y-59821443D01*
X98618980Y-59905000D01*
X98604500Y-59996421D01*
X98604500Y-60623579D01*
X98610181Y-60659444D01*
X98632214Y-60798556D01*
X98686956Y-60967039D01*
X98686957Y-60967042D01*
X98754413Y-61099430D01*
X98767386Y-61124890D01*
X98871517Y-61268214D01*
X98996786Y-61393483D01*
X99140110Y-61497614D01*
X99217529Y-61537061D01*
X99297957Y-61578042D01*
X99297960Y-61578043D01*
X99382201Y-61605414D01*
X99466445Y-61632786D01*
X99641421Y-61660500D01*
X99641422Y-61660500D01*
X99818578Y-61660500D01*
X99818579Y-61660500D01*
X99993555Y-61632786D01*
X99993569Y-61632781D01*
X99996553Y-61632066D01*
X99997730Y-61632124D01*
X99998367Y-61632024D01*
X99998388Y-61632157D01*
X100066335Y-61635557D01*
X100123153Y-61676221D01*
X100148966Y-61741147D01*
X100149500Y-61752640D01*
X100149500Y-63553794D01*
X100182181Y-63718096D01*
X100182184Y-63718105D01*
X100246296Y-63872886D01*
X100246297Y-63872889D01*
X100316247Y-63977576D01*
X100337125Y-64044254D01*
X100318640Y-64111634D01*
X100266662Y-64158324D01*
X100260598Y-64161028D01*
X100127113Y-64216319D01*
X99987819Y-64309392D01*
X99987811Y-64309398D01*
X98094375Y-66202835D01*
X98094368Y-66202844D01*
X98081015Y-66222827D01*
X98065597Y-66241613D01*
X95687681Y-68619530D01*
X95626358Y-68653015D01*
X95556666Y-68648031D01*
X95512319Y-68619530D01*
X95116819Y-68224030D01*
X95083334Y-68162707D01*
X95080500Y-68136349D01*
X95080500Y-61984000D01*
X95100185Y-61916961D01*
X95152989Y-61871206D01*
X95204500Y-61860000D01*
X95250000Y-61860000D01*
X95250000Y-61042034D01*
X95263516Y-60985737D01*
X95273042Y-60967042D01*
X95327786Y-60798555D01*
X95350274Y-60656568D01*
X95355255Y-60659444D01*
X95450630Y-60685000D01*
X95549370Y-60685000D01*
X95644745Y-60659444D01*
X95730255Y-60610075D01*
X95750000Y-60590330D01*
X95750000Y-61860000D01*
X96069930Y-61860000D01*
X96069930Y-61859999D01*
X96204141Y-61844877D01*
X96374301Y-61785336D01*
X96526948Y-61689422D01*
X96654422Y-61561948D01*
X96750336Y-61409301D01*
X96809877Y-61239141D01*
X96824999Y-61104930D01*
X96825000Y-61104930D01*
X96825000Y-60560000D01*
X95780330Y-60560000D01*
X95800075Y-60540255D01*
X95849444Y-60454745D01*
X95875000Y-60359370D01*
X95875000Y-60260630D01*
X95849444Y-60165255D01*
X95800075Y-60079745D01*
X95780330Y-60060000D01*
X96825000Y-60060000D01*
X96825000Y-59515070D01*
X96824999Y-59515069D01*
X96809877Y-59380858D01*
X96750336Y-59210698D01*
X96654422Y-59058051D01*
X96526948Y-58930577D01*
X96374301Y-58834663D01*
X96204141Y-58775122D01*
X96069930Y-58760000D01*
X95644750Y-58760000D01*
X95577711Y-58740315D01*
X95531956Y-58687511D01*
X95522012Y-58618353D01*
X95551037Y-58554797D01*
X95557068Y-58548319D01*
X95593050Y-58512337D01*
X95866494Y-58238892D01*
X95876531Y-58229895D01*
X95900386Y-58210750D01*
X95926874Y-58179180D01*
X95934171Y-58171215D01*
X95963326Y-58142062D01*
X95963331Y-58142055D01*
X95980313Y-58116639D01*
X95988424Y-58105825D01*
X96085053Y-57990663D01*
X96143222Y-57951962D01*
X96169229Y-57946841D01*
X96328651Y-57932895D01*
X96548455Y-57873999D01*
X96754693Y-57777828D01*
X96941098Y-57647307D01*
X97102006Y-57486399D01*
X97232527Y-57299994D01*
X97328698Y-57093756D01*
X97387594Y-56873952D01*
X97407427Y-56647260D01*
X97387594Y-56420568D01*
X97328698Y-56200764D01*
X97232527Y-55994526D01*
X97102006Y-55808121D01*
X97102005Y-55808120D01*
X97102004Y-55808118D01*
X96941100Y-55647214D01*
X96754693Y-55516692D01*
X96754691Y-55516691D01*
X96548456Y-55420521D01*
X96548447Y-55420518D01*
X96328656Y-55361626D01*
X96328652Y-55361625D01*
X96328651Y-55361625D01*
X96328650Y-55361624D01*
X96328645Y-55361624D01*
X96101961Y-55341792D01*
X96101957Y-55341792D01*
X95875272Y-55361624D01*
X95875261Y-55361626D01*
X95655470Y-55420518D01*
X95655461Y-55420521D01*
X95449226Y-55516691D01*
X95449224Y-55516692D01*
X95262817Y-55647214D01*
X95101913Y-55808118D01*
X94971391Y-55994525D01*
X94971390Y-55994527D01*
X94875220Y-56200762D01*
X94875217Y-56200771D01*
X94816325Y-56420562D01*
X94816323Y-56420573D01*
X94796491Y-56647258D01*
X94796491Y-56647262D01*
X94810455Y-56806883D01*
X94796688Y-56875383D01*
X94781918Y-56897394D01*
X94678518Y-57020625D01*
X94671208Y-57028602D01*
X93526630Y-58173181D01*
X93465307Y-58206666D01*
X93438949Y-58209500D01*
X92876228Y-58209500D01*
X92711925Y-58242182D01*
X92711917Y-58242184D01*
X92557139Y-58306295D01*
X92417837Y-58399373D01*
X92299373Y-58517837D01*
X92206295Y-58657139D01*
X92142184Y-58811917D01*
X92142182Y-58811925D01*
X92109500Y-58976228D01*
X92109500Y-59300508D01*
X92089815Y-59367547D01*
X92085818Y-59373393D01*
X91997388Y-59495106D01*
X91916957Y-59652957D01*
X91916956Y-59652960D01*
X91862214Y-59821443D01*
X91848980Y-59905000D01*
X91834500Y-59996421D01*
X91834500Y-60623579D01*
X91840181Y-60659444D01*
X91862214Y-60798556D01*
X91916956Y-60967039D01*
X91916957Y-60967042D01*
X91984413Y-61099430D01*
X91997386Y-61124890D01*
X92101517Y-61268214D01*
X92226786Y-61393483D01*
X92370110Y-61497614D01*
X92447529Y-61537061D01*
X92527957Y-61578042D01*
X92527960Y-61578043D01*
X92612201Y-61605414D01*
X92696445Y-61632786D01*
X92871421Y-61660500D01*
X92871422Y-61660500D01*
X93048578Y-61660500D01*
X93048579Y-61660500D01*
X93223555Y-61632786D01*
X93223569Y-61632781D01*
X93226553Y-61632066D01*
X93227730Y-61632124D01*
X93228367Y-61632024D01*
X93228388Y-61632157D01*
X93296335Y-61635557D01*
X93353153Y-61676221D01*
X93378966Y-61741147D01*
X93379500Y-61752640D01*
X93379500Y-68623771D01*
X93412181Y-68788073D01*
X93412184Y-68788082D01*
X93476296Y-68942863D01*
X93476297Y-68942866D01*
X93569372Y-69082161D01*
X93569375Y-69082165D01*
X94639906Y-70152695D01*
X94673391Y-70214018D01*
X94668407Y-70283710D01*
X94627713Y-70338751D01*
X94571719Y-70381717D01*
X94475463Y-70507160D01*
X94414956Y-70653237D01*
X94414955Y-70653239D01*
X94400233Y-70765069D01*
X94399501Y-70770636D01*
X94399500Y-70770645D01*
X94399500Y-72849363D01*
X94414953Y-72966753D01*
X94414956Y-72966762D01*
X94475464Y-73112841D01*
X94571718Y-73238282D01*
X94697159Y-73334536D01*
X94843238Y-73395044D01*
X94960639Y-73410500D01*
X97039360Y-73410499D01*
X97039363Y-73410499D01*
X97156753Y-73395046D01*
X97156757Y-73395044D01*
X97156762Y-73395044D01*
X97302841Y-73334536D01*
X97428282Y-73238282D01*
X97524536Y-73112841D01*
X97585044Y-72966762D01*
X97600500Y-72849361D01*
X97600499Y-70770640D01*
X97600499Y-70770639D01*
X97600499Y-70770636D01*
X97585046Y-70653246D01*
X97585044Y-70653239D01*
X97585044Y-70653238D01*
X97524536Y-70507159D01*
X97428282Y-70381718D01*
X97302841Y-70285464D01*
X97298606Y-70283710D01*
X97156762Y-70224956D01*
X97156760Y-70224955D01*
X97039370Y-70209501D01*
X97039367Y-70209500D01*
X97039361Y-70209500D01*
X97039354Y-70209500D01*
X96974500Y-70209500D01*
X96907461Y-70189815D01*
X96861706Y-70137011D01*
X96850500Y-70085500D01*
X96850500Y-69913650D01*
X96870185Y-69846611D01*
X96886819Y-69825969D01*
X98093258Y-68619530D01*
X99415626Y-67297162D01*
X99428977Y-67277179D01*
X99444394Y-67258393D01*
X100845947Y-65856842D01*
X100907270Y-65823357D01*
X100933628Y-65820523D01*
X101459952Y-65820523D01*
X101526991Y-65840208D01*
X101547628Y-65856837D01*
X101660861Y-65970070D01*
X101847266Y-66100591D01*
X102053504Y-66196762D01*
X102273308Y-66255658D01*
X102435230Y-66269824D01*
X102499998Y-66275491D01*
X102500000Y-66275491D01*
X102500002Y-66275491D01*
X102556673Y-66270532D01*
X102726692Y-66255658D01*
X102946496Y-66196762D01*
X103152734Y-66100591D01*
X103339139Y-65970070D01*
X103500047Y-65809162D01*
X103630568Y-65622757D01*
X103726739Y-65416519D01*
X103785635Y-65196715D01*
X103805468Y-64970023D01*
X103785635Y-64743331D01*
X103726739Y-64523527D01*
X103630568Y-64317289D01*
X103500047Y-64130884D01*
X103500045Y-64130881D01*
X103339141Y-63969977D01*
X103152734Y-63839455D01*
X103152732Y-63839454D01*
X102946497Y-63743284D01*
X102946488Y-63743281D01*
X102726697Y-63684389D01*
X102726693Y-63684388D01*
X102726692Y-63684388D01*
X102726691Y-63684387D01*
X102726686Y-63684387D01*
X102500002Y-63664555D01*
X102499994Y-63664555D01*
X102463179Y-63667775D01*
X102394680Y-63654007D01*
X102364694Y-63631928D01*
X101886819Y-63154053D01*
X101853334Y-63092730D01*
X101850500Y-63066372D01*
X101850500Y-61784499D01*
X101870185Y-61717460D01*
X101922989Y-61671705D01*
X101974500Y-61660499D01*
X102834363Y-61660499D01*
X102951753Y-61645046D01*
X102951757Y-61645044D01*
X102951762Y-61645044D01*
X103097841Y-61584536D01*
X103223282Y-61488282D01*
X103319536Y-61362841D01*
X103348254Y-61293508D01*
X103392091Y-61239109D01*
X103458385Y-61217043D01*
X103526085Y-61234321D01*
X103550494Y-61253283D01*
X104613181Y-62315970D01*
X104646666Y-62377293D01*
X104649500Y-62403651D01*
X104649500Y-63959951D01*
X104629815Y-64026990D01*
X104613181Y-64047632D01*
X104499954Y-64160858D01*
X104369432Y-64347265D01*
X104369431Y-64347267D01*
X104273261Y-64553502D01*
X104273258Y-64553511D01*
X104214366Y-64773302D01*
X104214364Y-64773313D01*
X104194532Y-64999998D01*
X104194532Y-65000001D01*
X104214364Y-65226686D01*
X104214366Y-65226697D01*
X104273258Y-65446488D01*
X104273261Y-65446497D01*
X104369431Y-65652732D01*
X104369432Y-65652734D01*
X104499954Y-65839141D01*
X104660858Y-66000045D01*
X104660861Y-66000047D01*
X104847266Y-66130568D01*
X105053504Y-66226739D01*
X105053509Y-66226740D01*
X105053511Y-66226741D01*
X105106415Y-66240916D01*
X105273308Y-66285635D01*
X105435230Y-66299801D01*
X105499998Y-66305468D01*
X105500000Y-66305468D01*
X105500002Y-66305468D01*
X105556673Y-66300509D01*
X105726692Y-66285635D01*
X105946496Y-66226739D01*
X106152734Y-66130568D01*
X106339139Y-66000047D01*
X106452368Y-65886817D01*
X106513689Y-65853334D01*
X106540048Y-65850500D01*
X107459952Y-65850500D01*
X107526991Y-65870185D01*
X107547628Y-65886814D01*
X107660861Y-66000047D01*
X107847266Y-66130568D01*
X108053504Y-66226739D01*
X108053509Y-66226740D01*
X108053511Y-66226741D01*
X108106415Y-66240916D01*
X108273308Y-66285635D01*
X108435230Y-66299801D01*
X108499998Y-66305468D01*
X108500000Y-66305468D01*
X108500002Y-66305468D01*
X108556673Y-66300509D01*
X108726692Y-66285635D01*
X108946496Y-66226739D01*
X109152734Y-66130568D01*
X109339139Y-66000047D01*
X109500047Y-65839139D01*
X109630568Y-65652734D01*
X109726739Y-65446496D01*
X109755725Y-65338317D01*
X109792090Y-65278657D01*
X109854936Y-65248128D01*
X109924312Y-65256422D01*
X109978190Y-65300908D01*
X109999465Y-65367459D01*
X109999500Y-65370411D01*
X109999500Y-71756155D01*
X109979815Y-71823194D01*
X109927011Y-71868949D01*
X109857853Y-71878893D01*
X109794297Y-71849868D01*
X109771691Y-71823977D01*
X109687765Y-71695519D01*
X109519407Y-71512635D01*
X109519397Y-71512626D01*
X109323237Y-71359948D01*
X109323228Y-71359942D01*
X109104614Y-71241635D01*
X109104603Y-71241630D01*
X108869492Y-71160916D01*
X108750000Y-71140976D01*
X108750000Y-72375025D01*
X108714905Y-72339930D01*
X108635095Y-72293852D01*
X108546078Y-72270000D01*
X108453922Y-72270000D01*
X108364905Y-72293852D01*
X108285095Y-72339930D01*
X108250000Y-72375025D01*
X108250000Y-71140976D01*
X108249999Y-71140976D01*
X108130507Y-71160916D01*
X107895396Y-71241630D01*
X107895385Y-71241635D01*
X107676771Y-71359942D01*
X107676762Y-71359948D01*
X107480602Y-71512626D01*
X107480592Y-71512635D01*
X107312232Y-71695521D01*
X107176267Y-71903632D01*
X107076411Y-72131282D01*
X107017832Y-72362606D01*
X106982292Y-72422761D01*
X106919871Y-72454153D01*
X106850388Y-72446815D01*
X106795903Y-72403076D01*
X106777851Y-72364258D01*
X106726741Y-72173511D01*
X106726738Y-72173502D01*
X106673811Y-72060000D01*
X106630568Y-71967266D01*
X106500047Y-71780861D01*
X106500045Y-71780858D01*
X106339141Y-71619954D01*
X106152734Y-71489432D01*
X106152732Y-71489431D01*
X105946497Y-71393261D01*
X105946488Y-71393258D01*
X105726697Y-71334366D01*
X105726693Y-71334365D01*
X105726692Y-71334365D01*
X105726691Y-71334364D01*
X105726686Y-71334364D01*
X105500002Y-71314532D01*
X105499998Y-71314532D01*
X105273313Y-71334364D01*
X105273302Y-71334366D01*
X105053511Y-71393258D01*
X105053502Y-71393261D01*
X104847267Y-71489431D01*
X104847265Y-71489432D01*
X104660862Y-71619951D01*
X104604248Y-71676566D01*
X104547631Y-71733182D01*
X104486311Y-71766666D01*
X104459952Y-71769500D01*
X103570026Y-71769500D01*
X103502987Y-71749815D01*
X103482349Y-71733185D01*
X103339139Y-71589975D01*
X103339138Y-71589974D01*
X103339137Y-71589973D01*
X103152734Y-71459454D01*
X103152732Y-71459453D01*
X102946497Y-71363283D01*
X102946488Y-71363280D01*
X102726697Y-71304388D01*
X102726693Y-71304387D01*
X102726692Y-71304387D01*
X102726691Y-71304386D01*
X102726686Y-71304386D01*
X102500002Y-71284554D01*
X102499998Y-71284554D01*
X102273313Y-71304386D01*
X102273302Y-71304388D01*
X102053511Y-71363280D01*
X102053502Y-71363283D01*
X101847267Y-71459453D01*
X101847265Y-71459454D01*
X101660858Y-71589976D01*
X101499954Y-71750880D01*
X101369432Y-71937287D01*
X101369431Y-71937289D01*
X101273261Y-72143524D01*
X101273258Y-72143533D01*
X101214366Y-72363324D01*
X101214364Y-72363335D01*
X101194532Y-72590020D01*
X101194532Y-72590023D01*
X101214364Y-72816708D01*
X101214366Y-72816719D01*
X101273258Y-73036510D01*
X101273261Y-73036519D01*
X101369431Y-73242754D01*
X101369432Y-73242756D01*
X101499954Y-73429163D01*
X101660858Y-73590067D01*
X101689324Y-73609999D01*
X101847266Y-73720590D01*
X102053504Y-73816761D01*
X102273308Y-73875657D01*
X102435230Y-73889823D01*
X102499998Y-73895490D01*
X102500000Y-73895490D01*
X102500002Y-73895490D01*
X102556673Y-73890531D01*
X102726692Y-73875657D01*
X102946496Y-73816761D01*
X103152734Y-73720590D01*
X103339139Y-73590069D01*
X103422390Y-73506817D01*
X103483711Y-73473334D01*
X103510070Y-73470500D01*
X104459952Y-73470500D01*
X104526991Y-73490185D01*
X104547628Y-73506814D01*
X104660861Y-73620047D01*
X104847266Y-73750568D01*
X105053504Y-73846739D01*
X105273308Y-73905635D01*
X105435230Y-73919801D01*
X105499998Y-73925468D01*
X105500000Y-73925468D01*
X105500002Y-73925468D01*
X105556673Y-73920509D01*
X105726692Y-73905635D01*
X105946496Y-73846739D01*
X106152734Y-73750568D01*
X106339139Y-73620047D01*
X106500047Y-73459139D01*
X106630568Y-73272734D01*
X106726739Y-73066496D01*
X106777851Y-72875739D01*
X106814216Y-72816080D01*
X106877062Y-72785551D01*
X106946438Y-72793845D01*
X107000316Y-72838331D01*
X107017832Y-72877393D01*
X107076411Y-73108717D01*
X107176267Y-73336367D01*
X107312232Y-73544478D01*
X107480592Y-73727364D01*
X107480602Y-73727373D01*
X107676762Y-73880051D01*
X107676771Y-73880057D01*
X107895385Y-73998364D01*
X107895396Y-73998369D01*
X108130507Y-74079083D01*
X108249999Y-74099023D01*
X108250000Y-74099022D01*
X108250000Y-72864975D01*
X108285095Y-72900070D01*
X108364905Y-72946148D01*
X108453922Y-72970000D01*
X108546078Y-72970000D01*
X108635095Y-72946148D01*
X108714905Y-72900070D01*
X108750000Y-72864975D01*
X108750000Y-74099023D01*
X108869492Y-74079083D01*
X109104603Y-73998369D01*
X109104614Y-73998364D01*
X109323228Y-73880057D01*
X109323237Y-73880051D01*
X109519397Y-73727373D01*
X109519407Y-73727364D01*
X109687767Y-73544478D01*
X109771691Y-73416023D01*
X109824837Y-73370666D01*
X109894069Y-73361242D01*
X109957404Y-73390744D01*
X109994736Y-73449804D01*
X109999500Y-73483844D01*
X109999500Y-74685500D01*
X109979815Y-74752539D01*
X109927011Y-74798294D01*
X109875500Y-74809500D01*
X84124500Y-74809500D01*
X84057461Y-74789815D01*
X84011706Y-74737011D01*
X84000500Y-74685500D01*
X84000500Y-70765069D01*
X84700000Y-70765069D01*
X84700000Y-71560000D01*
X86066988Y-71560000D01*
X86034075Y-71617007D01*
X86000000Y-71744174D01*
X86000000Y-71875826D01*
X86034075Y-72002993D01*
X86066988Y-72060000D01*
X84700000Y-72060000D01*
X84700000Y-72854930D01*
X84715122Y-72989141D01*
X84774663Y-73159301D01*
X84870577Y-73311948D01*
X84998051Y-73439422D01*
X85150698Y-73535336D01*
X85320858Y-73594877D01*
X85455069Y-73609999D01*
X85455070Y-73610000D01*
X86250000Y-73610000D01*
X86250000Y-72243012D01*
X86307007Y-72275925D01*
X86434174Y-72310000D01*
X86565826Y-72310000D01*
X86692993Y-72275925D01*
X86750000Y-72243012D01*
X86750000Y-73610000D01*
X87544930Y-73610000D01*
X87544930Y-73609999D01*
X87679141Y-73594877D01*
X87849301Y-73535336D01*
X88001948Y-73439422D01*
X88129422Y-73311948D01*
X88225336Y-73159301D01*
X88284877Y-72989141D01*
X88299999Y-72854930D01*
X88300000Y-72854930D01*
X88300000Y-72060000D01*
X86933012Y-72060000D01*
X86965925Y-72002993D01*
X87000000Y-71875826D01*
X87000000Y-71744174D01*
X86965925Y-71617007D01*
X86933012Y-71560000D01*
X88300000Y-71560000D01*
X88300000Y-70765070D01*
X88299999Y-70765069D01*
X88284877Y-70630858D01*
X88225336Y-70460698D01*
X88129422Y-70308051D01*
X88001948Y-70180577D01*
X87849301Y-70084663D01*
X87679141Y-70025122D01*
X87544930Y-70010000D01*
X86750000Y-70010000D01*
X86750000Y-71376988D01*
X86692993Y-71344075D01*
X86565826Y-71310000D01*
X86434174Y-71310000D01*
X86307007Y-71344075D01*
X86250000Y-71376988D01*
X86250000Y-70010000D01*
X85455070Y-70010000D01*
X85320858Y-70025122D01*
X85150698Y-70084663D01*
X84998051Y-70180577D01*
X84870577Y-70308051D01*
X84774663Y-70460698D01*
X84715122Y-70630858D01*
X84700000Y-70765069D01*
X84000500Y-70765069D01*
X84000500Y-59990921D01*
X84738700Y-59990921D01*
X84738700Y-60618078D01*
X84766414Y-60793056D01*
X84821156Y-60961539D01*
X84821157Y-60961542D01*
X84891416Y-61099430D01*
X84901586Y-61119390D01*
X85005717Y-61262714D01*
X85130986Y-61387983D01*
X85274310Y-61492114D01*
X85351729Y-61531561D01*
X85432157Y-61572542D01*
X85432160Y-61572543D01*
X85461627Y-61582117D01*
X85600645Y-61627286D01*
X85775621Y-61655000D01*
X85775622Y-61655000D01*
X85952778Y-61655000D01*
X85952779Y-61655000D01*
X86127755Y-61627286D01*
X86127769Y-61627281D01*
X86130753Y-61626566D01*
X86131930Y-61626624D01*
X86132567Y-61626524D01*
X86132588Y-61626657D01*
X86200535Y-61630057D01*
X86257353Y-61670721D01*
X86283166Y-61735647D01*
X86283700Y-61747140D01*
X86283700Y-66527971D01*
X86312196Y-66671231D01*
X86312197Y-66671234D01*
X86316384Y-66692281D01*
X86316385Y-66692285D01*
X86380496Y-66847063D01*
X86380497Y-66847066D01*
X86473572Y-66986361D01*
X86473575Y-66986365D01*
X89639906Y-70152695D01*
X89673391Y-70214018D01*
X89668407Y-70283710D01*
X89627713Y-70338751D01*
X89571719Y-70381717D01*
X89475463Y-70507160D01*
X89414956Y-70653237D01*
X89414955Y-70653239D01*
X89400233Y-70765069D01*
X89399501Y-70770636D01*
X89399500Y-70770645D01*
X89399500Y-72849363D01*
X89414953Y-72966753D01*
X89414956Y-72966762D01*
X89475464Y-73112841D01*
X89571718Y-73238282D01*
X89697159Y-73334536D01*
X89843238Y-73395044D01*
X89960639Y-73410500D01*
X92039360Y-73410499D01*
X92039363Y-73410499D01*
X92156753Y-73395046D01*
X92156757Y-73395044D01*
X92156762Y-73395044D01*
X92302841Y-73334536D01*
X92428282Y-73238282D01*
X92524536Y-73112841D01*
X92585044Y-72966762D01*
X92600500Y-72849361D01*
X92600499Y-70770640D01*
X92600499Y-70770639D01*
X92600499Y-70770636D01*
X92585046Y-70653246D01*
X92585044Y-70653239D01*
X92585044Y-70653238D01*
X92524536Y-70507159D01*
X92428282Y-70381718D01*
X92302841Y-70285464D01*
X92298606Y-70283710D01*
X92156762Y-70224956D01*
X92156760Y-70224955D01*
X92039370Y-70209501D01*
X92039367Y-70209500D01*
X92039361Y-70209500D01*
X92039354Y-70209500D01*
X91948936Y-70209500D01*
X91881897Y-70189815D01*
X91836142Y-70137011D01*
X91827319Y-70109691D01*
X91817817Y-70061924D01*
X91817816Y-70061918D01*
X91799037Y-70016584D01*
X91753704Y-69907137D01*
X91660627Y-69767838D01*
X91660624Y-69767834D01*
X88021019Y-66128229D01*
X87987534Y-66066906D01*
X87984700Y-66040548D01*
X87984700Y-61978500D01*
X88004385Y-61911461D01*
X88057189Y-61865706D01*
X88108700Y-61854500D01*
X88154200Y-61854500D01*
X88154200Y-61036534D01*
X88167716Y-60980237D01*
X88177242Y-60961542D01*
X88231986Y-60793055D01*
X88254474Y-60651068D01*
X88259455Y-60653944D01*
X88354830Y-60679500D01*
X88453570Y-60679500D01*
X88548945Y-60653944D01*
X88634455Y-60604575D01*
X88654200Y-60584830D01*
X88654200Y-61854500D01*
X88974130Y-61854500D01*
X88974130Y-61854499D01*
X89108341Y-61839377D01*
X89278501Y-61779836D01*
X89431148Y-61683922D01*
X89558622Y-61556448D01*
X89654536Y-61403801D01*
X89714077Y-61233641D01*
X89729199Y-61099430D01*
X89729200Y-61099430D01*
X89729200Y-60554500D01*
X88684530Y-60554500D01*
X88704275Y-60534755D01*
X88753644Y-60449245D01*
X88779200Y-60353870D01*
X88779200Y-60255130D01*
X88753644Y-60159755D01*
X88704275Y-60074245D01*
X88684530Y-60054500D01*
X89729200Y-60054500D01*
X89729200Y-59509570D01*
X89729199Y-59509569D01*
X89714078Y-59375363D01*
X89704208Y-59347157D01*
X89700645Y-59277378D01*
X89733565Y-59218522D01*
X90505331Y-58446756D01*
X90545553Y-58419880D01*
X90550777Y-58417715D01*
X90550781Y-58417715D01*
X90579024Y-58406015D01*
X90591766Y-58401535D01*
X90599180Y-58399374D01*
X90621128Y-58392977D01*
X90657705Y-58373933D01*
X90667476Y-58369377D01*
X90705562Y-58353603D01*
X90730975Y-58336621D01*
X90742604Y-58329737D01*
X90769731Y-58315616D01*
X90801884Y-58289808D01*
X90810589Y-58283425D01*
X90844862Y-58260526D01*
X90866481Y-58238905D01*
X90876549Y-58229881D01*
X90900386Y-58210750D01*
X90926874Y-58179180D01*
X90934171Y-58171215D01*
X90963326Y-58142062D01*
X90963331Y-58142055D01*
X90980311Y-58116642D01*
X90988417Y-58105833D01*
X91085055Y-57990661D01*
X91143224Y-57951960D01*
X91169232Y-57946839D01*
X91328652Y-57932893D01*
X91548456Y-57873997D01*
X91754694Y-57777826D01*
X91941099Y-57647305D01*
X92102007Y-57486397D01*
X92232528Y-57299992D01*
X92328699Y-57093754D01*
X92387595Y-56873950D01*
X92407428Y-56647258D01*
X92387595Y-56420566D01*
X92342876Y-56253673D01*
X92328701Y-56200769D01*
X92328700Y-56200767D01*
X92328699Y-56200762D01*
X92232528Y-55994524D01*
X92134799Y-55854951D01*
X92102005Y-55808116D01*
X91941101Y-55647212D01*
X91754694Y-55516690D01*
X91754692Y-55516689D01*
X91548457Y-55420519D01*
X91548448Y-55420516D01*
X91328657Y-55361624D01*
X91328653Y-55361623D01*
X91328652Y-55361623D01*
X91328651Y-55361622D01*
X91328646Y-55361622D01*
X91101962Y-55341790D01*
X91101958Y-55341790D01*
X90875273Y-55361622D01*
X90875262Y-55361624D01*
X90655471Y-55420516D01*
X90655462Y-55420519D01*
X90449227Y-55516689D01*
X90449225Y-55516690D01*
X90262818Y-55647212D01*
X90101914Y-55808116D01*
X89971392Y-55994523D01*
X89971391Y-55994525D01*
X89875221Y-56200760D01*
X89875218Y-56200769D01*
X89816326Y-56420560D01*
X89816324Y-56420571D01*
X89796492Y-56647256D01*
X89796492Y-56647261D01*
X89803775Y-56730516D01*
X89790008Y-56799016D01*
X89749139Y-56844424D01*
X89607334Y-56939176D01*
X88378830Y-58167681D01*
X88317507Y-58201166D01*
X88291149Y-58204000D01*
X85780428Y-58204000D01*
X85616125Y-58236682D01*
X85616117Y-58236684D01*
X85461339Y-58300795D01*
X85322037Y-58393873D01*
X85203573Y-58512337D01*
X85110495Y-58651639D01*
X85046384Y-58806417D01*
X85046382Y-58806425D01*
X85013700Y-58970728D01*
X85013700Y-59295008D01*
X84994015Y-59362047D01*
X84990018Y-59367893D01*
X84901588Y-59489606D01*
X84821157Y-59647457D01*
X84821156Y-59647460D01*
X84766414Y-59815943D01*
X84738700Y-59990921D01*
X84000500Y-59990921D01*
X84000500Y-46265069D01*
X89200000Y-46265069D01*
X89200000Y-47060000D01*
X90566988Y-47060000D01*
X90534075Y-47117007D01*
X90500000Y-47244174D01*
X90500000Y-47375826D01*
X90534075Y-47502993D01*
X90566988Y-47560000D01*
X89200000Y-47560000D01*
X89200000Y-48354930D01*
X89215122Y-48489141D01*
X89274663Y-48659301D01*
X89370577Y-48811948D01*
X89498051Y-48939422D01*
X89650698Y-49035336D01*
X89820858Y-49094877D01*
X89955069Y-49109999D01*
X89955070Y-49110000D01*
X90750000Y-49110000D01*
X90750000Y-47743012D01*
X90807007Y-47775925D01*
X90934174Y-47810000D01*
X91065826Y-47810000D01*
X91192993Y-47775925D01*
X91250000Y-47743012D01*
X91250000Y-49110000D01*
X92044930Y-49110000D01*
X92044930Y-49109999D01*
X92179141Y-49094877D01*
X92349301Y-49035336D01*
X92501948Y-48939422D01*
X92629422Y-48811948D01*
X92725336Y-48659301D01*
X92784877Y-48489141D01*
X92799999Y-48354930D01*
X92800000Y-48354930D01*
X92800000Y-47560000D01*
X91433012Y-47560000D01*
X91465925Y-47502993D01*
X91500000Y-47375826D01*
X91500000Y-47244174D01*
X91465925Y-47117007D01*
X91433012Y-47060000D01*
X92800000Y-47060000D01*
X92800000Y-46270645D01*
X94399500Y-46270645D01*
X94399500Y-48349363D01*
X94414953Y-48466753D01*
X94414956Y-48466762D01*
X94475464Y-48612841D01*
X94571718Y-48738282D01*
X94697159Y-48834536D01*
X94843238Y-48895044D01*
X94960639Y-48910500D01*
X95025500Y-48910499D01*
X95092538Y-48930183D01*
X95138294Y-48982986D01*
X95149500Y-49034499D01*
X95149500Y-49769951D01*
X95129815Y-49836990D01*
X95113181Y-49857632D01*
X94999954Y-49970858D01*
X94869432Y-50157265D01*
X94869431Y-50157267D01*
X94773261Y-50363502D01*
X94773258Y-50363511D01*
X94714366Y-50583302D01*
X94714364Y-50583313D01*
X94694532Y-50809998D01*
X94694532Y-50810001D01*
X94714364Y-51036686D01*
X94714366Y-51036697D01*
X94773258Y-51256488D01*
X94773261Y-51256497D01*
X94869431Y-51462732D01*
X94869432Y-51462734D01*
X94999954Y-51649141D01*
X95160858Y-51810045D01*
X95160861Y-51810047D01*
X95347266Y-51940568D01*
X95553504Y-52036739D01*
X95773308Y-52095635D01*
X95935230Y-52109801D01*
X95999998Y-52115468D01*
X96000000Y-52115468D01*
X96000002Y-52115468D01*
X96056673Y-52110509D01*
X96226692Y-52095635D01*
X96446496Y-52036739D01*
X96652734Y-51940568D01*
X96839139Y-51810047D01*
X97000047Y-51649139D01*
X97130568Y-51462734D01*
X97226739Y-51256496D01*
X97285635Y-51036692D01*
X97305468Y-50810000D01*
X97285635Y-50583308D01*
X97226739Y-50363504D01*
X97130568Y-50157266D01*
X97000047Y-49970861D01*
X97000045Y-49970858D01*
X96886819Y-49857632D01*
X96853334Y-49796309D01*
X96850500Y-49769951D01*
X96850500Y-49034499D01*
X96870185Y-48967460D01*
X96922989Y-48921705D01*
X96974500Y-48910499D01*
X97039363Y-48910499D01*
X97156753Y-48895046D01*
X97156757Y-48895044D01*
X97156762Y-48895044D01*
X97302841Y-48834536D01*
X97428282Y-48738282D01*
X97524536Y-48612841D01*
X97585044Y-48466762D01*
X97600500Y-48349361D01*
X97600499Y-46270645D01*
X99399500Y-46270645D01*
X99399500Y-48349363D01*
X99414953Y-48466753D01*
X99414956Y-48466762D01*
X99475464Y-48612841D01*
X99571718Y-48738282D01*
X99697159Y-48834536D01*
X99843238Y-48895044D01*
X99960639Y-48910500D01*
X100025500Y-48910499D01*
X100092538Y-48930183D01*
X100138294Y-48982986D01*
X100149500Y-49034499D01*
X100149500Y-49769951D01*
X100129815Y-49836990D01*
X100113181Y-49857632D01*
X99999954Y-49970858D01*
X99869432Y-50157265D01*
X99869431Y-50157267D01*
X99773261Y-50363502D01*
X99773258Y-50363511D01*
X99714366Y-50583302D01*
X99714364Y-50583313D01*
X99694532Y-50809998D01*
X99694532Y-50810001D01*
X99714364Y-51036686D01*
X99714366Y-51036697D01*
X99773258Y-51256488D01*
X99773261Y-51256497D01*
X99869431Y-51462732D01*
X99869432Y-51462734D01*
X99999954Y-51649141D01*
X100160858Y-51810045D01*
X100160861Y-51810047D01*
X100347266Y-51940568D01*
X100553504Y-52036739D01*
X100773308Y-52095635D01*
X100935230Y-52109801D01*
X100999998Y-52115468D01*
X101000000Y-52115468D01*
X101000002Y-52115468D01*
X101056673Y-52110509D01*
X101226692Y-52095635D01*
X101446496Y-52036739D01*
X101652734Y-51940568D01*
X101839139Y-51810047D01*
X102000047Y-51649139D01*
X102130568Y-51462734D01*
X102226739Y-51256496D01*
X102285635Y-51036692D01*
X102305468Y-50810000D01*
X102285635Y-50583308D01*
X102226739Y-50363504D01*
X102130568Y-50157266D01*
X102000047Y-49970861D01*
X102000045Y-49970858D01*
X101886819Y-49857632D01*
X101853334Y-49796309D01*
X101850500Y-49769951D01*
X101850500Y-49034499D01*
X101870185Y-48967460D01*
X101922989Y-48921705D01*
X101974500Y-48910499D01*
X102039363Y-48910499D01*
X102156753Y-48895046D01*
X102156757Y-48895044D01*
X102156762Y-48895044D01*
X102302841Y-48834536D01*
X102428282Y-48738282D01*
X102524536Y-48612841D01*
X102585044Y-48466762D01*
X102600500Y-48349361D01*
X102600499Y-46270645D01*
X104399500Y-46270645D01*
X104399500Y-48349363D01*
X104414953Y-48466753D01*
X104414956Y-48466762D01*
X104475464Y-48612841D01*
X104571718Y-48738282D01*
X104697159Y-48834536D01*
X104843238Y-48895044D01*
X104960639Y-48910500D01*
X105025500Y-48910499D01*
X105092538Y-48930183D01*
X105138294Y-48982986D01*
X105149500Y-49034499D01*
X105149500Y-49769951D01*
X105129815Y-49836990D01*
X105113181Y-49857632D01*
X104999954Y-49970858D01*
X104869432Y-50157265D01*
X104869431Y-50157267D01*
X104773261Y-50363502D01*
X104773258Y-50363511D01*
X104714366Y-50583302D01*
X104714364Y-50583313D01*
X104694532Y-50809998D01*
X104694532Y-50810001D01*
X104714364Y-51036686D01*
X104714366Y-51036697D01*
X104773258Y-51256488D01*
X104773261Y-51256497D01*
X104869431Y-51462732D01*
X104869432Y-51462734D01*
X104999954Y-51649141D01*
X105160858Y-51810045D01*
X105160861Y-51810047D01*
X105347266Y-51940568D01*
X105553504Y-52036739D01*
X105773308Y-52095635D01*
X105935230Y-52109801D01*
X105999998Y-52115468D01*
X106000000Y-52115468D01*
X106000002Y-52115468D01*
X106056673Y-52110509D01*
X106226692Y-52095635D01*
X106446496Y-52036739D01*
X106652734Y-51940568D01*
X106839139Y-51810047D01*
X107000047Y-51649139D01*
X107130568Y-51462734D01*
X107226739Y-51256496D01*
X107285635Y-51036692D01*
X107305468Y-50810000D01*
X107285635Y-50583308D01*
X107226739Y-50363504D01*
X107130568Y-50157266D01*
X107000047Y-49970861D01*
X107000045Y-49970858D01*
X106886819Y-49857632D01*
X106853334Y-49796309D01*
X106850500Y-49769951D01*
X106850500Y-49034499D01*
X106870185Y-48967460D01*
X106922989Y-48921705D01*
X106974500Y-48910499D01*
X107039363Y-48910499D01*
X107156753Y-48895046D01*
X107156757Y-48895044D01*
X107156762Y-48895044D01*
X107302841Y-48834536D01*
X107428282Y-48738282D01*
X107524536Y-48612841D01*
X107585044Y-48466762D01*
X107600500Y-48349361D01*
X107600499Y-46270640D01*
X107600499Y-46270639D01*
X107600499Y-46270636D01*
X107585046Y-46153246D01*
X107585044Y-46153239D01*
X107585044Y-46153238D01*
X107524536Y-46007159D01*
X107428282Y-45881718D01*
X107302841Y-45785464D01*
X107156762Y-45724956D01*
X107156760Y-45724955D01*
X107039370Y-45709501D01*
X107039367Y-45709500D01*
X107039361Y-45709500D01*
X107039354Y-45709500D01*
X104960636Y-45709500D01*
X104843246Y-45724953D01*
X104843237Y-45724956D01*
X104697160Y-45785463D01*
X104571718Y-45881718D01*
X104475463Y-46007160D01*
X104414956Y-46153237D01*
X104414955Y-46153239D01*
X104400233Y-46265069D01*
X104399501Y-46270636D01*
X104399500Y-46270645D01*
X102600499Y-46270645D01*
X102600499Y-46270640D01*
X102600499Y-46270639D01*
X102600499Y-46270636D01*
X102585046Y-46153246D01*
X102585044Y-46153239D01*
X102585044Y-46153238D01*
X102524536Y-46007159D01*
X102428282Y-45881718D01*
X102302841Y-45785464D01*
X102156762Y-45724956D01*
X102156760Y-45724955D01*
X102039370Y-45709501D01*
X102039367Y-45709500D01*
X102039361Y-45709500D01*
X102039354Y-45709500D01*
X99960636Y-45709500D01*
X99843246Y-45724953D01*
X99843237Y-45724956D01*
X99697160Y-45785463D01*
X99571718Y-45881718D01*
X99475463Y-46007160D01*
X99414956Y-46153237D01*
X99414955Y-46153239D01*
X99400233Y-46265069D01*
X99399501Y-46270636D01*
X99399500Y-46270645D01*
X97600499Y-46270645D01*
X97600499Y-46270640D01*
X97600499Y-46270639D01*
X97600499Y-46270636D01*
X97585046Y-46153246D01*
X97585044Y-46153239D01*
X97585044Y-46153238D01*
X97524536Y-46007159D01*
X97428282Y-45881718D01*
X97302841Y-45785464D01*
X97156762Y-45724956D01*
X97156760Y-45724955D01*
X97039370Y-45709501D01*
X97039367Y-45709500D01*
X97039361Y-45709500D01*
X97039354Y-45709500D01*
X94960636Y-45709500D01*
X94843246Y-45724953D01*
X94843237Y-45724956D01*
X94697160Y-45785463D01*
X94571718Y-45881718D01*
X94475463Y-46007160D01*
X94414956Y-46153237D01*
X94414955Y-46153239D01*
X94400233Y-46265069D01*
X94399501Y-46270636D01*
X94399500Y-46270645D01*
X92800000Y-46270645D01*
X92800000Y-46265070D01*
X92799999Y-46265069D01*
X92784877Y-46130858D01*
X92725336Y-45960698D01*
X92629422Y-45808051D01*
X92501948Y-45680577D01*
X92349301Y-45584663D01*
X92179141Y-45525122D01*
X92044930Y-45510000D01*
X91250000Y-45510000D01*
X91250000Y-46876988D01*
X91192993Y-46844075D01*
X91065826Y-46810000D01*
X90934174Y-46810000D01*
X90807007Y-46844075D01*
X90750000Y-46876988D01*
X90750000Y-45510000D01*
X89955070Y-45510000D01*
X89820858Y-45525122D01*
X89650698Y-45584663D01*
X89498051Y-45680577D01*
X89370577Y-45808051D01*
X89274663Y-45960698D01*
X89215122Y-46130858D01*
X89200000Y-46265069D01*
X84000500Y-46265069D01*
X84000500Y-44934500D01*
X84020185Y-44867461D01*
X84072989Y-44821706D01*
X84124500Y-44810500D01*
X109875500Y-44810500D01*
X109942539Y-44830185D01*
G37*
%TD.AperFunction*%
%TD*%
M02*
