%TF.GenerationSoftware,KiCad,Pcbnew,8.0.6*%
%TF.CreationDate,2024-11-17T16:19:30-03:00*%
%TF.ProjectId,canon+GH4,63616e6f-6e2b-4474-9834-2e6b69636164,rev?*%
%TF.SameCoordinates,Original*%
%TF.FileFunction,Copper,L1,Top*%
%TF.FilePolarity,Positive*%
%FSLAX46Y46*%
G04 Gerber Fmt 4.6, Leading zero omitted, Abs format (unit mm)*
G04 Created by KiCad (PCBNEW 8.0.6) date 2024-11-17 16:19:30*
%MOMM*%
%LPD*%
G01*
G04 APERTURE LIST*
%TA.AperFunction,ComponentPad*%
%ADD10R,2.000000X2.000000*%
%TD*%
%TA.AperFunction,ComponentPad*%
%ADD11C,1.400000*%
%TD*%
%TA.AperFunction,ComponentPad*%
%ADD12O,1.400000X1.400000*%
%TD*%
%TA.AperFunction,ComponentPad*%
%ADD13R,1.050000X1.500000*%
%TD*%
%TA.AperFunction,ComponentPad*%
%ADD14O,1.050000X1.500000*%
%TD*%
%TA.AperFunction,Conductor*%
%ADD15C,0.500000*%
%TD*%
%TA.AperFunction,Conductor*%
%ADD16C,0.200000*%
%TD*%
G04 APERTURE END LIST*
D10*
%TO.P,TP6,1,1*%
%TO.N,/Signal_focus*%
X115000000Y-68000000D03*
%TD*%
%TO.P,TP5,1,1*%
%TO.N,/Signal_shutter*%
X121000000Y-68000000D03*
%TD*%
%TO.P,TP1,1,1*%
%TO.N,/Ground*%
X106500000Y-95500000D03*
%TD*%
%TO.P,TP2,1,1*%
%TO.N,Net-(Q1-C)*%
X106500000Y-91000000D03*
%TD*%
%TO.P,TP3,1,1*%
%TO.N,Net-(Q2-C)*%
X106500000Y-86500000D03*
%TD*%
%TO.P,TP7,1,1*%
%TO.N,Net-(R6-Pad1)*%
X128000000Y-68000000D03*
%TD*%
%TO.P,TP4,1,1*%
%TO.N,/Ground*%
X107500000Y-68000000D03*
%TD*%
D11*
%TO.P,R3,1*%
%TO.N,Net-(R6-Pad1)*%
X128000000Y-77500000D03*
D12*
%TO.P,R3,2*%
%TO.N,Net-(Q3-B)*%
X120380000Y-77500000D03*
%TD*%
D11*
%TO.P,R5,1*%
%TO.N,Net-(R4-Pad1)*%
X126000000Y-95120000D03*
D12*
%TO.P,R5,2*%
%TO.N,Net-(Q3-E)*%
X126000000Y-87500000D03*
%TD*%
D11*
%TO.P,R4,1*%
%TO.N,/Ground*%
X129500000Y-95120000D03*
D12*
%TO.P,R4,2*%
%TO.N,Net-(Q3-E)*%
X129500000Y-87500000D03*
%TD*%
D11*
%TO.P,R2,1*%
%TO.N,/Signal_focus*%
X114620000Y-71500000D03*
D12*
%TO.P,R2,2*%
%TO.N,Net-(Q2-B)*%
X107000000Y-71500000D03*
%TD*%
D11*
%TO.P,R1,1*%
%TO.N,/Signal_shutter*%
X120000000Y-74500000D03*
D12*
%TO.P,R1,2*%
%TO.N,Net-(Q1-B)*%
X112380000Y-74500000D03*
%TD*%
D11*
%TO.P,R6,1*%
%TO.N,Net-(Q1-C)*%
X115763574Y-87615628D03*
D12*
%TO.P,R6,2*%
%TO.N,Net-(R4-Pad1)*%
X123383574Y-87615628D03*
%TD*%
D13*
%TO.P,Q2,1,E*%
%TO.N,/Ground*%
X109500000Y-81000000D03*
D14*
%TO.P,Q2,2,C*%
%TO.N,Net-(Q2-C)*%
X108230000Y-81000000D03*
%TO.P,Q2,3,B*%
%TO.N,Net-(Q2-B)*%
X106960000Y-81000000D03*
%TD*%
D13*
%TO.P,Q1,1,E*%
%TO.N,/Ground*%
X117000000Y-81000000D03*
D14*
%TO.P,Q1,2,C*%
%TO.N,Net-(Q1-C)*%
X115730000Y-81000000D03*
%TO.P,Q1,3,B*%
%TO.N,Net-(Q1-B)*%
X114460000Y-81000000D03*
%TD*%
%TO.P,Q3,3,B*%
%TO.N,Net-(Q3-B)*%
X126960000Y-81000000D03*
%TO.P,Q3,2,C*%
%TO.N,Net-(Q1-C)*%
X128230000Y-81000000D03*
D13*
%TO.P,Q3,1,E*%
%TO.N,Net-(Q3-E)*%
X129500000Y-81000000D03*
%TD*%
D15*
%TO.N,Net-(Q2-C)*%
X106500000Y-86500000D02*
X107500000Y-86500000D01*
X107500000Y-86500000D02*
X108230000Y-85770000D01*
%TO.N,Net-(Q1-C)*%
X108500000Y-91000000D02*
X106500000Y-91000000D01*
%TO.N,Net-(Q2-C)*%
X108230000Y-85770000D02*
X108230000Y-81000000D01*
%TO.N,Net-(Q1-C)*%
X111884372Y-87615628D02*
X115763574Y-87615628D01*
X108500000Y-91000000D02*
X111884372Y-87615628D01*
X127500000Y-84000000D02*
X117263574Y-84000000D01*
X117263574Y-84000000D02*
X115763574Y-85500000D01*
X128230000Y-83270000D02*
X127500000Y-84000000D01*
X128230000Y-81000000D02*
X128230000Y-83270000D01*
X115763574Y-85500000D02*
X115763574Y-81033574D01*
X115763574Y-87615628D02*
X115763574Y-85500000D01*
%TO.N,Net-(Q1-B)*%
X112380000Y-77380000D02*
X112380000Y-74500000D01*
X114460000Y-79460000D02*
X112380000Y-77380000D01*
X114460000Y-81000000D02*
X114460000Y-79460000D01*
%TO.N,Net-(Q1-C)*%
X115763574Y-81033574D02*
X115730000Y-81000000D01*
%TO.N,Net-(Q2-B)*%
X106960000Y-71540000D02*
X107000000Y-71500000D01*
X106960000Y-81000000D02*
X106960000Y-71540000D01*
%TO.N,Net-(R4-Pad1)*%
X123383574Y-93883574D02*
X123383574Y-87615628D01*
X124620000Y-95120000D02*
X123383574Y-93883574D01*
X126000000Y-95120000D02*
X124620000Y-95120000D01*
%TO.N,Net-(R6-Pad1)*%
X128000000Y-77500000D02*
X128000000Y-68000000D01*
%TO.N,Net-(Q3-B)*%
X122000000Y-81000000D02*
X126960000Y-81000000D01*
X120380000Y-79380000D02*
X122000000Y-81000000D01*
X120380000Y-77500000D02*
X120380000Y-79380000D01*
%TO.N,/Signal_focus*%
X115000000Y-68000000D02*
X115000000Y-71500000D01*
%TO.N,Net-(Q3-E)*%
X129500000Y-87500000D02*
X129500000Y-81000000D01*
X126000000Y-87500000D02*
X129500000Y-87500000D01*
X126190000Y-87380000D02*
X126000000Y-87190000D01*
%TO.N,/Signal_shutter*%
X121000000Y-73500000D02*
X120000000Y-74500000D01*
X121000000Y-68000000D02*
X121000000Y-73500000D01*
D16*
%TO.N,Net-(Q3-E)*%
X129310000Y-87190000D02*
X129500000Y-87380000D01*
X129500000Y-81000000D02*
X129500000Y-87380000D01*
%TD*%
%TA.AperFunction,Conductor*%
%TO.N,/Ground*%
G36*
X131442539Y-64020185D02*
G01*
X131488294Y-64072989D01*
X131499500Y-64124500D01*
X131499500Y-98375500D01*
X131479815Y-98442539D01*
X131427011Y-98488294D01*
X131375500Y-98499500D01*
X104124500Y-98499500D01*
X104057461Y-98479815D01*
X104011706Y-98427011D01*
X104000500Y-98375500D01*
X104000500Y-94455069D01*
X104700000Y-94455069D01*
X104700000Y-95250000D01*
X106066988Y-95250000D01*
X106034075Y-95307007D01*
X106000000Y-95434174D01*
X106000000Y-95565826D01*
X106034075Y-95692993D01*
X106066988Y-95750000D01*
X104700000Y-95750000D01*
X104700000Y-96544930D01*
X104715122Y-96679141D01*
X104774663Y-96849301D01*
X104870577Y-97001948D01*
X104998051Y-97129422D01*
X105150698Y-97225336D01*
X105320858Y-97284877D01*
X105455069Y-97299999D01*
X105455070Y-97300000D01*
X106250000Y-97300000D01*
X106250000Y-95933012D01*
X106307007Y-95965925D01*
X106434174Y-96000000D01*
X106565826Y-96000000D01*
X106692993Y-95965925D01*
X106750000Y-95933012D01*
X106750000Y-97300000D01*
X107544930Y-97300000D01*
X107544930Y-97299999D01*
X107679141Y-97284877D01*
X107849301Y-97225336D01*
X108001948Y-97129422D01*
X108129422Y-97001948D01*
X108225336Y-96849301D01*
X108284877Y-96679141D01*
X108299999Y-96544930D01*
X108300000Y-96544930D01*
X108300000Y-95750000D01*
X106933012Y-95750000D01*
X106965925Y-95692993D01*
X107000000Y-95565826D01*
X107000000Y-95434174D01*
X106965925Y-95307007D01*
X106933012Y-95250000D01*
X108300000Y-95250000D01*
X108300000Y-94455070D01*
X108299999Y-94455069D01*
X108284877Y-94320858D01*
X108225336Y-94150698D01*
X108129422Y-93998051D01*
X108001948Y-93870577D01*
X107849301Y-93774663D01*
X107679141Y-93715122D01*
X107544930Y-93700000D01*
X106750000Y-93700000D01*
X106750000Y-95066988D01*
X106692993Y-95034075D01*
X106565826Y-95000000D01*
X106434174Y-95000000D01*
X106307007Y-95034075D01*
X106250000Y-95066988D01*
X106250000Y-93700000D01*
X105455070Y-93700000D01*
X105320858Y-93715122D01*
X105150698Y-93774663D01*
X104998051Y-93870577D01*
X104870577Y-93998051D01*
X104774663Y-94150698D01*
X104715122Y-94320858D01*
X104700000Y-94455069D01*
X104000500Y-94455069D01*
X104000500Y-89960645D01*
X104899500Y-89960645D01*
X104899500Y-92039363D01*
X104914953Y-92156753D01*
X104914956Y-92156762D01*
X104975464Y-92302841D01*
X105071718Y-92428282D01*
X105197159Y-92524536D01*
X105343238Y-92585044D01*
X105460639Y-92600500D01*
X107539360Y-92600499D01*
X107539363Y-92600499D01*
X107656753Y-92585046D01*
X107656757Y-92585044D01*
X107656762Y-92585044D01*
X107802841Y-92524536D01*
X107928282Y-92428282D01*
X108024536Y-92302841D01*
X108085044Y-92156762D01*
X108100500Y-92039361D01*
X108100500Y-91974500D01*
X108120185Y-91907461D01*
X108172989Y-91861706D01*
X108224500Y-91850500D01*
X108583768Y-91850500D01*
X108583769Y-91850499D01*
X108638538Y-91839605D01*
X108748074Y-91817818D01*
X108748078Y-91817816D01*
X108748082Y-91817816D01*
X108793415Y-91799037D01*
X108902863Y-91753704D01*
X109042162Y-91660627D01*
X112200342Y-88502447D01*
X112261665Y-88468962D01*
X112288023Y-88466128D01*
X114723526Y-88466128D01*
X114790565Y-88485813D01*
X114811202Y-88502442D01*
X114876754Y-88567994D01*
X114924436Y-88615676D01*
X114981563Y-88655676D01*
X115110840Y-88746196D01*
X115317078Y-88842367D01*
X115536882Y-88901263D01*
X115698804Y-88915429D01*
X115763572Y-88921096D01*
X115763574Y-88921096D01*
X115763576Y-88921096D01*
X115820247Y-88916137D01*
X115990266Y-88901263D01*
X116210070Y-88842367D01*
X116416308Y-88746196D01*
X116602713Y-88615675D01*
X116763621Y-88454767D01*
X116894142Y-88268362D01*
X116990313Y-88062124D01*
X117049209Y-87842320D01*
X117069042Y-87615628D01*
X117049209Y-87388936D01*
X116990313Y-87169132D01*
X116894142Y-86962894D01*
X116763621Y-86776489D01*
X116763619Y-86776486D01*
X116650393Y-86663260D01*
X116616908Y-86601937D01*
X116614074Y-86575579D01*
X116614074Y-85903650D01*
X116633759Y-85836611D01*
X116650393Y-85815969D01*
X117579543Y-84886819D01*
X117640866Y-84853334D01*
X117667224Y-84850500D01*
X127583768Y-84850500D01*
X127583769Y-84850499D01*
X127638538Y-84839605D01*
X127748074Y-84817818D01*
X127748078Y-84817816D01*
X127748082Y-84817816D01*
X127793415Y-84799037D01*
X127902863Y-84753704D01*
X128042162Y-84660627D01*
X128437819Y-84264970D01*
X128499142Y-84231485D01*
X128568833Y-84236469D01*
X128624767Y-84278340D01*
X128649184Y-84343805D01*
X128649500Y-84352651D01*
X128649500Y-86459952D01*
X128629815Y-86526991D01*
X128613181Y-86547633D01*
X128547633Y-86613181D01*
X128486310Y-86646666D01*
X128459952Y-86649500D01*
X127040048Y-86649500D01*
X126973009Y-86629815D01*
X126952371Y-86613185D01*
X126839139Y-86499953D01*
X126839138Y-86499952D01*
X126839137Y-86499951D01*
X126652734Y-86369432D01*
X126652732Y-86369431D01*
X126446497Y-86273261D01*
X126446488Y-86273258D01*
X126226697Y-86214366D01*
X126226693Y-86214365D01*
X126226692Y-86214365D01*
X126226691Y-86214364D01*
X126226686Y-86214364D01*
X126000002Y-86194532D01*
X125999998Y-86194532D01*
X125773313Y-86214364D01*
X125773302Y-86214366D01*
X125553511Y-86273258D01*
X125553502Y-86273261D01*
X125347267Y-86369431D01*
X125347265Y-86369432D01*
X125160858Y-86499954D01*
X124999954Y-86660858D01*
X124869432Y-86847265D01*
X124869431Y-86847267D01*
X124777209Y-87045036D01*
X124731036Y-87097475D01*
X124663842Y-87116627D01*
X124596961Y-87096411D01*
X124552446Y-87045037D01*
X124514142Y-86962894D01*
X124383621Y-86776489D01*
X124383619Y-86776486D01*
X124222715Y-86615582D01*
X124036308Y-86485060D01*
X124036306Y-86485059D01*
X123830071Y-86388889D01*
X123830062Y-86388886D01*
X123610271Y-86329994D01*
X123610267Y-86329993D01*
X123610266Y-86329993D01*
X123610265Y-86329992D01*
X123610260Y-86329992D01*
X123383576Y-86310160D01*
X123383572Y-86310160D01*
X123156887Y-86329992D01*
X123156876Y-86329994D01*
X122937085Y-86388886D01*
X122937076Y-86388889D01*
X122730841Y-86485059D01*
X122730839Y-86485060D01*
X122544432Y-86615582D01*
X122383528Y-86776486D01*
X122253006Y-86962893D01*
X122253005Y-86962895D01*
X122156835Y-87169130D01*
X122156832Y-87169139D01*
X122097940Y-87388930D01*
X122097938Y-87388941D01*
X122078106Y-87615626D01*
X122078106Y-87615629D01*
X122097938Y-87842314D01*
X122097940Y-87842325D01*
X122156832Y-88062116D01*
X122156835Y-88062125D01*
X122253005Y-88268360D01*
X122253006Y-88268362D01*
X122383525Y-88454765D01*
X122383526Y-88454766D01*
X122383527Y-88454767D01*
X122496756Y-88567996D01*
X122530240Y-88629317D01*
X122533074Y-88655676D01*
X122533074Y-93967345D01*
X122565755Y-94131647D01*
X122565758Y-94131656D01*
X122629870Y-94286437D01*
X122629871Y-94286440D01*
X122722946Y-94425735D01*
X122722949Y-94425739D01*
X123959374Y-95662162D01*
X124077838Y-95780626D01*
X124217137Y-95873703D01*
X124371918Y-95937816D01*
X124513233Y-95965925D01*
X124536228Y-95970499D01*
X124536232Y-95970500D01*
X124536233Y-95970500D01*
X124959952Y-95970500D01*
X125026991Y-95990185D01*
X125047628Y-96006814D01*
X125160861Y-96120047D01*
X125347266Y-96250568D01*
X125553504Y-96346739D01*
X125773308Y-96405635D01*
X125935230Y-96419801D01*
X125999998Y-96425468D01*
X126000000Y-96425468D01*
X126000002Y-96425468D01*
X126056673Y-96420509D01*
X126226692Y-96405635D01*
X126446496Y-96346739D01*
X126453208Y-96343609D01*
X128629942Y-96343609D01*
X128676768Y-96380055D01*
X128676770Y-96380056D01*
X128895385Y-96498364D01*
X128895396Y-96498369D01*
X129130506Y-96579083D01*
X129375707Y-96620000D01*
X129624293Y-96620000D01*
X129869493Y-96579083D01*
X130104603Y-96498369D01*
X130104614Y-96498364D01*
X130323228Y-96380057D01*
X130323231Y-96380055D01*
X130370056Y-96343609D01*
X129500000Y-95473553D01*
X128629942Y-96343609D01*
X126453208Y-96343609D01*
X126652734Y-96250568D01*
X126839139Y-96120047D01*
X127000047Y-95959139D01*
X127130568Y-95772734D01*
X127226739Y-95566496D01*
X127285635Y-95346692D01*
X127305468Y-95120000D01*
X127305467Y-95119994D01*
X127994859Y-95119994D01*
X127994859Y-95120005D01*
X128015385Y-95367729D01*
X128015387Y-95367738D01*
X128076412Y-95608717D01*
X128176266Y-95836364D01*
X128276564Y-95989882D01*
X129146447Y-95120000D01*
X129146447Y-95119999D01*
X129100370Y-95073922D01*
X129150000Y-95073922D01*
X129150000Y-95166078D01*
X129173852Y-95255095D01*
X129219930Y-95334905D01*
X129285095Y-95400070D01*
X129364905Y-95446148D01*
X129453922Y-95470000D01*
X129546078Y-95470000D01*
X129635095Y-95446148D01*
X129714905Y-95400070D01*
X129780070Y-95334905D01*
X129826148Y-95255095D01*
X129850000Y-95166078D01*
X129850000Y-95119999D01*
X129853553Y-95119999D01*
X129853553Y-95120001D01*
X130723434Y-95989882D01*
X130823731Y-95836369D01*
X130923587Y-95608717D01*
X130984612Y-95367738D01*
X130984614Y-95367729D01*
X131005141Y-95120005D01*
X131005141Y-95119994D01*
X130984614Y-94872270D01*
X130984612Y-94872261D01*
X130923587Y-94631282D01*
X130823731Y-94403630D01*
X130723434Y-94250116D01*
X129853553Y-95119999D01*
X129850000Y-95119999D01*
X129850000Y-95073922D01*
X129826148Y-94984905D01*
X129780070Y-94905095D01*
X129714905Y-94839930D01*
X129635095Y-94793852D01*
X129546078Y-94770000D01*
X129453922Y-94770000D01*
X129364905Y-94793852D01*
X129285095Y-94839930D01*
X129219930Y-94905095D01*
X129173852Y-94984905D01*
X129150000Y-95073922D01*
X129100370Y-95073922D01*
X128276564Y-94250116D01*
X128176267Y-94403632D01*
X128076412Y-94631282D01*
X128015387Y-94872261D01*
X128015385Y-94872270D01*
X127994859Y-95119994D01*
X127305467Y-95119994D01*
X127299801Y-95055230D01*
X127285635Y-94893308D01*
X127226739Y-94673504D01*
X127130568Y-94467266D01*
X127028053Y-94320858D01*
X127000045Y-94280858D01*
X126839141Y-94119954D01*
X126652734Y-93989432D01*
X126652732Y-93989431D01*
X126453203Y-93896388D01*
X128629942Y-93896388D01*
X128629942Y-93896390D01*
X129500000Y-94766447D01*
X129500001Y-94766447D01*
X130370057Y-93896390D01*
X130370056Y-93896389D01*
X130323229Y-93859943D01*
X130104614Y-93741635D01*
X130104603Y-93741630D01*
X129869493Y-93660916D01*
X129624293Y-93620000D01*
X129375707Y-93620000D01*
X129130506Y-93660916D01*
X128895396Y-93741630D01*
X128895390Y-93741632D01*
X128676761Y-93859949D01*
X128629942Y-93896388D01*
X126453203Y-93896388D01*
X126446497Y-93893261D01*
X126446488Y-93893258D01*
X126226697Y-93834366D01*
X126226693Y-93834365D01*
X126226692Y-93834365D01*
X126226691Y-93834364D01*
X126226686Y-93834364D01*
X126000002Y-93814532D01*
X125999998Y-93814532D01*
X125773313Y-93834364D01*
X125773302Y-93834366D01*
X125553511Y-93893258D01*
X125553502Y-93893261D01*
X125347267Y-93989431D01*
X125347265Y-93989432D01*
X125160862Y-94119951D01*
X125079481Y-94201332D01*
X125018157Y-94234816D01*
X124948466Y-94229832D01*
X124904119Y-94201331D01*
X124599178Y-93896390D01*
X124270393Y-93567604D01*
X124236908Y-93506281D01*
X124234074Y-93479923D01*
X124234074Y-88655676D01*
X124253759Y-88588637D01*
X124270388Y-88567999D01*
X124383621Y-88454767D01*
X124514142Y-88268362D01*
X124606365Y-88070589D01*
X124652536Y-88018152D01*
X124719730Y-87999000D01*
X124786611Y-88019216D01*
X124831127Y-88070590D01*
X124837868Y-88085046D01*
X124869431Y-88152732D01*
X124869432Y-88152734D01*
X124999954Y-88339141D01*
X125160858Y-88500045D01*
X125207693Y-88532839D01*
X125347266Y-88630568D01*
X125553504Y-88726739D01*
X125773308Y-88785635D01*
X125935230Y-88799801D01*
X125999998Y-88805468D01*
X126000000Y-88805468D01*
X126000002Y-88805468D01*
X126056673Y-88800509D01*
X126226692Y-88785635D01*
X126446496Y-88726739D01*
X126652734Y-88630568D01*
X126839139Y-88500047D01*
X126952368Y-88386817D01*
X127013689Y-88353334D01*
X127040048Y-88350500D01*
X128459952Y-88350500D01*
X128526991Y-88370185D01*
X128547628Y-88386814D01*
X128615579Y-88454765D01*
X128660862Y-88500048D01*
X128754063Y-88565307D01*
X128847266Y-88630568D01*
X129053504Y-88726739D01*
X129273308Y-88785635D01*
X129435230Y-88799801D01*
X129499998Y-88805468D01*
X129500000Y-88805468D01*
X129500002Y-88805468D01*
X129556673Y-88800509D01*
X129726692Y-88785635D01*
X129946496Y-88726739D01*
X130152734Y-88630568D01*
X130339139Y-88500047D01*
X130500047Y-88339139D01*
X130630568Y-88152734D01*
X130726739Y-87946496D01*
X130785635Y-87726692D01*
X130805468Y-87500000D01*
X130785635Y-87273308D01*
X130726739Y-87053504D01*
X130630568Y-86847266D01*
X130532839Y-86707693D01*
X130500045Y-86660858D01*
X130386819Y-86547632D01*
X130353334Y-86486309D01*
X130350500Y-86459951D01*
X130350500Y-82318298D01*
X130370185Y-82251259D01*
X130399010Y-82219925D01*
X130453282Y-82178282D01*
X130549536Y-82052841D01*
X130610044Y-81906762D01*
X130625500Y-81789361D01*
X130625499Y-80210640D01*
X130625499Y-80210636D01*
X130610046Y-80093246D01*
X130610044Y-80093241D01*
X130610044Y-80093238D01*
X130549536Y-79947159D01*
X130453282Y-79821718D01*
X130327841Y-79725464D01*
X130213098Y-79677936D01*
X130181762Y-79664956D01*
X130181760Y-79664955D01*
X130064370Y-79649501D01*
X130064367Y-79649500D01*
X130064361Y-79649500D01*
X130064354Y-79649500D01*
X128935636Y-79649500D01*
X128818246Y-79664953D01*
X128818234Y-79664957D01*
X128701188Y-79713439D01*
X128631719Y-79720908D01*
X128615418Y-79716809D01*
X128493556Y-79677214D01*
X128406067Y-79663357D01*
X128318579Y-79649500D01*
X128141421Y-79649500D01*
X128095445Y-79656782D01*
X127966443Y-79677214D01*
X127797960Y-79731956D01*
X127797957Y-79731957D01*
X127651295Y-79806687D01*
X127582626Y-79819583D01*
X127538705Y-79806687D01*
X127392042Y-79731957D01*
X127392039Y-79731956D01*
X127223556Y-79677214D01*
X127136067Y-79663357D01*
X127048579Y-79649500D01*
X126871421Y-79649500D01*
X126825445Y-79656782D01*
X126696443Y-79677214D01*
X126527960Y-79731956D01*
X126527957Y-79731957D01*
X126370109Y-79812386D01*
X126325000Y-79845160D01*
X126226786Y-79916517D01*
X126226784Y-79916519D01*
X126226783Y-79916519D01*
X126101519Y-80041783D01*
X126101519Y-80041784D01*
X126101517Y-80041786D01*
X126090066Y-80057547D01*
X126060395Y-80098386D01*
X126005065Y-80141051D01*
X125960077Y-80149500D01*
X122403651Y-80149500D01*
X122336612Y-80129815D01*
X122315970Y-80113181D01*
X121266819Y-79064030D01*
X121233334Y-79002707D01*
X121230500Y-78976349D01*
X121230500Y-78540048D01*
X121250185Y-78473009D01*
X121266814Y-78452371D01*
X121380047Y-78339139D01*
X121510568Y-78152734D01*
X121606739Y-77946496D01*
X121665635Y-77726692D01*
X121685468Y-77500000D01*
X121665635Y-77273308D01*
X121620916Y-77106415D01*
X121606741Y-77053511D01*
X121606738Y-77053502D01*
X121510568Y-76847267D01*
X121510567Y-76847265D01*
X121380045Y-76660858D01*
X121219141Y-76499954D01*
X121032734Y-76369432D01*
X121032732Y-76369431D01*
X120826497Y-76273261D01*
X120826488Y-76273258D01*
X120606697Y-76214366D01*
X120606693Y-76214365D01*
X120606692Y-76214365D01*
X120606691Y-76214364D01*
X120606686Y-76214364D01*
X120380002Y-76194532D01*
X120379998Y-76194532D01*
X120153313Y-76214364D01*
X120153302Y-76214366D01*
X119933511Y-76273258D01*
X119933502Y-76273261D01*
X119727267Y-76369431D01*
X119727265Y-76369432D01*
X119540858Y-76499954D01*
X119379954Y-76660858D01*
X119249432Y-76847265D01*
X119249431Y-76847267D01*
X119153261Y-77053502D01*
X119153258Y-77053511D01*
X119094366Y-77273302D01*
X119094364Y-77273313D01*
X119074532Y-77499998D01*
X119074532Y-77500001D01*
X119094364Y-77726686D01*
X119094366Y-77726697D01*
X119153258Y-77946488D01*
X119153261Y-77946497D01*
X119249431Y-78152732D01*
X119249432Y-78152734D01*
X119379951Y-78339137D01*
X119379952Y-78339138D01*
X119379953Y-78339139D01*
X119493182Y-78452368D01*
X119526666Y-78513689D01*
X119529500Y-78540048D01*
X119529500Y-79463771D01*
X119562181Y-79628073D01*
X119562184Y-79628082D01*
X119626296Y-79782863D01*
X119626297Y-79782866D01*
X119719372Y-79922161D01*
X119719375Y-79922165D01*
X121457834Y-81660624D01*
X121457838Y-81660627D01*
X121597132Y-81753701D01*
X121597133Y-81753701D01*
X121597137Y-81753704D01*
X121683222Y-81789361D01*
X121751918Y-81817816D01*
X121916228Y-81850499D01*
X121916232Y-81850500D01*
X121916233Y-81850500D01*
X122083767Y-81850500D01*
X125960077Y-81850500D01*
X126027116Y-81870185D01*
X126060393Y-81901612D01*
X126101517Y-81958214D01*
X126226786Y-82083483D01*
X126370110Y-82187614D01*
X126433516Y-82219921D01*
X126527957Y-82268042D01*
X126527960Y-82268043D01*
X126612201Y-82295414D01*
X126696445Y-82322786D01*
X126871421Y-82350500D01*
X126871422Y-82350500D01*
X127048578Y-82350500D01*
X127048579Y-82350500D01*
X127223555Y-82322786D01*
X127223569Y-82322781D01*
X127226553Y-82322066D01*
X127227730Y-82322124D01*
X127228367Y-82322024D01*
X127228388Y-82322157D01*
X127296335Y-82325557D01*
X127353153Y-82366221D01*
X127378966Y-82431147D01*
X127379500Y-82442640D01*
X127379500Y-82866349D01*
X127359815Y-82933388D01*
X127343181Y-82954030D01*
X127184030Y-83113181D01*
X127122707Y-83146666D01*
X127096349Y-83149500D01*
X117179802Y-83149500D01*
X117015499Y-83182182D01*
X117015491Y-83182184D01*
X116860712Y-83246296D01*
X116860708Y-83246298D01*
X116806964Y-83282209D01*
X116740287Y-83303087D01*
X116672907Y-83284602D01*
X116626217Y-83232623D01*
X116614074Y-83179107D01*
X116614074Y-82674000D01*
X116633759Y-82606961D01*
X116686563Y-82561206D01*
X116738074Y-82550000D01*
X116750000Y-82550000D01*
X116750000Y-81732034D01*
X116763516Y-81675737D01*
X116771215Y-81660627D01*
X116773042Y-81657042D01*
X116827786Y-81488555D01*
X116850274Y-81346568D01*
X116855255Y-81349444D01*
X116950630Y-81375000D01*
X117049370Y-81375000D01*
X117144745Y-81349444D01*
X117230255Y-81300075D01*
X117250000Y-81280330D01*
X117250000Y-82550000D01*
X117569930Y-82550000D01*
X117569930Y-82549999D01*
X117704141Y-82534877D01*
X117874301Y-82475336D01*
X118026948Y-82379422D01*
X118154422Y-82251948D01*
X118250336Y-82099301D01*
X118309877Y-81929141D01*
X118324999Y-81794930D01*
X118325000Y-81794930D01*
X118325000Y-81250000D01*
X117280330Y-81250000D01*
X117300075Y-81230255D01*
X117349444Y-81144745D01*
X117375000Y-81049370D01*
X117375000Y-80950630D01*
X117349444Y-80855255D01*
X117300075Y-80769745D01*
X117280330Y-80750000D01*
X118325000Y-80750000D01*
X118325000Y-80205070D01*
X118324999Y-80205069D01*
X118309877Y-80070858D01*
X118250336Y-79900698D01*
X118154422Y-79748051D01*
X118026948Y-79620577D01*
X117874301Y-79524663D01*
X117704141Y-79465122D01*
X117569930Y-79450000D01*
X117250000Y-79450000D01*
X117250000Y-80719670D01*
X117230255Y-80699925D01*
X117144745Y-80650556D01*
X117049370Y-80625000D01*
X116950630Y-80625000D01*
X116855255Y-80650556D01*
X116850274Y-80653431D01*
X116827786Y-80511445D01*
X116773042Y-80342958D01*
X116763514Y-80324258D01*
X116750000Y-80267965D01*
X116750000Y-79450000D01*
X116430070Y-79450000D01*
X116295858Y-79465122D01*
X116125698Y-79524663D01*
X115973051Y-79620577D01*
X115973046Y-79620581D01*
X115971631Y-79621997D01*
X115970492Y-79622618D01*
X115967609Y-79624918D01*
X115967206Y-79624412D01*
X115910306Y-79655477D01*
X115864558Y-79656782D01*
X115818583Y-79649500D01*
X115818579Y-79649500D01*
X115641421Y-79649500D01*
X115604082Y-79655413D01*
X115466435Y-79677215D01*
X115463432Y-79677936D01*
X115462257Y-79677877D01*
X115461633Y-79677976D01*
X115461612Y-79677844D01*
X115393650Y-79674437D01*
X115336838Y-79633766D01*
X115311032Y-79568837D01*
X115310500Y-79557359D01*
X115310500Y-79376232D01*
X115310499Y-79376228D01*
X115277817Y-79211925D01*
X115277816Y-79211918D01*
X115244679Y-79131919D01*
X115213704Y-79057137D01*
X115120626Y-78917838D01*
X115120622Y-78917834D01*
X115120620Y-78917831D01*
X113266819Y-77064030D01*
X113233334Y-77002707D01*
X113230500Y-76976349D01*
X113230500Y-75540048D01*
X113250185Y-75473009D01*
X113266814Y-75452371D01*
X113380047Y-75339139D01*
X113510568Y-75152734D01*
X113606739Y-74946496D01*
X113665635Y-74726692D01*
X113685468Y-74500000D01*
X113685468Y-74499998D01*
X118694532Y-74499998D01*
X118694532Y-74500001D01*
X118714364Y-74726686D01*
X118714366Y-74726697D01*
X118773258Y-74946488D01*
X118773261Y-74946497D01*
X118869431Y-75152732D01*
X118869432Y-75152734D01*
X118999954Y-75339141D01*
X119160858Y-75500045D01*
X119160861Y-75500047D01*
X119347266Y-75630568D01*
X119553504Y-75726739D01*
X119773308Y-75785635D01*
X119935230Y-75799801D01*
X119999998Y-75805468D01*
X120000000Y-75805468D01*
X120000002Y-75805468D01*
X120056673Y-75800509D01*
X120226692Y-75785635D01*
X120446496Y-75726739D01*
X120652734Y-75630568D01*
X120839139Y-75500047D01*
X121000047Y-75339139D01*
X121130568Y-75152734D01*
X121226739Y-74946496D01*
X121285635Y-74726692D01*
X121305468Y-74500000D01*
X121302246Y-74463181D01*
X121316011Y-74394685D01*
X121338087Y-74364701D01*
X121660627Y-74042162D01*
X121753704Y-73902862D01*
X121817816Y-73748081D01*
X121850500Y-73583766D01*
X121850500Y-73416233D01*
X121850500Y-69724499D01*
X121870185Y-69657460D01*
X121922989Y-69611705D01*
X121974500Y-69600499D01*
X122039363Y-69600499D01*
X122156753Y-69585046D01*
X122156757Y-69585044D01*
X122156762Y-69585044D01*
X122302841Y-69524536D01*
X122428282Y-69428282D01*
X122524536Y-69302841D01*
X122585044Y-69156762D01*
X122600500Y-69039361D01*
X122600499Y-66960645D01*
X126399500Y-66960645D01*
X126399500Y-69039363D01*
X126414953Y-69156753D01*
X126414956Y-69156762D01*
X126475464Y-69302841D01*
X126571718Y-69428282D01*
X126697159Y-69524536D01*
X126843238Y-69585044D01*
X126960639Y-69600500D01*
X127025500Y-69600499D01*
X127092538Y-69620183D01*
X127138294Y-69672986D01*
X127149500Y-69724499D01*
X127149500Y-76459951D01*
X127129815Y-76526990D01*
X127113181Y-76547632D01*
X126999954Y-76660858D01*
X126869432Y-76847265D01*
X126869431Y-76847267D01*
X126773261Y-77053502D01*
X126773258Y-77053511D01*
X126714366Y-77273302D01*
X126714364Y-77273313D01*
X126694532Y-77499998D01*
X126694532Y-77500001D01*
X126714364Y-77726686D01*
X126714366Y-77726697D01*
X126773258Y-77946488D01*
X126773261Y-77946497D01*
X126869431Y-78152732D01*
X126869432Y-78152734D01*
X126999954Y-78339141D01*
X127160858Y-78500045D01*
X127160861Y-78500047D01*
X127347266Y-78630568D01*
X127553504Y-78726739D01*
X127773308Y-78785635D01*
X127935230Y-78799801D01*
X127999998Y-78805468D01*
X128000000Y-78805468D01*
X128000002Y-78805468D01*
X128056673Y-78800509D01*
X128226692Y-78785635D01*
X128446496Y-78726739D01*
X128652734Y-78630568D01*
X128839139Y-78500047D01*
X129000047Y-78339139D01*
X129130568Y-78152734D01*
X129226739Y-77946496D01*
X129285635Y-77726692D01*
X129305468Y-77500000D01*
X129285635Y-77273308D01*
X129240916Y-77106415D01*
X129226741Y-77053511D01*
X129226738Y-77053502D01*
X129130568Y-76847267D01*
X129130567Y-76847265D01*
X129000045Y-76660858D01*
X128886819Y-76547632D01*
X128853334Y-76486309D01*
X128850500Y-76459951D01*
X128850500Y-69724499D01*
X128870185Y-69657460D01*
X128922989Y-69611705D01*
X128974500Y-69600499D01*
X129039363Y-69600499D01*
X129156753Y-69585046D01*
X129156757Y-69585044D01*
X129156762Y-69585044D01*
X129302841Y-69524536D01*
X129428282Y-69428282D01*
X129524536Y-69302841D01*
X129585044Y-69156762D01*
X129600500Y-69039361D01*
X129600499Y-66960640D01*
X129600499Y-66960639D01*
X129600499Y-66960636D01*
X129585046Y-66843246D01*
X129585044Y-66843239D01*
X129585044Y-66843238D01*
X129524536Y-66697159D01*
X129428282Y-66571718D01*
X129302841Y-66475464D01*
X129156762Y-66414956D01*
X129156760Y-66414955D01*
X129039370Y-66399501D01*
X129039367Y-66399500D01*
X129039361Y-66399500D01*
X129039354Y-66399500D01*
X126960636Y-66399500D01*
X126843246Y-66414953D01*
X126843237Y-66414956D01*
X126697160Y-66475463D01*
X126571718Y-66571718D01*
X126475463Y-66697160D01*
X126414956Y-66843237D01*
X126414955Y-66843239D01*
X126400233Y-66955069D01*
X126399501Y-66960636D01*
X126399500Y-66960645D01*
X122600499Y-66960645D01*
X122600499Y-66960640D01*
X122600499Y-66960639D01*
X122600499Y-66960636D01*
X122585046Y-66843246D01*
X122585044Y-66843239D01*
X122585044Y-66843238D01*
X122524536Y-66697159D01*
X122428282Y-66571718D01*
X122302841Y-66475464D01*
X122156762Y-66414956D01*
X122156760Y-66414955D01*
X122039370Y-66399501D01*
X122039367Y-66399500D01*
X122039361Y-66399500D01*
X122039354Y-66399500D01*
X119960636Y-66399500D01*
X119843246Y-66414953D01*
X119843237Y-66414956D01*
X119697160Y-66475463D01*
X119571718Y-66571718D01*
X119475463Y-66697160D01*
X119414956Y-66843237D01*
X119414955Y-66843239D01*
X119400233Y-66955069D01*
X119399501Y-66960636D01*
X119399500Y-66960645D01*
X119399500Y-69039363D01*
X119414953Y-69156753D01*
X119414956Y-69156762D01*
X119475464Y-69302841D01*
X119571718Y-69428282D01*
X119697159Y-69524536D01*
X119843238Y-69585044D01*
X119960639Y-69600500D01*
X120025500Y-69600499D01*
X120092538Y-69620183D01*
X120138294Y-69672986D01*
X120149500Y-69724499D01*
X120149500Y-73072289D01*
X120129815Y-73139328D01*
X120077011Y-73185083D01*
X120014695Y-73195817D01*
X120000004Y-73194532D01*
X119999998Y-73194532D01*
X119773313Y-73214364D01*
X119773302Y-73214366D01*
X119553511Y-73273258D01*
X119553502Y-73273261D01*
X119347267Y-73369431D01*
X119347265Y-73369432D01*
X119160858Y-73499954D01*
X118999954Y-73660858D01*
X118869432Y-73847265D01*
X118869431Y-73847267D01*
X118773261Y-74053502D01*
X118773258Y-74053511D01*
X118714366Y-74273302D01*
X118714364Y-74273313D01*
X118694532Y-74499998D01*
X113685468Y-74499998D01*
X113665635Y-74273308D01*
X113606739Y-74053504D01*
X113510568Y-73847266D01*
X113380047Y-73660861D01*
X113380045Y-73660858D01*
X113219141Y-73499954D01*
X113032734Y-73369432D01*
X113032732Y-73369431D01*
X112826497Y-73273261D01*
X112826488Y-73273258D01*
X112606697Y-73214366D01*
X112606693Y-73214365D01*
X112606692Y-73214365D01*
X112606691Y-73214364D01*
X112606686Y-73214364D01*
X112380002Y-73194532D01*
X112379998Y-73194532D01*
X112153313Y-73214364D01*
X112153302Y-73214366D01*
X111933511Y-73273258D01*
X111933502Y-73273261D01*
X111727267Y-73369431D01*
X111727265Y-73369432D01*
X111540858Y-73499954D01*
X111379954Y-73660858D01*
X111249432Y-73847265D01*
X111249431Y-73847267D01*
X111153261Y-74053502D01*
X111153258Y-74053511D01*
X111094366Y-74273302D01*
X111094364Y-74273313D01*
X111074532Y-74499998D01*
X111074532Y-74500001D01*
X111094364Y-74726686D01*
X111094366Y-74726697D01*
X111153258Y-74946488D01*
X111153261Y-74946497D01*
X111249431Y-75152732D01*
X111249432Y-75152734D01*
X111379951Y-75339137D01*
X111379952Y-75339138D01*
X111379953Y-75339139D01*
X111493182Y-75452368D01*
X111526666Y-75513689D01*
X111529500Y-75540048D01*
X111529500Y-77463771D01*
X111555328Y-77593617D01*
X111562181Y-77628074D01*
X111562184Y-77628083D01*
X111626296Y-77782863D01*
X111626297Y-77782866D01*
X111719372Y-77922161D01*
X111719375Y-77922165D01*
X113573181Y-79775969D01*
X113606666Y-79837292D01*
X113609500Y-79863650D01*
X113609500Y-79990508D01*
X113589815Y-80057547D01*
X113585818Y-80063393D01*
X113497388Y-80185106D01*
X113416957Y-80342957D01*
X113416956Y-80342960D01*
X113362214Y-80511443D01*
X113334500Y-80686421D01*
X113334500Y-81313578D01*
X113362214Y-81488556D01*
X113416956Y-81657039D01*
X113416957Y-81657042D01*
X113466208Y-81753701D01*
X113497386Y-81814890D01*
X113601517Y-81958214D01*
X113726786Y-82083483D01*
X113870110Y-82187614D01*
X113933516Y-82219921D01*
X114027957Y-82268042D01*
X114027960Y-82268043D01*
X114112201Y-82295414D01*
X114196445Y-82322786D01*
X114371421Y-82350500D01*
X114371422Y-82350500D01*
X114548578Y-82350500D01*
X114548579Y-82350500D01*
X114723555Y-82322786D01*
X114750756Y-82313947D01*
X114820596Y-82311953D01*
X114880429Y-82348033D01*
X114911258Y-82410734D01*
X114913074Y-82431879D01*
X114913074Y-86575580D01*
X114893389Y-86642619D01*
X114876755Y-86663261D01*
X114811207Y-86728809D01*
X114749884Y-86762294D01*
X114723526Y-86765128D01*
X111800600Y-86765128D01*
X111636297Y-86797810D01*
X111636285Y-86797813D01*
X111590955Y-86816590D01*
X111481515Y-86861920D01*
X111481502Y-86861927D01*
X111342210Y-86955000D01*
X111342206Y-86955003D01*
X108305763Y-89991447D01*
X108244440Y-90024932D01*
X108174748Y-90019948D01*
X108118815Y-89978076D01*
X108095143Y-89919950D01*
X108085045Y-89843245D01*
X108085044Y-89843244D01*
X108085044Y-89843238D01*
X108024536Y-89697159D01*
X107928282Y-89571718D01*
X107802841Y-89475464D01*
X107656762Y-89414956D01*
X107656760Y-89414955D01*
X107539370Y-89399501D01*
X107539367Y-89399500D01*
X107539361Y-89399500D01*
X107539354Y-89399500D01*
X105460636Y-89399500D01*
X105343246Y-89414953D01*
X105343237Y-89414956D01*
X105197160Y-89475463D01*
X105071718Y-89571718D01*
X104975463Y-89697160D01*
X104914956Y-89843237D01*
X104914955Y-89843239D01*
X104899501Y-89960629D01*
X104899500Y-89960645D01*
X104000500Y-89960645D01*
X104000500Y-85460645D01*
X104899500Y-85460645D01*
X104899500Y-87539363D01*
X104914953Y-87656753D01*
X104914956Y-87656762D01*
X104943919Y-87726686D01*
X104975464Y-87802841D01*
X105071718Y-87928282D01*
X105197159Y-88024536D01*
X105343238Y-88085044D01*
X105460639Y-88100500D01*
X107539360Y-88100499D01*
X107539363Y-88100499D01*
X107656753Y-88085046D01*
X107656757Y-88085044D01*
X107656762Y-88085044D01*
X107802841Y-88024536D01*
X107928282Y-87928282D01*
X108024536Y-87802841D01*
X108085044Y-87656762D01*
X108100500Y-87539361D01*
X108100499Y-87153649D01*
X108120183Y-87086611D01*
X108136813Y-87065974D01*
X108890627Y-86312162D01*
X108983704Y-86172863D01*
X109029035Y-86063418D01*
X109029037Y-86063417D01*
X109047815Y-86018084D01*
X109047818Y-86018074D01*
X109080499Y-85853771D01*
X109080500Y-85853768D01*
X109080500Y-82674000D01*
X109100185Y-82606961D01*
X109152989Y-82561206D01*
X109204500Y-82550000D01*
X109250000Y-82550000D01*
X109250000Y-81732034D01*
X109263516Y-81675737D01*
X109271215Y-81660627D01*
X109273042Y-81657042D01*
X109327786Y-81488555D01*
X109350274Y-81346568D01*
X109355255Y-81349444D01*
X109450630Y-81375000D01*
X109549370Y-81375000D01*
X109644745Y-81349444D01*
X109730255Y-81300075D01*
X109750000Y-81280330D01*
X109750000Y-82550000D01*
X110069930Y-82550000D01*
X110069930Y-82549999D01*
X110204141Y-82534877D01*
X110374301Y-82475336D01*
X110526948Y-82379422D01*
X110654422Y-82251948D01*
X110750336Y-82099301D01*
X110809877Y-81929141D01*
X110824999Y-81794930D01*
X110825000Y-81794930D01*
X110825000Y-81250000D01*
X109780330Y-81250000D01*
X109800075Y-81230255D01*
X109849444Y-81144745D01*
X109875000Y-81049370D01*
X109875000Y-80950630D01*
X109849444Y-80855255D01*
X109800075Y-80769745D01*
X109780330Y-80750000D01*
X110825000Y-80750000D01*
X110825000Y-80205070D01*
X110824999Y-80205069D01*
X110809877Y-80070858D01*
X110750336Y-79900698D01*
X110654422Y-79748051D01*
X110526948Y-79620577D01*
X110374301Y-79524663D01*
X110204141Y-79465122D01*
X110069930Y-79450000D01*
X109750000Y-79450000D01*
X109750000Y-80719670D01*
X109730255Y-80699925D01*
X109644745Y-80650556D01*
X109549370Y-80625000D01*
X109450630Y-80625000D01*
X109355255Y-80650556D01*
X109350274Y-80653431D01*
X109327786Y-80511445D01*
X109273042Y-80342958D01*
X109263514Y-80324258D01*
X109250000Y-80267965D01*
X109250000Y-79450000D01*
X108930070Y-79450000D01*
X108795858Y-79465122D01*
X108625698Y-79524663D01*
X108473051Y-79620577D01*
X108473046Y-79620581D01*
X108471631Y-79621997D01*
X108470492Y-79622618D01*
X108467609Y-79624918D01*
X108467206Y-79624412D01*
X108410306Y-79655477D01*
X108364558Y-79656782D01*
X108318583Y-79649500D01*
X108318579Y-79649500D01*
X108141421Y-79649500D01*
X108104082Y-79655413D01*
X107966435Y-79677215D01*
X107963432Y-79677936D01*
X107962257Y-79677877D01*
X107961633Y-79677976D01*
X107961612Y-79677844D01*
X107893650Y-79674437D01*
X107836838Y-79633766D01*
X107811032Y-79568837D01*
X107810500Y-79557359D01*
X107810500Y-72580049D01*
X107830185Y-72513010D01*
X107846819Y-72492368D01*
X108000045Y-72339141D01*
X108000047Y-72339139D01*
X108130568Y-72152734D01*
X108226739Y-71946496D01*
X108285635Y-71726692D01*
X108305468Y-71500000D01*
X108305468Y-71499998D01*
X113314532Y-71499998D01*
X113314532Y-71500001D01*
X113334364Y-71726686D01*
X113334366Y-71726697D01*
X113393258Y-71946488D01*
X113393261Y-71946497D01*
X113489431Y-72152732D01*
X113489432Y-72152734D01*
X113619954Y-72339141D01*
X113780858Y-72500045D01*
X113780861Y-72500047D01*
X113967266Y-72630568D01*
X114173504Y-72726739D01*
X114393308Y-72785635D01*
X114555230Y-72799801D01*
X114619998Y-72805468D01*
X114620000Y-72805468D01*
X114620002Y-72805468D01*
X114676673Y-72800509D01*
X114846692Y-72785635D01*
X115066496Y-72726739D01*
X115272734Y-72630568D01*
X115459139Y-72500047D01*
X115620047Y-72339139D01*
X115750568Y-72152734D01*
X115846739Y-71946496D01*
X115905635Y-71726692D01*
X115925468Y-71500000D01*
X115905635Y-71273308D01*
X115854725Y-71083308D01*
X115850500Y-71051215D01*
X115850500Y-69724499D01*
X115870185Y-69657460D01*
X115922989Y-69611705D01*
X115974500Y-69600499D01*
X116039363Y-69600499D01*
X116156753Y-69585046D01*
X116156757Y-69585044D01*
X116156762Y-69585044D01*
X116302841Y-69524536D01*
X116428282Y-69428282D01*
X116524536Y-69302841D01*
X116585044Y-69156762D01*
X116600500Y-69039361D01*
X116600499Y-66960640D01*
X116600499Y-66960639D01*
X116600499Y-66960636D01*
X116585046Y-66843246D01*
X116585044Y-66843239D01*
X116585044Y-66843238D01*
X116524536Y-66697159D01*
X116428282Y-66571718D01*
X116302841Y-66475464D01*
X116156762Y-66414956D01*
X116156760Y-66414955D01*
X116039370Y-66399501D01*
X116039367Y-66399500D01*
X116039361Y-66399500D01*
X116039354Y-66399500D01*
X113960636Y-66399500D01*
X113843246Y-66414953D01*
X113843237Y-66414956D01*
X113697160Y-66475463D01*
X113571718Y-66571718D01*
X113475463Y-66697160D01*
X113414956Y-66843237D01*
X113414955Y-66843239D01*
X113400233Y-66955069D01*
X113399501Y-66960636D01*
X113399500Y-66960645D01*
X113399500Y-69039363D01*
X113414953Y-69156753D01*
X113414956Y-69156762D01*
X113475464Y-69302841D01*
X113571718Y-69428282D01*
X113697159Y-69524536D01*
X113843238Y-69585044D01*
X113960639Y-69600500D01*
X114025500Y-69600499D01*
X114092538Y-69620183D01*
X114138294Y-69672986D01*
X114149500Y-69724499D01*
X114149500Y-70205457D01*
X114129815Y-70272496D01*
X114077905Y-70317839D01*
X113967268Y-70369430D01*
X113780858Y-70499954D01*
X113619954Y-70660858D01*
X113489432Y-70847265D01*
X113489431Y-70847267D01*
X113393261Y-71053502D01*
X113393258Y-71053511D01*
X113334366Y-71273302D01*
X113334364Y-71273313D01*
X113314532Y-71499998D01*
X108305468Y-71499998D01*
X108285635Y-71273308D01*
X108226739Y-71053504D01*
X108130568Y-70847266D01*
X108000047Y-70660861D01*
X108000045Y-70660858D01*
X107839141Y-70499954D01*
X107652734Y-70369432D01*
X107652732Y-70369431D01*
X107446497Y-70273261D01*
X107446488Y-70273258D01*
X107226697Y-70214366D01*
X107226693Y-70214365D01*
X107226692Y-70214365D01*
X107226691Y-70214364D01*
X107226686Y-70214364D01*
X107000002Y-70194532D01*
X106999998Y-70194532D01*
X106773313Y-70214364D01*
X106773302Y-70214366D01*
X106553511Y-70273258D01*
X106553502Y-70273261D01*
X106347267Y-70369431D01*
X106347265Y-70369432D01*
X106160858Y-70499954D01*
X105999954Y-70660858D01*
X105869432Y-70847265D01*
X105869431Y-70847267D01*
X105773261Y-71053502D01*
X105773258Y-71053511D01*
X105714366Y-71273302D01*
X105714364Y-71273313D01*
X105694532Y-71499998D01*
X105694532Y-71500001D01*
X105714364Y-71726686D01*
X105714366Y-71726697D01*
X105773258Y-71946488D01*
X105773261Y-71946497D01*
X105869431Y-72152732D01*
X105869432Y-72152734D01*
X105999951Y-72339137D01*
X105999952Y-72339138D01*
X105999953Y-72339139D01*
X106073182Y-72412368D01*
X106106666Y-72473689D01*
X106109500Y-72500048D01*
X106109500Y-79990508D01*
X106089815Y-80057547D01*
X106085818Y-80063393D01*
X105997388Y-80185106D01*
X105916957Y-80342957D01*
X105916956Y-80342960D01*
X105862214Y-80511443D01*
X105834500Y-80686421D01*
X105834500Y-81313578D01*
X105862214Y-81488556D01*
X105916956Y-81657039D01*
X105916957Y-81657042D01*
X105966208Y-81753701D01*
X105997386Y-81814890D01*
X106101517Y-81958214D01*
X106226786Y-82083483D01*
X106370110Y-82187614D01*
X106433516Y-82219921D01*
X106527957Y-82268042D01*
X106527960Y-82268043D01*
X106612201Y-82295414D01*
X106696445Y-82322786D01*
X106871421Y-82350500D01*
X106871422Y-82350500D01*
X107048578Y-82350500D01*
X107048579Y-82350500D01*
X107223555Y-82322786D01*
X107223569Y-82322781D01*
X107226553Y-82322066D01*
X107227730Y-82322124D01*
X107228367Y-82322024D01*
X107228388Y-82322157D01*
X107296335Y-82325557D01*
X107353153Y-82366221D01*
X107378966Y-82431147D01*
X107379500Y-82442640D01*
X107379500Y-84775500D01*
X107359815Y-84842539D01*
X107307011Y-84888294D01*
X107255500Y-84899500D01*
X105460636Y-84899500D01*
X105343246Y-84914953D01*
X105343237Y-84914956D01*
X105197160Y-84975463D01*
X105071718Y-85071718D01*
X104975463Y-85197160D01*
X104914956Y-85343237D01*
X104914955Y-85343239D01*
X104899501Y-85460629D01*
X104899500Y-85460645D01*
X104000500Y-85460645D01*
X104000500Y-66955069D01*
X105700000Y-66955069D01*
X105700000Y-67750000D01*
X107066988Y-67750000D01*
X107034075Y-67807007D01*
X107000000Y-67934174D01*
X107000000Y-68065826D01*
X107034075Y-68192993D01*
X107066988Y-68250000D01*
X105700000Y-68250000D01*
X105700000Y-69044930D01*
X105715122Y-69179141D01*
X105774663Y-69349301D01*
X105870577Y-69501948D01*
X105998051Y-69629422D01*
X106150698Y-69725336D01*
X106320858Y-69784877D01*
X106455069Y-69799999D01*
X106455070Y-69800000D01*
X107250000Y-69800000D01*
X107250000Y-68433012D01*
X107307007Y-68465925D01*
X107434174Y-68500000D01*
X107565826Y-68500000D01*
X107692993Y-68465925D01*
X107750000Y-68433012D01*
X107750000Y-69800000D01*
X108544930Y-69800000D01*
X108544930Y-69799999D01*
X108679141Y-69784877D01*
X108849301Y-69725336D01*
X109001948Y-69629422D01*
X109129422Y-69501948D01*
X109225336Y-69349301D01*
X109284877Y-69179141D01*
X109299999Y-69044930D01*
X109300000Y-69044930D01*
X109300000Y-68250000D01*
X107933012Y-68250000D01*
X107965925Y-68192993D01*
X108000000Y-68065826D01*
X108000000Y-67934174D01*
X107965925Y-67807007D01*
X107933012Y-67750000D01*
X109300000Y-67750000D01*
X109300000Y-66955070D01*
X109299999Y-66955069D01*
X109284877Y-66820858D01*
X109225336Y-66650698D01*
X109129422Y-66498051D01*
X109001948Y-66370577D01*
X108849301Y-66274663D01*
X108679141Y-66215122D01*
X108544930Y-66200000D01*
X107750000Y-66200000D01*
X107750000Y-67566988D01*
X107692993Y-67534075D01*
X107565826Y-67500000D01*
X107434174Y-67500000D01*
X107307007Y-67534075D01*
X107250000Y-67566988D01*
X107250000Y-66200000D01*
X106455070Y-66200000D01*
X106320858Y-66215122D01*
X106150698Y-66274663D01*
X105998051Y-66370577D01*
X105870577Y-66498051D01*
X105774663Y-66650698D01*
X105715122Y-66820858D01*
X105700000Y-66955069D01*
X104000500Y-66955069D01*
X104000500Y-64124500D01*
X104020185Y-64057461D01*
X104072989Y-64011706D01*
X104124500Y-64000500D01*
X131375500Y-64000500D01*
X131442539Y-64020185D01*
G37*
%TD.AperFunction*%
%TD*%
M02*
