%TF.GenerationSoftware,KiCad,Pcbnew,8.0.6*%
%TF.CreationDate,2024-11-17T15:46:40-03:00*%
%TF.ProjectId,canon+GH4,63616e6f-6e2b-4474-9834-2e6b69636164,rev?*%
%TF.SameCoordinates,Original*%
%TF.FileFunction,Drillmap*%
%TF.FilePolarity,Positive*%
%FSLAX45Y45*%
G04 Gerber Fmt 4.5, Leading zero omitted, Abs format (unit mm)*
G04 Created by KiCad (PCBNEW 8.0.6) date 2024-11-17 15:46:40*
%MOMM*%
%LPD*%
G01*
G04 APERTURE LIST*
%ADD10C,0.050000*%
%ADD11C,0.200000*%
%ADD12C,0.100000*%
G04 APERTURE END LIST*
D10*
X13200000Y-10300000D02*
X10350000Y-10300000D01*
X13200000Y-6350000D02*
X10350000Y-6350000D01*
X10350000Y-6350000D02*
X10350000Y-10300000D01*
X13200000Y-6350000D02*
X13200000Y-10300000D01*
D11*
D12*
X10665000Y-7115000D02*
X10735000Y-7185000D01*
X10735000Y-7115000D02*
X10665000Y-7185000D01*
X11203000Y-7415000D02*
X11273000Y-7485000D01*
X11273000Y-7415000D02*
X11203000Y-7485000D01*
X11427000Y-7115000D02*
X11497000Y-7185000D01*
X11497000Y-7115000D02*
X11427000Y-7185000D01*
X11965000Y-7415000D02*
X12035000Y-7485000D01*
X12035000Y-7415000D02*
X11965000Y-7485000D01*
X12003000Y-7715000D02*
X12073000Y-7785000D01*
X12073000Y-7715000D02*
X12003000Y-7785000D01*
X12215000Y-8715000D02*
X12285000Y-8785000D01*
X12285000Y-8715000D02*
X12215000Y-8785000D01*
X12215000Y-9477000D02*
X12285000Y-9547000D01*
X12285000Y-9477000D02*
X12215000Y-9547000D01*
X12565000Y-8715000D02*
X12635000Y-8785000D01*
X12635000Y-8715000D02*
X12565000Y-8785000D01*
X12565000Y-9477000D02*
X12635000Y-9547000D01*
X12635000Y-9477000D02*
X12565000Y-9547000D01*
X12765000Y-7715000D02*
X12835000Y-7785000D01*
X12835000Y-7715000D02*
X12765000Y-7785000D01*
X12915000Y-8715000D02*
X12985000Y-8785000D01*
X12985000Y-8715000D02*
X12915000Y-8785000D01*
X12915000Y-9477000D02*
X12985000Y-9547000D01*
X12985000Y-9477000D02*
X12915000Y-9547000D01*
X10733500Y-8700000D02*
G75*
G02*
X10658500Y-8700000I-37500J0D01*
G01*
X10658500Y-8700000D02*
G75*
G02*
X10733500Y-8700000I37500J0D01*
G01*
X10860500Y-8700000D02*
G75*
G02*
X10785500Y-8700000I-37500J0D01*
G01*
X10785500Y-8700000D02*
G75*
G02*
X10860500Y-8700000I37500J0D01*
G01*
X10987500Y-8700000D02*
G75*
G02*
X10912500Y-8700000I-37500J0D01*
G01*
X10912500Y-8700000D02*
G75*
G02*
X10987500Y-8700000I37500J0D01*
G01*
X11483500Y-8700000D02*
G75*
G02*
X11408500Y-8700000I-37500J0D01*
G01*
X11408500Y-8700000D02*
G75*
G02*
X11483500Y-8700000I37500J0D01*
G01*
X11610500Y-8700000D02*
G75*
G02*
X11535500Y-8700000I-37500J0D01*
G01*
X11535500Y-8700000D02*
G75*
G02*
X11610500Y-8700000I37500J0D01*
G01*
X11737500Y-8700000D02*
G75*
G02*
X11662500Y-8700000I-37500J0D01*
G01*
X11662500Y-8700000D02*
G75*
G02*
X11737500Y-8700000I37500J0D01*
G01*
X12733500Y-8100000D02*
G75*
G02*
X12658500Y-8100000I-37500J0D01*
G01*
X12658500Y-8100000D02*
G75*
G02*
X12733500Y-8100000I37500J0D01*
G01*
X12860500Y-8100000D02*
G75*
G02*
X12785500Y-8100000I-37500J0D01*
G01*
X12785500Y-8100000D02*
G75*
G02*
X12860500Y-8100000I37500J0D01*
G01*
X12987500Y-8100000D02*
G75*
G02*
X12912500Y-8100000I-37500J0D01*
G01*
X12912500Y-8100000D02*
G75*
G02*
X12987500Y-8100000I37500J0D01*
G01*
X10750000Y-6750000D02*
X10750000Y-6850000D01*
X10700000Y-6800000D02*
X10800000Y-6800000D01*
X10750000Y-9800000D02*
X10750000Y-9900000D01*
X10700000Y-9850000D02*
X10800000Y-9850000D01*
X11500000Y-6750000D02*
X11500000Y-6850000D01*
X11450000Y-6800000D02*
X11550000Y-6800000D01*
X11500000Y-9800000D02*
X11500000Y-9900000D01*
X11450000Y-9850000D02*
X11550000Y-9850000D01*
X12100000Y-6750000D02*
X12100000Y-6850000D01*
X12050000Y-6800000D02*
X12150000Y-6800000D01*
X12100000Y-9800000D02*
X12100000Y-9900000D01*
X12050000Y-9850000D02*
X12150000Y-9850000D01*
X12800000Y-6750000D02*
X12800000Y-6850000D01*
X12750000Y-6800000D02*
X12850000Y-6800000D01*
D11*
X10608277Y-10613984D02*
X10608277Y-10413984D01*
X10608277Y-10413984D02*
X10655896Y-10413984D01*
X10655896Y-10413984D02*
X10684467Y-10423508D01*
X10684467Y-10423508D02*
X10703515Y-10442555D01*
X10703515Y-10442555D02*
X10713039Y-10461603D01*
X10713039Y-10461603D02*
X10722563Y-10499698D01*
X10722563Y-10499698D02*
X10722563Y-10528270D01*
X10722563Y-10528270D02*
X10713039Y-10566365D01*
X10713039Y-10566365D02*
X10703515Y-10585412D01*
X10703515Y-10585412D02*
X10684467Y-10604460D01*
X10684467Y-10604460D02*
X10655896Y-10613984D01*
X10655896Y-10613984D02*
X10608277Y-10613984D01*
X10808277Y-10613984D02*
X10808277Y-10480650D01*
X10808277Y-10518746D02*
X10817801Y-10499698D01*
X10817801Y-10499698D02*
X10827324Y-10490174D01*
X10827324Y-10490174D02*
X10846372Y-10480650D01*
X10846372Y-10480650D02*
X10865420Y-10480650D01*
X10932086Y-10613984D02*
X10932086Y-10480650D01*
X10932086Y-10413984D02*
X10922563Y-10423508D01*
X10922563Y-10423508D02*
X10932086Y-10433031D01*
X10932086Y-10433031D02*
X10941610Y-10423508D01*
X10941610Y-10423508D02*
X10932086Y-10413984D01*
X10932086Y-10413984D02*
X10932086Y-10433031D01*
X11055896Y-10613984D02*
X11036848Y-10604460D01*
X11036848Y-10604460D02*
X11027324Y-10585412D01*
X11027324Y-10585412D02*
X11027324Y-10413984D01*
X11160658Y-10613984D02*
X11141610Y-10604460D01*
X11141610Y-10604460D02*
X11132086Y-10585412D01*
X11132086Y-10585412D02*
X11132086Y-10413984D01*
X11389229Y-10613984D02*
X11389229Y-10413984D01*
X11389229Y-10413984D02*
X11455896Y-10556841D01*
X11455896Y-10556841D02*
X11522562Y-10413984D01*
X11522562Y-10413984D02*
X11522562Y-10613984D01*
X11703515Y-10613984D02*
X11703515Y-10509222D01*
X11703515Y-10509222D02*
X11693991Y-10490174D01*
X11693991Y-10490174D02*
X11674943Y-10480650D01*
X11674943Y-10480650D02*
X11636848Y-10480650D01*
X11636848Y-10480650D02*
X11617801Y-10490174D01*
X11703515Y-10604460D02*
X11684467Y-10613984D01*
X11684467Y-10613984D02*
X11636848Y-10613984D01*
X11636848Y-10613984D02*
X11617801Y-10604460D01*
X11617801Y-10604460D02*
X11608277Y-10585412D01*
X11608277Y-10585412D02*
X11608277Y-10566365D01*
X11608277Y-10566365D02*
X11617801Y-10547317D01*
X11617801Y-10547317D02*
X11636848Y-10537793D01*
X11636848Y-10537793D02*
X11684467Y-10537793D01*
X11684467Y-10537793D02*
X11703515Y-10528270D01*
X11798753Y-10480650D02*
X11798753Y-10680650D01*
X11798753Y-10490174D02*
X11817801Y-10480650D01*
X11817801Y-10480650D02*
X11855896Y-10480650D01*
X11855896Y-10480650D02*
X11874943Y-10490174D01*
X11874943Y-10490174D02*
X11884467Y-10499698D01*
X11884467Y-10499698D02*
X11893991Y-10518746D01*
X11893991Y-10518746D02*
X11893991Y-10575889D01*
X11893991Y-10575889D02*
X11884467Y-10594936D01*
X11884467Y-10594936D02*
X11874943Y-10604460D01*
X11874943Y-10604460D02*
X11855896Y-10613984D01*
X11855896Y-10613984D02*
X11817801Y-10613984D01*
X11817801Y-10613984D02*
X11798753Y-10604460D01*
X11979705Y-10594936D02*
X11989229Y-10604460D01*
X11989229Y-10604460D02*
X11979705Y-10613984D01*
X11979705Y-10613984D02*
X11970182Y-10604460D01*
X11970182Y-10604460D02*
X11979705Y-10594936D01*
X11979705Y-10594936D02*
X11979705Y-10613984D01*
X11979705Y-10490174D02*
X11989229Y-10499698D01*
X11989229Y-10499698D02*
X11979705Y-10509222D01*
X11979705Y-10509222D02*
X11970182Y-10499698D01*
X11970182Y-10499698D02*
X11979705Y-10490174D01*
X11979705Y-10490174D02*
X11979705Y-10509222D01*
D12*
X10277500Y-10907500D02*
X10347500Y-10977500D01*
X10347500Y-10907500D02*
X10277500Y-10977500D01*
D11*
X10646372Y-10833984D02*
X10665420Y-10833984D01*
X10665420Y-10833984D02*
X10684467Y-10843508D01*
X10684467Y-10843508D02*
X10693991Y-10853031D01*
X10693991Y-10853031D02*
X10703515Y-10872079D01*
X10703515Y-10872079D02*
X10713039Y-10910174D01*
X10713039Y-10910174D02*
X10713039Y-10957793D01*
X10713039Y-10957793D02*
X10703515Y-10995889D01*
X10703515Y-10995889D02*
X10693991Y-11014936D01*
X10693991Y-11014936D02*
X10684467Y-11024460D01*
X10684467Y-11024460D02*
X10665420Y-11033984D01*
X10665420Y-11033984D02*
X10646372Y-11033984D01*
X10646372Y-11033984D02*
X10627324Y-11024460D01*
X10627324Y-11024460D02*
X10617801Y-11014936D01*
X10617801Y-11014936D02*
X10608277Y-10995889D01*
X10608277Y-10995889D02*
X10598753Y-10957793D01*
X10598753Y-10957793D02*
X10598753Y-10910174D01*
X10598753Y-10910174D02*
X10608277Y-10872079D01*
X10608277Y-10872079D02*
X10617801Y-10853031D01*
X10617801Y-10853031D02*
X10627324Y-10843508D01*
X10627324Y-10843508D02*
X10646372Y-10833984D01*
X10798753Y-11014936D02*
X10808277Y-11024460D01*
X10808277Y-11024460D02*
X10798753Y-11033984D01*
X10798753Y-11033984D02*
X10789229Y-11024460D01*
X10789229Y-11024460D02*
X10798753Y-11014936D01*
X10798753Y-11014936D02*
X10798753Y-11033984D01*
X10874944Y-10833984D02*
X11008277Y-10833984D01*
X11008277Y-10833984D02*
X10922563Y-11033984D01*
X11122563Y-10833984D02*
X11141610Y-10833984D01*
X11141610Y-10833984D02*
X11160658Y-10843508D01*
X11160658Y-10843508D02*
X11170182Y-10853031D01*
X11170182Y-10853031D02*
X11179705Y-10872079D01*
X11179705Y-10872079D02*
X11189229Y-10910174D01*
X11189229Y-10910174D02*
X11189229Y-10957793D01*
X11189229Y-10957793D02*
X11179705Y-10995889D01*
X11179705Y-10995889D02*
X11170182Y-11014936D01*
X11170182Y-11014936D02*
X11160658Y-11024460D01*
X11160658Y-11024460D02*
X11141610Y-11033984D01*
X11141610Y-11033984D02*
X11122563Y-11033984D01*
X11122563Y-11033984D02*
X11103515Y-11024460D01*
X11103515Y-11024460D02*
X11093991Y-11014936D01*
X11093991Y-11014936D02*
X11084467Y-10995889D01*
X11084467Y-10995889D02*
X11074944Y-10957793D01*
X11074944Y-10957793D02*
X11074944Y-10910174D01*
X11074944Y-10910174D02*
X11084467Y-10872079D01*
X11084467Y-10872079D02*
X11093991Y-10853031D01*
X11093991Y-10853031D02*
X11103515Y-10843508D01*
X11103515Y-10843508D02*
X11122563Y-10833984D01*
X11313039Y-10833984D02*
X11332086Y-10833984D01*
X11332086Y-10833984D02*
X11351134Y-10843508D01*
X11351134Y-10843508D02*
X11360658Y-10853031D01*
X11360658Y-10853031D02*
X11370182Y-10872079D01*
X11370182Y-10872079D02*
X11379705Y-10910174D01*
X11379705Y-10910174D02*
X11379705Y-10957793D01*
X11379705Y-10957793D02*
X11370182Y-10995889D01*
X11370182Y-10995889D02*
X11360658Y-11014936D01*
X11360658Y-11014936D02*
X11351134Y-11024460D01*
X11351134Y-11024460D02*
X11332086Y-11033984D01*
X11332086Y-11033984D02*
X11313039Y-11033984D01*
X11313039Y-11033984D02*
X11293991Y-11024460D01*
X11293991Y-11024460D02*
X11284467Y-11014936D01*
X11284467Y-11014936D02*
X11274943Y-10995889D01*
X11274943Y-10995889D02*
X11265420Y-10957793D01*
X11265420Y-10957793D02*
X11265420Y-10910174D01*
X11265420Y-10910174D02*
X11274943Y-10872079D01*
X11274943Y-10872079D02*
X11284467Y-10853031D01*
X11284467Y-10853031D02*
X11293991Y-10843508D01*
X11293991Y-10843508D02*
X11313039Y-10833984D01*
X11465420Y-11033984D02*
X11465420Y-10900650D01*
X11465420Y-10919698D02*
X11474943Y-10910174D01*
X11474943Y-10910174D02*
X11493991Y-10900650D01*
X11493991Y-10900650D02*
X11522563Y-10900650D01*
X11522563Y-10900650D02*
X11541610Y-10910174D01*
X11541610Y-10910174D02*
X11551134Y-10929222D01*
X11551134Y-10929222D02*
X11551134Y-11033984D01*
X11551134Y-10929222D02*
X11560658Y-10910174D01*
X11560658Y-10910174D02*
X11579705Y-10900650D01*
X11579705Y-10900650D02*
X11608277Y-10900650D01*
X11608277Y-10900650D02*
X11627324Y-10910174D01*
X11627324Y-10910174D02*
X11636848Y-10929222D01*
X11636848Y-10929222D02*
X11636848Y-11033984D01*
X11732086Y-11033984D02*
X11732086Y-10900650D01*
X11732086Y-10919698D02*
X11741610Y-10910174D01*
X11741610Y-10910174D02*
X11760658Y-10900650D01*
X11760658Y-10900650D02*
X11789229Y-10900650D01*
X11789229Y-10900650D02*
X11808277Y-10910174D01*
X11808277Y-10910174D02*
X11817801Y-10929222D01*
X11817801Y-10929222D02*
X11817801Y-11033984D01*
X11817801Y-10929222D02*
X11827324Y-10910174D01*
X11827324Y-10910174D02*
X11846372Y-10900650D01*
X11846372Y-10900650D02*
X11874943Y-10900650D01*
X11874943Y-10900650D02*
X11893991Y-10910174D01*
X11893991Y-10910174D02*
X11903515Y-10929222D01*
X11903515Y-10929222D02*
X11903515Y-11033984D01*
X12293991Y-10824460D02*
X12122563Y-11081603D01*
X12551134Y-10833984D02*
X12570182Y-10833984D01*
X12570182Y-10833984D02*
X12589229Y-10843508D01*
X12589229Y-10843508D02*
X12598753Y-10853031D01*
X12598753Y-10853031D02*
X12608277Y-10872079D01*
X12608277Y-10872079D02*
X12617801Y-10910174D01*
X12617801Y-10910174D02*
X12617801Y-10957793D01*
X12617801Y-10957793D02*
X12608277Y-10995889D01*
X12608277Y-10995889D02*
X12598753Y-11014936D01*
X12598753Y-11014936D02*
X12589229Y-11024460D01*
X12589229Y-11024460D02*
X12570182Y-11033984D01*
X12570182Y-11033984D02*
X12551134Y-11033984D01*
X12551134Y-11033984D02*
X12532086Y-11024460D01*
X12532086Y-11024460D02*
X12522563Y-11014936D01*
X12522563Y-11014936D02*
X12513039Y-10995889D01*
X12513039Y-10995889D02*
X12503515Y-10957793D01*
X12503515Y-10957793D02*
X12503515Y-10910174D01*
X12503515Y-10910174D02*
X12513039Y-10872079D01*
X12513039Y-10872079D02*
X12522563Y-10853031D01*
X12522563Y-10853031D02*
X12532086Y-10843508D01*
X12532086Y-10843508D02*
X12551134Y-10833984D01*
X12703515Y-11014936D02*
X12713039Y-11024460D01*
X12713039Y-11024460D02*
X12703515Y-11033984D01*
X12703515Y-11033984D02*
X12693991Y-11024460D01*
X12693991Y-11024460D02*
X12703515Y-11014936D01*
X12703515Y-11014936D02*
X12703515Y-11033984D01*
X12836848Y-10833984D02*
X12855896Y-10833984D01*
X12855896Y-10833984D02*
X12874944Y-10843508D01*
X12874944Y-10843508D02*
X12884467Y-10853031D01*
X12884467Y-10853031D02*
X12893991Y-10872079D01*
X12893991Y-10872079D02*
X12903515Y-10910174D01*
X12903515Y-10910174D02*
X12903515Y-10957793D01*
X12903515Y-10957793D02*
X12893991Y-10995889D01*
X12893991Y-10995889D02*
X12884467Y-11014936D01*
X12884467Y-11014936D02*
X12874944Y-11024460D01*
X12874944Y-11024460D02*
X12855896Y-11033984D01*
X12855896Y-11033984D02*
X12836848Y-11033984D01*
X12836848Y-11033984D02*
X12817801Y-11024460D01*
X12817801Y-11024460D02*
X12808277Y-11014936D01*
X12808277Y-11014936D02*
X12798753Y-10995889D01*
X12798753Y-10995889D02*
X12789229Y-10957793D01*
X12789229Y-10957793D02*
X12789229Y-10910174D01*
X12789229Y-10910174D02*
X12798753Y-10872079D01*
X12798753Y-10872079D02*
X12808277Y-10853031D01*
X12808277Y-10853031D02*
X12817801Y-10843508D01*
X12817801Y-10843508D02*
X12836848Y-10833984D01*
X12979706Y-10853031D02*
X12989229Y-10843508D01*
X12989229Y-10843508D02*
X13008277Y-10833984D01*
X13008277Y-10833984D02*
X13055896Y-10833984D01*
X13055896Y-10833984D02*
X13074944Y-10843508D01*
X13074944Y-10843508D02*
X13084467Y-10853031D01*
X13084467Y-10853031D02*
X13093991Y-10872079D01*
X13093991Y-10872079D02*
X13093991Y-10891127D01*
X13093991Y-10891127D02*
X13084467Y-10919698D01*
X13084467Y-10919698D02*
X12970182Y-11033984D01*
X12970182Y-11033984D02*
X13093991Y-11033984D01*
X13160658Y-10833984D02*
X13293991Y-10833984D01*
X13293991Y-10833984D02*
X13208277Y-11033984D01*
X13455896Y-10833984D02*
X13417801Y-10833984D01*
X13417801Y-10833984D02*
X13398753Y-10843508D01*
X13398753Y-10843508D02*
X13389229Y-10853031D01*
X13389229Y-10853031D02*
X13370182Y-10881603D01*
X13370182Y-10881603D02*
X13360658Y-10919698D01*
X13360658Y-10919698D02*
X13360658Y-10995889D01*
X13360658Y-10995889D02*
X13370182Y-11014936D01*
X13370182Y-11014936D02*
X13379706Y-11024460D01*
X13379706Y-11024460D02*
X13398753Y-11033984D01*
X13398753Y-11033984D02*
X13436848Y-11033984D01*
X13436848Y-11033984D02*
X13455896Y-11024460D01*
X13455896Y-11024460D02*
X13465420Y-11014936D01*
X13465420Y-11014936D02*
X13474944Y-10995889D01*
X13474944Y-10995889D02*
X13474944Y-10948270D01*
X13474944Y-10948270D02*
X13465420Y-10929222D01*
X13465420Y-10929222D02*
X13455896Y-10919698D01*
X13455896Y-10919698D02*
X13436848Y-10910174D01*
X13436848Y-10910174D02*
X13398753Y-10910174D01*
X13398753Y-10910174D02*
X13379706Y-10919698D01*
X13379706Y-10919698D02*
X13370182Y-10929222D01*
X13370182Y-10929222D02*
X13360658Y-10948270D01*
X13551134Y-10833984D02*
X13551134Y-10872079D01*
X13627325Y-10833984D02*
X13627325Y-10872079D01*
X13922563Y-11110174D02*
X13913039Y-11100650D01*
X13913039Y-11100650D02*
X13893991Y-11072079D01*
X13893991Y-11072079D02*
X13884468Y-11053031D01*
X13884468Y-11053031D02*
X13874944Y-11024460D01*
X13874944Y-11024460D02*
X13865420Y-10976841D01*
X13865420Y-10976841D02*
X13865420Y-10938746D01*
X13865420Y-10938746D02*
X13874944Y-10891127D01*
X13874944Y-10891127D02*
X13884468Y-10862555D01*
X13884468Y-10862555D02*
X13893991Y-10843508D01*
X13893991Y-10843508D02*
X13913039Y-10814936D01*
X13913039Y-10814936D02*
X13922563Y-10805412D01*
X14103515Y-11033984D02*
X13989229Y-11033984D01*
X14046372Y-11033984D02*
X14046372Y-10833984D01*
X14046372Y-10833984D02*
X14027325Y-10862555D01*
X14027325Y-10862555D02*
X14008277Y-10881603D01*
X14008277Y-10881603D02*
X13989229Y-10891127D01*
X14179706Y-10853031D02*
X14189229Y-10843508D01*
X14189229Y-10843508D02*
X14208277Y-10833984D01*
X14208277Y-10833984D02*
X14255896Y-10833984D01*
X14255896Y-10833984D02*
X14274944Y-10843508D01*
X14274944Y-10843508D02*
X14284468Y-10853031D01*
X14284468Y-10853031D02*
X14293991Y-10872079D01*
X14293991Y-10872079D02*
X14293991Y-10891127D01*
X14293991Y-10891127D02*
X14284468Y-10919698D01*
X14284468Y-10919698D02*
X14170182Y-11033984D01*
X14170182Y-11033984D02*
X14293991Y-11033984D01*
X14532087Y-11033984D02*
X14532087Y-10833984D01*
X14617801Y-11033984D02*
X14617801Y-10929222D01*
X14617801Y-10929222D02*
X14608277Y-10910174D01*
X14608277Y-10910174D02*
X14589230Y-10900650D01*
X14589230Y-10900650D02*
X14560658Y-10900650D01*
X14560658Y-10900650D02*
X14541610Y-10910174D01*
X14541610Y-10910174D02*
X14532087Y-10919698D01*
X14741610Y-11033984D02*
X14722563Y-11024460D01*
X14722563Y-11024460D02*
X14713039Y-11014936D01*
X14713039Y-11014936D02*
X14703515Y-10995889D01*
X14703515Y-10995889D02*
X14703515Y-10938746D01*
X14703515Y-10938746D02*
X14713039Y-10919698D01*
X14713039Y-10919698D02*
X14722563Y-10910174D01*
X14722563Y-10910174D02*
X14741610Y-10900650D01*
X14741610Y-10900650D02*
X14770182Y-10900650D01*
X14770182Y-10900650D02*
X14789230Y-10910174D01*
X14789230Y-10910174D02*
X14798753Y-10919698D01*
X14798753Y-10919698D02*
X14808277Y-10938746D01*
X14808277Y-10938746D02*
X14808277Y-10995889D01*
X14808277Y-10995889D02*
X14798753Y-11014936D01*
X14798753Y-11014936D02*
X14789230Y-11024460D01*
X14789230Y-11024460D02*
X14770182Y-11033984D01*
X14770182Y-11033984D02*
X14741610Y-11033984D01*
X14922563Y-11033984D02*
X14903515Y-11024460D01*
X14903515Y-11024460D02*
X14893991Y-11005412D01*
X14893991Y-11005412D02*
X14893991Y-10833984D01*
X15074944Y-11024460D02*
X15055896Y-11033984D01*
X15055896Y-11033984D02*
X15017801Y-11033984D01*
X15017801Y-11033984D02*
X14998753Y-11024460D01*
X14998753Y-11024460D02*
X14989230Y-11005412D01*
X14989230Y-11005412D02*
X14989230Y-10929222D01*
X14989230Y-10929222D02*
X14998753Y-10910174D01*
X14998753Y-10910174D02*
X15017801Y-10900650D01*
X15017801Y-10900650D02*
X15055896Y-10900650D01*
X15055896Y-10900650D02*
X15074944Y-10910174D01*
X15074944Y-10910174D02*
X15084468Y-10929222D01*
X15084468Y-10929222D02*
X15084468Y-10948270D01*
X15084468Y-10948270D02*
X14989230Y-10967317D01*
X15160658Y-11024460D02*
X15179706Y-11033984D01*
X15179706Y-11033984D02*
X15217801Y-11033984D01*
X15217801Y-11033984D02*
X15236849Y-11024460D01*
X15236849Y-11024460D02*
X15246372Y-11005412D01*
X15246372Y-11005412D02*
X15246372Y-10995889D01*
X15246372Y-10995889D02*
X15236849Y-10976841D01*
X15236849Y-10976841D02*
X15217801Y-10967317D01*
X15217801Y-10967317D02*
X15189230Y-10967317D01*
X15189230Y-10967317D02*
X15170182Y-10957793D01*
X15170182Y-10957793D02*
X15160658Y-10938746D01*
X15160658Y-10938746D02*
X15160658Y-10929222D01*
X15160658Y-10929222D02*
X15170182Y-10910174D01*
X15170182Y-10910174D02*
X15189230Y-10900650D01*
X15189230Y-10900650D02*
X15217801Y-10900650D01*
X15217801Y-10900650D02*
X15236849Y-10910174D01*
X15313039Y-11110174D02*
X15322563Y-11100650D01*
X15322563Y-11100650D02*
X15341611Y-11072079D01*
X15341611Y-11072079D02*
X15351134Y-11053031D01*
X15351134Y-11053031D02*
X15360658Y-11024460D01*
X15360658Y-11024460D02*
X15370182Y-10976841D01*
X15370182Y-10976841D02*
X15370182Y-10938746D01*
X15370182Y-10938746D02*
X15360658Y-10891127D01*
X15360658Y-10891127D02*
X15351134Y-10862555D01*
X15351134Y-10862555D02*
X15341611Y-10843508D01*
X15341611Y-10843508D02*
X15322563Y-10814936D01*
X15322563Y-10814936D02*
X15313039Y-10805412D01*
D12*
X10347500Y-11206500D02*
G75*
G02*
X10272500Y-11206500I-37500J0D01*
G01*
X10272500Y-11206500D02*
G75*
G02*
X10347500Y-11206500I37500J0D01*
G01*
D11*
X10646372Y-11097984D02*
X10665420Y-11097984D01*
X10665420Y-11097984D02*
X10684467Y-11107508D01*
X10684467Y-11107508D02*
X10693991Y-11117031D01*
X10693991Y-11117031D02*
X10703515Y-11136079D01*
X10703515Y-11136079D02*
X10713039Y-11174174D01*
X10713039Y-11174174D02*
X10713039Y-11221793D01*
X10713039Y-11221793D02*
X10703515Y-11259888D01*
X10703515Y-11259888D02*
X10693991Y-11278936D01*
X10693991Y-11278936D02*
X10684467Y-11288460D01*
X10684467Y-11288460D02*
X10665420Y-11297984D01*
X10665420Y-11297984D02*
X10646372Y-11297984D01*
X10646372Y-11297984D02*
X10627324Y-11288460D01*
X10627324Y-11288460D02*
X10617801Y-11278936D01*
X10617801Y-11278936D02*
X10608277Y-11259888D01*
X10608277Y-11259888D02*
X10598753Y-11221793D01*
X10598753Y-11221793D02*
X10598753Y-11174174D01*
X10598753Y-11174174D02*
X10608277Y-11136079D01*
X10608277Y-11136079D02*
X10617801Y-11117031D01*
X10617801Y-11117031D02*
X10627324Y-11107508D01*
X10627324Y-11107508D02*
X10646372Y-11097984D01*
X10798753Y-11278936D02*
X10808277Y-11288460D01*
X10808277Y-11288460D02*
X10798753Y-11297984D01*
X10798753Y-11297984D02*
X10789229Y-11288460D01*
X10789229Y-11288460D02*
X10798753Y-11278936D01*
X10798753Y-11278936D02*
X10798753Y-11297984D01*
X10874944Y-11097984D02*
X11008277Y-11097984D01*
X11008277Y-11097984D02*
X10922563Y-11297984D01*
X11179705Y-11097984D02*
X11084467Y-11097984D01*
X11084467Y-11097984D02*
X11074944Y-11193222D01*
X11074944Y-11193222D02*
X11084467Y-11183698D01*
X11084467Y-11183698D02*
X11103515Y-11174174D01*
X11103515Y-11174174D02*
X11151134Y-11174174D01*
X11151134Y-11174174D02*
X11170182Y-11183698D01*
X11170182Y-11183698D02*
X11179705Y-11193222D01*
X11179705Y-11193222D02*
X11189229Y-11212269D01*
X11189229Y-11212269D02*
X11189229Y-11259888D01*
X11189229Y-11259888D02*
X11179705Y-11278936D01*
X11179705Y-11278936D02*
X11170182Y-11288460D01*
X11170182Y-11288460D02*
X11151134Y-11297984D01*
X11151134Y-11297984D02*
X11103515Y-11297984D01*
X11103515Y-11297984D02*
X11084467Y-11288460D01*
X11084467Y-11288460D02*
X11074944Y-11278936D01*
X11313039Y-11097984D02*
X11332086Y-11097984D01*
X11332086Y-11097984D02*
X11351134Y-11107508D01*
X11351134Y-11107508D02*
X11360658Y-11117031D01*
X11360658Y-11117031D02*
X11370182Y-11136079D01*
X11370182Y-11136079D02*
X11379705Y-11174174D01*
X11379705Y-11174174D02*
X11379705Y-11221793D01*
X11379705Y-11221793D02*
X11370182Y-11259888D01*
X11370182Y-11259888D02*
X11360658Y-11278936D01*
X11360658Y-11278936D02*
X11351134Y-11288460D01*
X11351134Y-11288460D02*
X11332086Y-11297984D01*
X11332086Y-11297984D02*
X11313039Y-11297984D01*
X11313039Y-11297984D02*
X11293991Y-11288460D01*
X11293991Y-11288460D02*
X11284467Y-11278936D01*
X11284467Y-11278936D02*
X11274943Y-11259888D01*
X11274943Y-11259888D02*
X11265420Y-11221793D01*
X11265420Y-11221793D02*
X11265420Y-11174174D01*
X11265420Y-11174174D02*
X11274943Y-11136079D01*
X11274943Y-11136079D02*
X11284467Y-11117031D01*
X11284467Y-11117031D02*
X11293991Y-11107508D01*
X11293991Y-11107508D02*
X11313039Y-11097984D01*
X11465420Y-11297984D02*
X11465420Y-11164650D01*
X11465420Y-11183698D02*
X11474943Y-11174174D01*
X11474943Y-11174174D02*
X11493991Y-11164650D01*
X11493991Y-11164650D02*
X11522563Y-11164650D01*
X11522563Y-11164650D02*
X11541610Y-11174174D01*
X11541610Y-11174174D02*
X11551134Y-11193222D01*
X11551134Y-11193222D02*
X11551134Y-11297984D01*
X11551134Y-11193222D02*
X11560658Y-11174174D01*
X11560658Y-11174174D02*
X11579705Y-11164650D01*
X11579705Y-11164650D02*
X11608277Y-11164650D01*
X11608277Y-11164650D02*
X11627324Y-11174174D01*
X11627324Y-11174174D02*
X11636848Y-11193222D01*
X11636848Y-11193222D02*
X11636848Y-11297984D01*
X11732086Y-11297984D02*
X11732086Y-11164650D01*
X11732086Y-11183698D02*
X11741610Y-11174174D01*
X11741610Y-11174174D02*
X11760658Y-11164650D01*
X11760658Y-11164650D02*
X11789229Y-11164650D01*
X11789229Y-11164650D02*
X11808277Y-11174174D01*
X11808277Y-11174174D02*
X11817801Y-11193222D01*
X11817801Y-11193222D02*
X11817801Y-11297984D01*
X11817801Y-11193222D02*
X11827324Y-11174174D01*
X11827324Y-11174174D02*
X11846372Y-11164650D01*
X11846372Y-11164650D02*
X11874943Y-11164650D01*
X11874943Y-11164650D02*
X11893991Y-11174174D01*
X11893991Y-11174174D02*
X11903515Y-11193222D01*
X11903515Y-11193222D02*
X11903515Y-11297984D01*
X12293991Y-11088460D02*
X12122563Y-11345603D01*
X12551134Y-11097984D02*
X12570182Y-11097984D01*
X12570182Y-11097984D02*
X12589229Y-11107508D01*
X12589229Y-11107508D02*
X12598753Y-11117031D01*
X12598753Y-11117031D02*
X12608277Y-11136079D01*
X12608277Y-11136079D02*
X12617801Y-11174174D01*
X12617801Y-11174174D02*
X12617801Y-11221793D01*
X12617801Y-11221793D02*
X12608277Y-11259888D01*
X12608277Y-11259888D02*
X12598753Y-11278936D01*
X12598753Y-11278936D02*
X12589229Y-11288460D01*
X12589229Y-11288460D02*
X12570182Y-11297984D01*
X12570182Y-11297984D02*
X12551134Y-11297984D01*
X12551134Y-11297984D02*
X12532086Y-11288460D01*
X12532086Y-11288460D02*
X12522563Y-11278936D01*
X12522563Y-11278936D02*
X12513039Y-11259888D01*
X12513039Y-11259888D02*
X12503515Y-11221793D01*
X12503515Y-11221793D02*
X12503515Y-11174174D01*
X12503515Y-11174174D02*
X12513039Y-11136079D01*
X12513039Y-11136079D02*
X12522563Y-11117031D01*
X12522563Y-11117031D02*
X12532086Y-11107508D01*
X12532086Y-11107508D02*
X12551134Y-11097984D01*
X12703515Y-11278936D02*
X12713039Y-11288460D01*
X12713039Y-11288460D02*
X12703515Y-11297984D01*
X12703515Y-11297984D02*
X12693991Y-11288460D01*
X12693991Y-11288460D02*
X12703515Y-11278936D01*
X12703515Y-11278936D02*
X12703515Y-11297984D01*
X12836848Y-11097984D02*
X12855896Y-11097984D01*
X12855896Y-11097984D02*
X12874944Y-11107508D01*
X12874944Y-11107508D02*
X12884467Y-11117031D01*
X12884467Y-11117031D02*
X12893991Y-11136079D01*
X12893991Y-11136079D02*
X12903515Y-11174174D01*
X12903515Y-11174174D02*
X12903515Y-11221793D01*
X12903515Y-11221793D02*
X12893991Y-11259888D01*
X12893991Y-11259888D02*
X12884467Y-11278936D01*
X12884467Y-11278936D02*
X12874944Y-11288460D01*
X12874944Y-11288460D02*
X12855896Y-11297984D01*
X12855896Y-11297984D02*
X12836848Y-11297984D01*
X12836848Y-11297984D02*
X12817801Y-11288460D01*
X12817801Y-11288460D02*
X12808277Y-11278936D01*
X12808277Y-11278936D02*
X12798753Y-11259888D01*
X12798753Y-11259888D02*
X12789229Y-11221793D01*
X12789229Y-11221793D02*
X12789229Y-11174174D01*
X12789229Y-11174174D02*
X12798753Y-11136079D01*
X12798753Y-11136079D02*
X12808277Y-11117031D01*
X12808277Y-11117031D02*
X12817801Y-11107508D01*
X12817801Y-11107508D02*
X12836848Y-11097984D01*
X12979706Y-11117031D02*
X12989229Y-11107508D01*
X12989229Y-11107508D02*
X13008277Y-11097984D01*
X13008277Y-11097984D02*
X13055896Y-11097984D01*
X13055896Y-11097984D02*
X13074944Y-11107508D01*
X13074944Y-11107508D02*
X13084467Y-11117031D01*
X13084467Y-11117031D02*
X13093991Y-11136079D01*
X13093991Y-11136079D02*
X13093991Y-11155127D01*
X13093991Y-11155127D02*
X13084467Y-11183698D01*
X13084467Y-11183698D02*
X12970182Y-11297984D01*
X12970182Y-11297984D02*
X13093991Y-11297984D01*
X13189229Y-11297984D02*
X13227325Y-11297984D01*
X13227325Y-11297984D02*
X13246372Y-11288460D01*
X13246372Y-11288460D02*
X13255896Y-11278936D01*
X13255896Y-11278936D02*
X13274944Y-11250365D01*
X13274944Y-11250365D02*
X13284467Y-11212269D01*
X13284467Y-11212269D02*
X13284467Y-11136079D01*
X13284467Y-11136079D02*
X13274944Y-11117031D01*
X13274944Y-11117031D02*
X13265420Y-11107508D01*
X13265420Y-11107508D02*
X13246372Y-11097984D01*
X13246372Y-11097984D02*
X13208277Y-11097984D01*
X13208277Y-11097984D02*
X13189229Y-11107508D01*
X13189229Y-11107508D02*
X13179706Y-11117031D01*
X13179706Y-11117031D02*
X13170182Y-11136079D01*
X13170182Y-11136079D02*
X13170182Y-11183698D01*
X13170182Y-11183698D02*
X13179706Y-11202746D01*
X13179706Y-11202746D02*
X13189229Y-11212269D01*
X13189229Y-11212269D02*
X13208277Y-11221793D01*
X13208277Y-11221793D02*
X13246372Y-11221793D01*
X13246372Y-11221793D02*
X13265420Y-11212269D01*
X13265420Y-11212269D02*
X13274944Y-11202746D01*
X13274944Y-11202746D02*
X13284467Y-11183698D01*
X13465420Y-11097984D02*
X13370182Y-11097984D01*
X13370182Y-11097984D02*
X13360658Y-11193222D01*
X13360658Y-11193222D02*
X13370182Y-11183698D01*
X13370182Y-11183698D02*
X13389229Y-11174174D01*
X13389229Y-11174174D02*
X13436848Y-11174174D01*
X13436848Y-11174174D02*
X13455896Y-11183698D01*
X13455896Y-11183698D02*
X13465420Y-11193222D01*
X13465420Y-11193222D02*
X13474944Y-11212269D01*
X13474944Y-11212269D02*
X13474944Y-11259888D01*
X13474944Y-11259888D02*
X13465420Y-11278936D01*
X13465420Y-11278936D02*
X13455896Y-11288460D01*
X13455896Y-11288460D02*
X13436848Y-11297984D01*
X13436848Y-11297984D02*
X13389229Y-11297984D01*
X13389229Y-11297984D02*
X13370182Y-11288460D01*
X13370182Y-11288460D02*
X13360658Y-11278936D01*
X13551134Y-11097984D02*
X13551134Y-11136079D01*
X13627325Y-11097984D02*
X13627325Y-11136079D01*
X13922563Y-11374174D02*
X13913039Y-11364650D01*
X13913039Y-11364650D02*
X13893991Y-11336079D01*
X13893991Y-11336079D02*
X13884468Y-11317031D01*
X13884468Y-11317031D02*
X13874944Y-11288460D01*
X13874944Y-11288460D02*
X13865420Y-11240841D01*
X13865420Y-11240841D02*
X13865420Y-11202746D01*
X13865420Y-11202746D02*
X13874944Y-11155127D01*
X13874944Y-11155127D02*
X13884468Y-11126555D01*
X13884468Y-11126555D02*
X13893991Y-11107508D01*
X13893991Y-11107508D02*
X13913039Y-11078936D01*
X13913039Y-11078936D02*
X13922563Y-11069412D01*
X14008277Y-11297984D02*
X14046372Y-11297984D01*
X14046372Y-11297984D02*
X14065420Y-11288460D01*
X14065420Y-11288460D02*
X14074944Y-11278936D01*
X14074944Y-11278936D02*
X14093991Y-11250365D01*
X14093991Y-11250365D02*
X14103515Y-11212269D01*
X14103515Y-11212269D02*
X14103515Y-11136079D01*
X14103515Y-11136079D02*
X14093991Y-11117031D01*
X14093991Y-11117031D02*
X14084468Y-11107508D01*
X14084468Y-11107508D02*
X14065420Y-11097984D01*
X14065420Y-11097984D02*
X14027325Y-11097984D01*
X14027325Y-11097984D02*
X14008277Y-11107508D01*
X14008277Y-11107508D02*
X13998753Y-11117031D01*
X13998753Y-11117031D02*
X13989229Y-11136079D01*
X13989229Y-11136079D02*
X13989229Y-11183698D01*
X13989229Y-11183698D02*
X13998753Y-11202746D01*
X13998753Y-11202746D02*
X14008277Y-11212269D01*
X14008277Y-11212269D02*
X14027325Y-11221793D01*
X14027325Y-11221793D02*
X14065420Y-11221793D01*
X14065420Y-11221793D02*
X14084468Y-11212269D01*
X14084468Y-11212269D02*
X14093991Y-11202746D01*
X14093991Y-11202746D02*
X14103515Y-11183698D01*
X14341610Y-11297984D02*
X14341610Y-11097984D01*
X14427325Y-11297984D02*
X14427325Y-11193222D01*
X14427325Y-11193222D02*
X14417801Y-11174174D01*
X14417801Y-11174174D02*
X14398753Y-11164650D01*
X14398753Y-11164650D02*
X14370182Y-11164650D01*
X14370182Y-11164650D02*
X14351134Y-11174174D01*
X14351134Y-11174174D02*
X14341610Y-11183698D01*
X14551134Y-11297984D02*
X14532087Y-11288460D01*
X14532087Y-11288460D02*
X14522563Y-11278936D01*
X14522563Y-11278936D02*
X14513039Y-11259888D01*
X14513039Y-11259888D02*
X14513039Y-11202746D01*
X14513039Y-11202746D02*
X14522563Y-11183698D01*
X14522563Y-11183698D02*
X14532087Y-11174174D01*
X14532087Y-11174174D02*
X14551134Y-11164650D01*
X14551134Y-11164650D02*
X14579706Y-11164650D01*
X14579706Y-11164650D02*
X14598753Y-11174174D01*
X14598753Y-11174174D02*
X14608277Y-11183698D01*
X14608277Y-11183698D02*
X14617801Y-11202746D01*
X14617801Y-11202746D02*
X14617801Y-11259888D01*
X14617801Y-11259888D02*
X14608277Y-11278936D01*
X14608277Y-11278936D02*
X14598753Y-11288460D01*
X14598753Y-11288460D02*
X14579706Y-11297984D01*
X14579706Y-11297984D02*
X14551134Y-11297984D01*
X14732087Y-11297984D02*
X14713039Y-11288460D01*
X14713039Y-11288460D02*
X14703515Y-11269412D01*
X14703515Y-11269412D02*
X14703515Y-11097984D01*
X14884468Y-11288460D02*
X14865420Y-11297984D01*
X14865420Y-11297984D02*
X14827325Y-11297984D01*
X14827325Y-11297984D02*
X14808277Y-11288460D01*
X14808277Y-11288460D02*
X14798753Y-11269412D01*
X14798753Y-11269412D02*
X14798753Y-11193222D01*
X14798753Y-11193222D02*
X14808277Y-11174174D01*
X14808277Y-11174174D02*
X14827325Y-11164650D01*
X14827325Y-11164650D02*
X14865420Y-11164650D01*
X14865420Y-11164650D02*
X14884468Y-11174174D01*
X14884468Y-11174174D02*
X14893991Y-11193222D01*
X14893991Y-11193222D02*
X14893991Y-11212269D01*
X14893991Y-11212269D02*
X14798753Y-11231317D01*
X14970182Y-11288460D02*
X14989230Y-11297984D01*
X14989230Y-11297984D02*
X15027325Y-11297984D01*
X15027325Y-11297984D02*
X15046372Y-11288460D01*
X15046372Y-11288460D02*
X15055896Y-11269412D01*
X15055896Y-11269412D02*
X15055896Y-11259888D01*
X15055896Y-11259888D02*
X15046372Y-11240841D01*
X15046372Y-11240841D02*
X15027325Y-11231317D01*
X15027325Y-11231317D02*
X14998753Y-11231317D01*
X14998753Y-11231317D02*
X14979706Y-11221793D01*
X14979706Y-11221793D02*
X14970182Y-11202746D01*
X14970182Y-11202746D02*
X14970182Y-11193222D01*
X14970182Y-11193222D02*
X14979706Y-11174174D01*
X14979706Y-11174174D02*
X14998753Y-11164650D01*
X14998753Y-11164650D02*
X15027325Y-11164650D01*
X15027325Y-11164650D02*
X15046372Y-11174174D01*
X15122563Y-11374174D02*
X15132087Y-11364650D01*
X15132087Y-11364650D02*
X15151134Y-11336079D01*
X15151134Y-11336079D02*
X15160658Y-11317031D01*
X15160658Y-11317031D02*
X15170182Y-11288460D01*
X15170182Y-11288460D02*
X15179706Y-11240841D01*
X15179706Y-11240841D02*
X15179706Y-11202746D01*
X15179706Y-11202746D02*
X15170182Y-11155127D01*
X15170182Y-11155127D02*
X15160658Y-11126555D01*
X15160658Y-11126555D02*
X15151134Y-11107508D01*
X15151134Y-11107508D02*
X15132087Y-11078936D01*
X15132087Y-11078936D02*
X15122563Y-11069412D01*
D12*
X10297500Y-11420500D02*
X10297500Y-11520500D01*
X10247500Y-11470500D02*
X10347500Y-11470500D01*
D11*
X10713039Y-11561984D02*
X10598753Y-11561984D01*
X10655896Y-11561984D02*
X10655896Y-11361984D01*
X10655896Y-11361984D02*
X10636848Y-11390555D01*
X10636848Y-11390555D02*
X10617801Y-11409603D01*
X10617801Y-11409603D02*
X10598753Y-11419127D01*
X10798753Y-11542936D02*
X10808277Y-11552460D01*
X10808277Y-11552460D02*
X10798753Y-11561984D01*
X10798753Y-11561984D02*
X10789229Y-11552460D01*
X10789229Y-11552460D02*
X10798753Y-11542936D01*
X10798753Y-11542936D02*
X10798753Y-11561984D01*
X10932086Y-11361984D02*
X10951134Y-11361984D01*
X10951134Y-11361984D02*
X10970182Y-11371508D01*
X10970182Y-11371508D02*
X10979705Y-11381031D01*
X10979705Y-11381031D02*
X10989229Y-11400079D01*
X10989229Y-11400079D02*
X10998753Y-11438174D01*
X10998753Y-11438174D02*
X10998753Y-11485793D01*
X10998753Y-11485793D02*
X10989229Y-11523888D01*
X10989229Y-11523888D02*
X10979705Y-11542936D01*
X10979705Y-11542936D02*
X10970182Y-11552460D01*
X10970182Y-11552460D02*
X10951134Y-11561984D01*
X10951134Y-11561984D02*
X10932086Y-11561984D01*
X10932086Y-11561984D02*
X10913039Y-11552460D01*
X10913039Y-11552460D02*
X10903515Y-11542936D01*
X10903515Y-11542936D02*
X10893991Y-11523888D01*
X10893991Y-11523888D02*
X10884467Y-11485793D01*
X10884467Y-11485793D02*
X10884467Y-11438174D01*
X10884467Y-11438174D02*
X10893991Y-11400079D01*
X10893991Y-11400079D02*
X10903515Y-11381031D01*
X10903515Y-11381031D02*
X10913039Y-11371508D01*
X10913039Y-11371508D02*
X10932086Y-11361984D01*
X11122563Y-11361984D02*
X11141610Y-11361984D01*
X11141610Y-11361984D02*
X11160658Y-11371508D01*
X11160658Y-11371508D02*
X11170182Y-11381031D01*
X11170182Y-11381031D02*
X11179705Y-11400079D01*
X11179705Y-11400079D02*
X11189229Y-11438174D01*
X11189229Y-11438174D02*
X11189229Y-11485793D01*
X11189229Y-11485793D02*
X11179705Y-11523888D01*
X11179705Y-11523888D02*
X11170182Y-11542936D01*
X11170182Y-11542936D02*
X11160658Y-11552460D01*
X11160658Y-11552460D02*
X11141610Y-11561984D01*
X11141610Y-11561984D02*
X11122563Y-11561984D01*
X11122563Y-11561984D02*
X11103515Y-11552460D01*
X11103515Y-11552460D02*
X11093991Y-11542936D01*
X11093991Y-11542936D02*
X11084467Y-11523888D01*
X11084467Y-11523888D02*
X11074944Y-11485793D01*
X11074944Y-11485793D02*
X11074944Y-11438174D01*
X11074944Y-11438174D02*
X11084467Y-11400079D01*
X11084467Y-11400079D02*
X11093991Y-11381031D01*
X11093991Y-11381031D02*
X11103515Y-11371508D01*
X11103515Y-11371508D02*
X11122563Y-11361984D01*
X11313039Y-11361984D02*
X11332086Y-11361984D01*
X11332086Y-11361984D02*
X11351134Y-11371508D01*
X11351134Y-11371508D02*
X11360658Y-11381031D01*
X11360658Y-11381031D02*
X11370182Y-11400079D01*
X11370182Y-11400079D02*
X11379705Y-11438174D01*
X11379705Y-11438174D02*
X11379705Y-11485793D01*
X11379705Y-11485793D02*
X11370182Y-11523888D01*
X11370182Y-11523888D02*
X11360658Y-11542936D01*
X11360658Y-11542936D02*
X11351134Y-11552460D01*
X11351134Y-11552460D02*
X11332086Y-11561984D01*
X11332086Y-11561984D02*
X11313039Y-11561984D01*
X11313039Y-11561984D02*
X11293991Y-11552460D01*
X11293991Y-11552460D02*
X11284467Y-11542936D01*
X11284467Y-11542936D02*
X11274943Y-11523888D01*
X11274943Y-11523888D02*
X11265420Y-11485793D01*
X11265420Y-11485793D02*
X11265420Y-11438174D01*
X11265420Y-11438174D02*
X11274943Y-11400079D01*
X11274943Y-11400079D02*
X11284467Y-11381031D01*
X11284467Y-11381031D02*
X11293991Y-11371508D01*
X11293991Y-11371508D02*
X11313039Y-11361984D01*
X11465420Y-11561984D02*
X11465420Y-11428650D01*
X11465420Y-11447698D02*
X11474943Y-11438174D01*
X11474943Y-11438174D02*
X11493991Y-11428650D01*
X11493991Y-11428650D02*
X11522563Y-11428650D01*
X11522563Y-11428650D02*
X11541610Y-11438174D01*
X11541610Y-11438174D02*
X11551134Y-11457222D01*
X11551134Y-11457222D02*
X11551134Y-11561984D01*
X11551134Y-11457222D02*
X11560658Y-11438174D01*
X11560658Y-11438174D02*
X11579705Y-11428650D01*
X11579705Y-11428650D02*
X11608277Y-11428650D01*
X11608277Y-11428650D02*
X11627324Y-11438174D01*
X11627324Y-11438174D02*
X11636848Y-11457222D01*
X11636848Y-11457222D02*
X11636848Y-11561984D01*
X11732086Y-11561984D02*
X11732086Y-11428650D01*
X11732086Y-11447698D02*
X11741610Y-11438174D01*
X11741610Y-11438174D02*
X11760658Y-11428650D01*
X11760658Y-11428650D02*
X11789229Y-11428650D01*
X11789229Y-11428650D02*
X11808277Y-11438174D01*
X11808277Y-11438174D02*
X11817801Y-11457222D01*
X11817801Y-11457222D02*
X11817801Y-11561984D01*
X11817801Y-11457222D02*
X11827324Y-11438174D01*
X11827324Y-11438174D02*
X11846372Y-11428650D01*
X11846372Y-11428650D02*
X11874943Y-11428650D01*
X11874943Y-11428650D02*
X11893991Y-11438174D01*
X11893991Y-11438174D02*
X11903515Y-11457222D01*
X11903515Y-11457222D02*
X11903515Y-11561984D01*
X12293991Y-11352460D02*
X12122563Y-11609603D01*
X12551134Y-11361984D02*
X12570182Y-11361984D01*
X12570182Y-11361984D02*
X12589229Y-11371508D01*
X12589229Y-11371508D02*
X12598753Y-11381031D01*
X12598753Y-11381031D02*
X12608277Y-11400079D01*
X12608277Y-11400079D02*
X12617801Y-11438174D01*
X12617801Y-11438174D02*
X12617801Y-11485793D01*
X12617801Y-11485793D02*
X12608277Y-11523888D01*
X12608277Y-11523888D02*
X12598753Y-11542936D01*
X12598753Y-11542936D02*
X12589229Y-11552460D01*
X12589229Y-11552460D02*
X12570182Y-11561984D01*
X12570182Y-11561984D02*
X12551134Y-11561984D01*
X12551134Y-11561984D02*
X12532086Y-11552460D01*
X12532086Y-11552460D02*
X12522563Y-11542936D01*
X12522563Y-11542936D02*
X12513039Y-11523888D01*
X12513039Y-11523888D02*
X12503515Y-11485793D01*
X12503515Y-11485793D02*
X12503515Y-11438174D01*
X12503515Y-11438174D02*
X12513039Y-11400079D01*
X12513039Y-11400079D02*
X12522563Y-11381031D01*
X12522563Y-11381031D02*
X12532086Y-11371508D01*
X12532086Y-11371508D02*
X12551134Y-11361984D01*
X12703515Y-11542936D02*
X12713039Y-11552460D01*
X12713039Y-11552460D02*
X12703515Y-11561984D01*
X12703515Y-11561984D02*
X12693991Y-11552460D01*
X12693991Y-11552460D02*
X12703515Y-11542936D01*
X12703515Y-11542936D02*
X12703515Y-11561984D01*
X12836848Y-11361984D02*
X12855896Y-11361984D01*
X12855896Y-11361984D02*
X12874944Y-11371508D01*
X12874944Y-11371508D02*
X12884467Y-11381031D01*
X12884467Y-11381031D02*
X12893991Y-11400079D01*
X12893991Y-11400079D02*
X12903515Y-11438174D01*
X12903515Y-11438174D02*
X12903515Y-11485793D01*
X12903515Y-11485793D02*
X12893991Y-11523888D01*
X12893991Y-11523888D02*
X12884467Y-11542936D01*
X12884467Y-11542936D02*
X12874944Y-11552460D01*
X12874944Y-11552460D02*
X12855896Y-11561984D01*
X12855896Y-11561984D02*
X12836848Y-11561984D01*
X12836848Y-11561984D02*
X12817801Y-11552460D01*
X12817801Y-11552460D02*
X12808277Y-11542936D01*
X12808277Y-11542936D02*
X12798753Y-11523888D01*
X12798753Y-11523888D02*
X12789229Y-11485793D01*
X12789229Y-11485793D02*
X12789229Y-11438174D01*
X12789229Y-11438174D02*
X12798753Y-11400079D01*
X12798753Y-11400079D02*
X12808277Y-11381031D01*
X12808277Y-11381031D02*
X12817801Y-11371508D01*
X12817801Y-11371508D02*
X12836848Y-11361984D01*
X12970182Y-11361984D02*
X13093991Y-11361984D01*
X13093991Y-11361984D02*
X13027325Y-11438174D01*
X13027325Y-11438174D02*
X13055896Y-11438174D01*
X13055896Y-11438174D02*
X13074944Y-11447698D01*
X13074944Y-11447698D02*
X13084467Y-11457222D01*
X13084467Y-11457222D02*
X13093991Y-11476269D01*
X13093991Y-11476269D02*
X13093991Y-11523888D01*
X13093991Y-11523888D02*
X13084467Y-11542936D01*
X13084467Y-11542936D02*
X13074944Y-11552460D01*
X13074944Y-11552460D02*
X13055896Y-11561984D01*
X13055896Y-11561984D02*
X12998753Y-11561984D01*
X12998753Y-11561984D02*
X12979706Y-11552460D01*
X12979706Y-11552460D02*
X12970182Y-11542936D01*
X13189229Y-11561984D02*
X13227325Y-11561984D01*
X13227325Y-11561984D02*
X13246372Y-11552460D01*
X13246372Y-11552460D02*
X13255896Y-11542936D01*
X13255896Y-11542936D02*
X13274944Y-11514365D01*
X13274944Y-11514365D02*
X13284467Y-11476269D01*
X13284467Y-11476269D02*
X13284467Y-11400079D01*
X13284467Y-11400079D02*
X13274944Y-11381031D01*
X13274944Y-11381031D02*
X13265420Y-11371508D01*
X13265420Y-11371508D02*
X13246372Y-11361984D01*
X13246372Y-11361984D02*
X13208277Y-11361984D01*
X13208277Y-11361984D02*
X13189229Y-11371508D01*
X13189229Y-11371508D02*
X13179706Y-11381031D01*
X13179706Y-11381031D02*
X13170182Y-11400079D01*
X13170182Y-11400079D02*
X13170182Y-11447698D01*
X13170182Y-11447698D02*
X13179706Y-11466746D01*
X13179706Y-11466746D02*
X13189229Y-11476269D01*
X13189229Y-11476269D02*
X13208277Y-11485793D01*
X13208277Y-11485793D02*
X13246372Y-11485793D01*
X13246372Y-11485793D02*
X13265420Y-11476269D01*
X13265420Y-11476269D02*
X13274944Y-11466746D01*
X13274944Y-11466746D02*
X13284467Y-11447698D01*
X13455896Y-11428650D02*
X13455896Y-11561984D01*
X13408277Y-11352460D02*
X13360658Y-11495317D01*
X13360658Y-11495317D02*
X13484467Y-11495317D01*
X13551134Y-11361984D02*
X13551134Y-11400079D01*
X13627325Y-11361984D02*
X13627325Y-11400079D01*
X13922563Y-11638174D02*
X13913039Y-11628650D01*
X13913039Y-11628650D02*
X13893991Y-11600079D01*
X13893991Y-11600079D02*
X13884468Y-11581031D01*
X13884468Y-11581031D02*
X13874944Y-11552460D01*
X13874944Y-11552460D02*
X13865420Y-11504841D01*
X13865420Y-11504841D02*
X13865420Y-11466746D01*
X13865420Y-11466746D02*
X13874944Y-11419127D01*
X13874944Y-11419127D02*
X13884468Y-11390555D01*
X13884468Y-11390555D02*
X13893991Y-11371508D01*
X13893991Y-11371508D02*
X13913039Y-11342936D01*
X13913039Y-11342936D02*
X13922563Y-11333412D01*
X13979706Y-11361984D02*
X14113039Y-11361984D01*
X14113039Y-11361984D02*
X14027325Y-11561984D01*
X14341610Y-11561984D02*
X14341610Y-11361984D01*
X14427325Y-11561984D02*
X14427325Y-11457222D01*
X14427325Y-11457222D02*
X14417801Y-11438174D01*
X14417801Y-11438174D02*
X14398753Y-11428650D01*
X14398753Y-11428650D02*
X14370182Y-11428650D01*
X14370182Y-11428650D02*
X14351134Y-11438174D01*
X14351134Y-11438174D02*
X14341610Y-11447698D01*
X14551134Y-11561984D02*
X14532087Y-11552460D01*
X14532087Y-11552460D02*
X14522563Y-11542936D01*
X14522563Y-11542936D02*
X14513039Y-11523888D01*
X14513039Y-11523888D02*
X14513039Y-11466746D01*
X14513039Y-11466746D02*
X14522563Y-11447698D01*
X14522563Y-11447698D02*
X14532087Y-11438174D01*
X14532087Y-11438174D02*
X14551134Y-11428650D01*
X14551134Y-11428650D02*
X14579706Y-11428650D01*
X14579706Y-11428650D02*
X14598753Y-11438174D01*
X14598753Y-11438174D02*
X14608277Y-11447698D01*
X14608277Y-11447698D02*
X14617801Y-11466746D01*
X14617801Y-11466746D02*
X14617801Y-11523888D01*
X14617801Y-11523888D02*
X14608277Y-11542936D01*
X14608277Y-11542936D02*
X14598753Y-11552460D01*
X14598753Y-11552460D02*
X14579706Y-11561984D01*
X14579706Y-11561984D02*
X14551134Y-11561984D01*
X14732087Y-11561984D02*
X14713039Y-11552460D01*
X14713039Y-11552460D02*
X14703515Y-11533412D01*
X14703515Y-11533412D02*
X14703515Y-11361984D01*
X14884468Y-11552460D02*
X14865420Y-11561984D01*
X14865420Y-11561984D02*
X14827325Y-11561984D01*
X14827325Y-11561984D02*
X14808277Y-11552460D01*
X14808277Y-11552460D02*
X14798753Y-11533412D01*
X14798753Y-11533412D02*
X14798753Y-11457222D01*
X14798753Y-11457222D02*
X14808277Y-11438174D01*
X14808277Y-11438174D02*
X14827325Y-11428650D01*
X14827325Y-11428650D02*
X14865420Y-11428650D01*
X14865420Y-11428650D02*
X14884468Y-11438174D01*
X14884468Y-11438174D02*
X14893991Y-11457222D01*
X14893991Y-11457222D02*
X14893991Y-11476269D01*
X14893991Y-11476269D02*
X14798753Y-11495317D01*
X14970182Y-11552460D02*
X14989230Y-11561984D01*
X14989230Y-11561984D02*
X15027325Y-11561984D01*
X15027325Y-11561984D02*
X15046372Y-11552460D01*
X15046372Y-11552460D02*
X15055896Y-11533412D01*
X15055896Y-11533412D02*
X15055896Y-11523888D01*
X15055896Y-11523888D02*
X15046372Y-11504841D01*
X15046372Y-11504841D02*
X15027325Y-11495317D01*
X15027325Y-11495317D02*
X14998753Y-11495317D01*
X14998753Y-11495317D02*
X14979706Y-11485793D01*
X14979706Y-11485793D02*
X14970182Y-11466746D01*
X14970182Y-11466746D02*
X14970182Y-11457222D01*
X14970182Y-11457222D02*
X14979706Y-11438174D01*
X14979706Y-11438174D02*
X14998753Y-11428650D01*
X14998753Y-11428650D02*
X15027325Y-11428650D01*
X15027325Y-11428650D02*
X15046372Y-11438174D01*
X15122563Y-11638174D02*
X15132087Y-11628650D01*
X15132087Y-11628650D02*
X15151134Y-11600079D01*
X15151134Y-11600079D02*
X15160658Y-11581031D01*
X15160658Y-11581031D02*
X15170182Y-11552460D01*
X15170182Y-11552460D02*
X15179706Y-11504841D01*
X15179706Y-11504841D02*
X15179706Y-11466746D01*
X15179706Y-11466746D02*
X15170182Y-11419127D01*
X15170182Y-11419127D02*
X15160658Y-11390555D01*
X15160658Y-11390555D02*
X15151134Y-11371508D01*
X15151134Y-11371508D02*
X15132087Y-11342936D01*
X15132087Y-11342936D02*
X15122563Y-11333412D01*
M02*
